<svg width="40" height="40" viewBox="0 0 40 40" fill="none" xmlns="http://www.w3.org/2000/svg">
<path d="M23.3339 17.4982L19.1696 21.6674L16.6686 19.1664" stroke="#95FF7A" stroke-width="1.5" stroke-linecap="round" stroke-linejoin="round"/>
<path fill-rule="evenodd" clip-rule="evenodd" d="M20 6.66113C11.7132 6.66113 4.99371 12.2613 4.99371 19.1615C5.11897 23.3254 7.41539 27.1196 11.0462 29.1618C10.6856 30.1419 10.1841 31.0642 9.55751 31.8998C9.21169 32.4047 9.22025 33.0724 9.57889 33.5683C9.93753 34.0641 10.569 34.2814 11.1568 34.111C13.1615 33.5274 15.0484 32.5969 16.7319 31.3619C17.8095 31.5639 18.9036 31.6643 20 31.6619C28.2867 31.6619 35.0062 26.0617 35.0062 19.1615C35.0062 12.2613 28.2867 6.66113 20 6.66113Z" stroke="#95FF7A" stroke-width="1.5" stroke-linecap="round" stroke-linejoin="round"/>
</svg>
