<svg width="40" height="40" viewBox="0 0 40 40" fill="none" xmlns="http://www.w3.org/2000/svg">
<path d="M28.8904 10.9709L25.0713 14.7919L22.7766 12.4993" stroke="#95FF7A" stroke-width="1.5" stroke-linecap="round" stroke-linejoin="round"/>
<path d="M26.6694 21.6253C31.6041 21.1737 35.287 16.8829 34.9853 11.9368C34.6837 6.99065 30.5066 3.17923 25.5536 3.33065C20.6006 3.48208 16.6642 7.54155 16.6652 12.4969C16.6652 12.7784 16.6824 13.0556 16.7073 13.3305" stroke="#95FF7A" stroke-width="1.5" stroke-linecap="round" stroke-linejoin="round"/>
<rect x="4.99371" y="24.6895" width="5.00208" height="10.3168" rx="0.5" stroke="#95FF7A" stroke-width="1.5" stroke-linecap="round" stroke-linejoin="round"/>
<path d="M10.1521 32.7928L12.1793 34.4671C12.6012 34.8156 13.1313 35.0062 13.6786 35.0062H20.4971C21.6137 35.0062 22.5951 34.266 22.9019 33.1923L24.0584 29.1446C24.3009 28.2957 24.131 27.3821 23.5993 26.6772C23.0676 25.9724 22.2359 25.5579 21.353 25.5579H18.3326" stroke="#95FF7A" stroke-width="1.5" stroke-linecap="round" stroke-linejoin="round"/>
<path d="M18.3326 25.5579V22.7838C18.3326 21.54 17.5061 20.4476 16.3091 20.1095C15.1121 19.7713 13.8362 20.2698 13.1854 21.3298L9.99579 26.5247" stroke="#95FF7A" stroke-width="1.5" stroke-linecap="round" stroke-linejoin="round"/>
</svg>
