<svg width="40" height="40" viewBox="0 0 40 40" fill="none" xmlns="http://www.w3.org/2000/svg">
<path d="M21.6673 34.9029C21.1142 34.9715 20.5573 35.0063 20 35.0063C11.7122 35.0063 4.99371 28.2877 4.99371 20C4.99371 11.7123 11.7122 4.99377 20 4.99377C28.2877 4.99377 35.0062 11.7123 35.0062 20C35.0062 20.5574 34.9714 21.1142 34.9028 21.6674" stroke="#95FF7A" stroke-width="1.5" stroke-linecap="round" stroke-linejoin="round"/>
<path d="M33.3389 28.3368L29.1705 32.5052L26.6694 30.0042" stroke="#95FF7A" stroke-width="1.5" stroke-linecap="round" stroke-linejoin="round"/>
<path fill-rule="evenodd" clip-rule="evenodd" d="M18.5977 25.714H14.2859V21.4022C14.2859 20.9601 14.4618 20.536 14.7745 20.2234L21.4439 13.554C22.095 12.9031 23.1505 12.9031 23.8016 13.554L26.446 16.1984C27.0969 16.8495 27.0969 17.905 26.446 18.5561L19.7766 25.2255C19.464 25.5382 19.0399 25.714 18.5977 25.714Z" stroke="#95FF7A" stroke-width="1.5" stroke-linecap="round" stroke-linejoin="round"/>
</svg>
