<svg width="40" height="35" viewBox="0 0 40 35" fill="none" xmlns="http://www.w3.org/2000/svg">
<path d="M0 28.6967V35C5.98639 35 10.2313 33.0648 12.7347 29.1943C15.2381 25.4344 16.4898 20.1264 16.4898 13.2701V0H0.489798V15.7583H8.81633C8.81633 20.2923 8.16327 23.4439 6.85715 25.2133C5.55102 26.9826 3.26531 28.1438 0 28.6967Z" fill="#E0ECF8"/>
<path d="M23.5102 28.6967V35C29.4966 35 33.7415 33.0648 36.2449 29.1943C38.7483 25.4344 40 20.1264 40 13.2701V0H24V15.7583H32.3265C32.3265 20.2923 31.6735 23.4439 30.3673 25.2133C29.0612 26.9826 26.7755 28.1438 23.5102 28.6967Z" fill="#E0ECF8"/>
</svg>
