<svg width="225" height="120" viewBox="0 0 225 120" fill="none" xmlns="http://www.w3.org/2000/svg">
<g clip-path="url(#clip0_2_19158)">
<path d="M1.48043 109.201C1.72615 108.836 2.06207 108.54 2.45564 108.343C2.84922 108.146 3.2871 108.053 3.72683 108.075C4.12626 108.063 4.52293 108.145 4.88407 108.316C5.27289 108.53 5.61905 108.813 5.90517 109.152L6.52401 108.589C6.17023 108.165 5.73448 107.818 5.243 107.568C4.76521 107.368 4.25042 107.273 3.73302 107.289C3.22144 107.266 2.71111 107.357 2.23978 107.558C1.76846 107.758 1.3482 108.062 1.01011 108.446C0.35775 109.378 0.0078125 110.487 0.0078125 111.624C0.0078125 112.761 0.35775 113.871 1.01011 114.802C1.34761 115.188 1.76759 115.493 2.23895 115.694C2.71031 115.895 3.22095 115.988 3.73302 115.965C4.25113 115.982 4.76665 115.885 5.243 115.681C5.73311 115.431 6.16857 115.086 6.52401 114.666L5.90517 114.103C5.61559 114.438 5.27012 114.721 4.88407 114.938C4.52141 115.104 4.12549 115.184 3.72683 115.173C3.2871 115.195 2.84922 115.102 2.45564 114.905C2.06207 114.708 1.72615 114.412 1.48043 114.047C1.26944 113.741 1.11633 113.399 1.02867 113.038C0.855447 112.103 0.855447 111.145 1.02867 110.21C1.1175 109.849 1.27052 109.508 1.48043 109.201ZM88.6941 107.289C88.0927 107.268 87.4931 107.367 86.9304 107.58C86.4309 107.793 86.0019 108.142 85.6927 108.589L86.3425 109.152C86.5708 108.798 86.889 108.512 87.2645 108.323C87.7119 108.141 88.1929 108.056 88.6755 108.075C89.3276 108.014 89.9788 108.2 90.5011 108.595C90.6999 108.799 90.853 109.043 90.9501 109.311C91.0472 109.579 91.0861 109.864 91.0643 110.148V111.101H88.329C87.5549 111.048 86.7867 111.267 86.1568 111.72C85.8965 111.94 85.6907 112.216 85.5554 112.529C85.4201 112.841 85.3591 113.181 85.3771 113.521C85.3756 113.833 85.4279 114.143 85.5318 114.437C85.6283 114.713 85.7847 114.964 85.9897 115.173C86.259 115.461 86.5979 115.674 86.9737 115.792C87.4658 115.924 87.9743 115.985 88.4837 115.971C88.987 115.985 89.4891 115.914 89.9689 115.761C90.3833 115.595 90.757 115.342 91.0643 115.018V115.891H91.9616V110.092C91.9875 109.71 91.9276 109.326 91.7863 108.97C91.645 108.613 91.4258 108.293 91.1447 108.032C90.4438 107.497 89.5737 107.234 88.6941 107.289ZM91.0828 112.908C91.1144 113.195 91.0891 113.485 91.0084 113.763C90.9277 114.04 90.7932 114.298 90.6125 114.523C90.3645 114.78 90.0493 114.963 89.7028 115.049C89.3089 115.138 88.9059 115.179 88.5022 115.173C87.9149 115.217 87.3285 115.077 86.8252 114.771C86.6429 114.623 86.4988 114.433 86.4051 114.218C86.3115 114.002 86.2709 113.768 86.2868 113.533C86.2868 112.399 87.0088 111.831 88.4527 111.831H91.0828V112.908ZM27.1006 107.289C26.5269 107.265 25.9571 107.395 25.4509 107.666C24.9447 107.937 24.5206 108.339 24.2229 108.83C23.9846 108.351 23.61 107.952 23.1462 107.685C22.6419 107.411 22.074 107.274 21.5 107.289C21.0246 107.271 20.5512 107.361 20.1159 107.553C19.6805 107.745 19.2946 108.033 18.9875 108.397V107.394H18.0964V115.891H18.9875V110.637C18.9441 109.961 19.1661 109.295 19.6064 108.781C19.8362 108.552 20.1114 108.375 20.4142 108.26C20.7169 108.145 21.0405 108.094 21.3639 108.112C21.6833 108.09 22.0039 108.136 22.3038 108.248C22.6038 108.361 22.8763 108.536 23.1028 108.762C23.5363 109.28 23.7574 109.944 23.7217 110.618V115.891H24.6128V110.482C24.5962 110.164 24.6459 109.845 24.7588 109.547C24.8717 109.249 25.0454 108.977 25.2688 108.75C25.5012 108.535 25.7744 108.37 26.0721 108.264C26.3699 108.157 26.686 108.112 27.0015 108.131C27.321 108.108 27.6415 108.155 27.9415 108.267C28.2415 108.379 28.5139 108.554 28.7405 108.781C29.174 109.299 29.3951 109.962 29.3593 110.637V115.891H30.2381V110.482C30.2758 110.063 30.2221 109.641 30.0809 109.245C29.9397 108.849 29.7143 108.488 29.4201 108.188C29.126 107.887 28.7702 107.654 28.3772 107.504C27.9843 107.354 27.5635 107.291 27.1439 107.32L27.1006 107.289ZM80.6367 104.69H79.7394V107.394H78.5822V108.063H79.7394V113.632C79.7144 114.212 79.9039 114.78 80.2716 115.229C80.4589 115.439 80.6916 115.604 80.9521 115.712C81.2127 115.819 81.4942 115.865 81.7754 115.848H82.549V115.056H81.9301C81.7499 115.069 81.569 115.042 81.4001 114.978C81.2312 114.914 81.0784 114.814 80.9524 114.684C80.72 114.392 80.6052 114.023 80.6305 113.651V108.081H82.5428V107.413H80.6305L80.6367 104.69ZM64.2683 108.465C63.9882 108.055 63.6007 107.729 63.1482 107.524C62.3185 107.206 61.4041 107.187 60.5614 107.469C60.2331 107.582 59.9333 107.766 59.6827 108.007C59.2698 108.431 58.979 108.96 58.8411 109.536C58.5111 110.898 58.5111 112.319 58.8411 113.682C58.9804 114.257 59.271 114.785 59.6827 115.21C59.9352 115.447 60.2345 115.629 60.5614 115.743C60.9439 115.882 61.3486 115.952 61.7558 115.947C62.2321 115.955 62.7054 115.869 63.1482 115.693C63.5994 115.486 63.9863 115.161 64.2683 114.752V115.891H65.1594V103.353H64.2683V108.465ZM64.1755 112.958C64.1289 113.346 64.0136 113.723 63.8351 114.072C63.6719 114.402 63.416 114.677 63.0987 114.864C62.7197 115.055 62.3011 115.155 61.8765 115.155C61.4519 115.155 61.0332 115.055 60.6543 114.864C60.3386 114.675 60.0831 114.4 59.9178 114.072C59.7421 113.722 59.627 113.346 59.5775 112.958C59.462 112.06 59.462 111.151 59.5775 110.253C59.6288 109.866 59.7438 109.489 59.9178 109.139C60.0848 108.812 60.3398 108.538 60.6543 108.347C61.0332 108.156 61.4519 108.056 61.8765 108.056C62.3011 108.056 62.7197 108.156 63.0987 108.347C63.4146 108.536 63.6701 108.811 63.8351 109.139C64.012 109.488 64.1271 109.865 64.1755 110.253C64.2992 111.151 64.2992 112.06 64.1755 112.958ZM13.4303 107.271C12.9314 107.266 12.438 107.376 11.9884 107.592C11.5656 107.79 11.2073 108.103 10.9549 108.496V107.376H10.0576V115.891H10.9549V110.674C10.9377 110.013 11.1572 109.368 11.5738 108.855C11.7726 108.609 12.0261 108.413 12.3141 108.283C12.6021 108.153 12.9166 108.093 13.2323 108.106C13.5275 108.097 13.8217 108.146 14.0987 108.248C14.373 108.376 14.6208 108.555 14.8289 108.774L15.4787 108.125C15.22 107.854 14.9053 107.642 14.5566 107.506C14.1902 107.361 13.7995 107.287 13.4056 107.289L13.4303 107.271ZM72.0534 107.271C71.452 107.249 70.8524 107.348 70.2897 107.561C69.7891 107.772 69.3596 108.122 69.052 108.57L69.7018 109.133C69.9301 108.78 70.2483 108.494 70.6238 108.304C71.071 108.121 71.5522 108.037 72.0348 108.056C72.6868 107.997 73.3375 108.182 73.8604 108.576C74.0592 108.78 74.2123 109.024 74.3094 109.292C74.4065 109.56 74.4454 109.846 74.4235 110.13V111.083H71.6821C70.9101 111.03 70.144 111.249 69.5161 111.701C69.2517 111.925 69.0439 112.209 68.9095 112.528C68.7751 112.847 68.7179 113.194 68.7426 113.539C68.7432 113.852 68.7976 114.162 68.9035 114.455C69 114.732 69.1564 114.983 69.3614 115.192C69.6287 115.482 69.9683 115.695 70.3454 115.811C70.8374 115.943 71.346 116.003 71.8553 115.99C72.3587 116.003 72.8607 115.932 73.3406 115.78C73.7544 115.613 74.1279 115.36 74.4359 115.037V115.891H75.3332V110.092C75.3592 109.71 75.2993 109.326 75.158 108.97C75.0167 108.613 74.7974 108.293 74.5164 108.032C73.8056 107.489 72.9207 107.225 72.0286 107.289L72.0534 107.271ZM74.4421 112.89C74.4728 113.177 74.4465 113.468 74.3648 113.745C74.283 114.022 74.1474 114.28 73.9656 114.505C73.721 114.763 73.4074 114.946 73.0621 115.031C72.6681 115.119 72.2652 115.16 71.8615 115.155C71.2742 115.2 70.6875 115.059 70.1845 114.752C70.0022 114.604 69.8581 114.414 69.7644 114.199C69.6708 113.984 69.6301 113.749 69.6461 113.515C69.6461 112.382 70.3701 111.813 71.8058 111.813H74.4421V112.89ZM48.7415 112.017C48.9195 111.309 49.0048 110.581 48.9953 109.851H48.0608C48.0775 110.457 48.0256 111.064 47.9061 111.658C47.7884 112.122 47.5917 112.561 47.3244 112.958L43.7413 108.626C43.8712 108.545 44.0321 108.44 44.224 108.304L44.6757 107.995C45.0856 107.734 45.4425 107.398 45.7278 107.004C45.9815 106.642 46.1157 106.209 46.1114 105.767C46.1193 105.435 46.0579 105.105 45.9311 104.798C45.8043 104.491 45.6149 104.214 45.375 103.984C45.1389 103.747 44.857 103.56 44.5464 103.434C44.2358 103.308 43.9029 103.247 43.568 103.254C43.2339 103.246 42.9016 103.305 42.591 103.428C42.2805 103.552 41.9981 103.737 41.761 103.972C41.5201 104.2 41.3297 104.476 41.2018 104.782C41.0739 105.087 41.0114 105.417 41.0184 105.748C41.0161 106.226 41.1422 106.697 41.3835 107.11C41.6826 107.61 42.0264 108.082 42.4108 108.521C41.9157 108.849 41.5258 109.139 41.2349 109.337C40.9287 109.564 40.6485 109.823 40.3995 110.111C40.1356 110.408 39.9261 110.75 39.7807 111.12C39.6321 111.526 39.5587 111.956 39.5641 112.388C39.5457 112.871 39.6325 113.352 39.8184 113.797C40.0044 114.243 40.285 114.643 40.6409 114.969C41.4152 115.643 42.4184 115.995 43.4442 115.953C44.2383 115.976 45.0261 115.806 45.7401 115.458C46.3075 115.171 46.8306 114.804 47.2934 114.369L48.5311 115.848H49.7688L47.9804 113.669C48.3352 113.181 48.5858 112.625 48.7168 112.036L48.7415 112.017ZM42.2251 106.639C42.0615 106.348 41.9742 106.02 41.9714 105.686C41.9628 105.473 41.9981 105.261 42.0751 105.063C42.152 104.864 42.269 104.683 42.4187 104.532C42.5685 104.38 42.7478 104.261 42.9455 104.182C43.1432 104.103 43.3551 104.065 43.568 104.071C43.7824 104.066 43.9955 104.106 44.1936 104.188C44.3918 104.27 44.5707 104.393 44.719 104.548C44.8729 104.705 44.9933 104.892 45.0731 105.097C45.1528 105.303 45.1903 105.522 45.1832 105.742C45.1912 106.092 45.0726 106.432 44.849 106.701C44.5749 107.006 44.2629 107.274 43.9207 107.499L43.1967 107.988C42.8257 107.575 42.4923 107.13 42.2003 106.658L42.2251 106.639ZM45.0594 114.802C44.5306 114.998 43.9711 115.099 43.4071 115.099C43.0231 115.116 42.6395 115.057 42.2784 114.925C41.9173 114.794 41.5858 114.592 41.303 114.332C41.0348 114.073 40.8239 113.761 40.6843 113.415C40.5446 113.07 40.4792 112.699 40.4923 112.326C40.4876 111.987 40.5507 111.651 40.678 111.336C40.7939 111.046 40.9594 110.778 41.1669 110.544C41.3759 110.319 41.6036 110.112 41.8476 109.925C42.089 109.74 42.3922 109.523 42.7388 109.276C42.7883 109.245 42.8563 109.195 42.9553 109.139L46.7488 113.719C46.2522 114.191 45.6705 114.565 45.0347 114.82L45.0594 114.802ZM197.357 104.69H196.46V107.394H195.302V108.063H196.46V113.632C196.434 114.213 196.626 114.782 196.998 115.229C197.185 115.438 197.416 115.603 197.676 115.71C197.935 115.817 198.215 115.864 198.496 115.848H199.269V115.056H198.65C198.47 115.069 198.289 115.042 198.12 114.978C197.951 114.914 197.798 114.814 197.673 114.684C197.44 114.392 197.325 114.023 197.351 113.651V108.081H199.263V107.413H197.351L197.357 104.69ZM189.083 107.289C188.609 107.271 188.137 107.365 187.706 107.566C187.276 107.766 186.899 108.065 186.608 108.44C185.961 109.372 185.645 110.494 185.71 111.627C185.632 112.779 185.958 113.921 186.632 114.858C186.965 115.234 187.38 115.529 187.844 115.721C188.308 115.913 188.81 115.996 189.312 115.965C189.893 115.983 190.471 115.878 191.008 115.656C191.516 115.408 191.977 115.073 192.369 114.666L191.701 114.14C191.393 114.461 191.03 114.725 190.63 114.919C190.238 115.081 189.817 115.161 189.392 115.155C189.007 115.181 188.622 115.117 188.266 114.967C187.911 114.818 187.595 114.587 187.344 114.294C186.827 113.577 186.576 112.702 186.632 111.819H192.518V111.417C192.58 110.331 192.26 109.259 191.614 108.384C191.308 108.016 190.919 107.725 190.479 107.534C190.04 107.344 189.561 107.26 189.083 107.289ZM186.608 111.101C186.608 110.699 186.663 110.402 186.694 110.191C186.741 109.954 186.811 109.722 186.905 109.498C187.089 109.075 187.395 108.715 187.783 108.465C188.175 108.208 188.633 108.073 189.102 108.075C189.57 108.071 190.029 108.207 190.42 108.465C190.81 108.713 191.116 109.073 191.298 109.498C191.394 109.722 191.466 109.954 191.515 110.191C191.566 110.492 191.593 110.796 191.595 111.101H186.608ZM202.834 115.891H203.731V107.394H202.834V115.891ZM182.288 107.425H181.143L176.947 112.178V103.353H176.05V115.891H176.947V113.416L178.878 111.188L181.793 115.842H182.901L179.497 110.538L182.288 107.425ZM223.893 107.425V108.465C223.614 108.056 223.229 107.731 222.779 107.524C221.947 107.206 221.031 107.187 220.186 107.469C219.859 107.584 219.559 107.768 219.307 108.007C218.897 108.433 218.606 108.961 218.466 109.536C218.136 110.898 218.136 112.319 218.466 113.682C218.608 114.256 218.898 114.783 219.307 115.21C219.561 115.446 219.86 115.627 220.186 115.743C220.569 115.882 220.973 115.951 221.38 115.947C221.859 115.955 222.334 115.869 222.779 115.693C223.227 115.484 223.612 115.159 223.893 114.752V116.262C223.936 117.02 223.717 117.769 223.274 118.385C223.039 118.661 222.742 118.878 222.408 119.019C222.074 119.16 221.711 119.22 221.349 119.196C220.943 119.21 220.538 119.139 220.161 118.985C219.793 118.792 219.454 118.548 219.153 118.261L218.534 118.88C218.912 119.241 219.347 119.538 219.821 119.759C220.302 119.935 220.813 120.017 221.325 120C221.796 120.026 222.267 119.949 222.706 119.774C223.144 119.598 223.539 119.329 223.862 118.985C224.496 118.25 224.825 117.3 224.784 116.33V107.394L223.893 107.425ZM223.806 112.995C223.754 113.382 223.639 113.758 223.466 114.109C223.298 114.438 223.041 114.712 222.723 114.901C222.345 115.092 221.928 115.192 221.504 115.192C221.081 115.192 220.663 115.092 220.285 114.901C219.968 114.714 219.712 114.439 219.549 114.109C219.371 113.76 219.254 113.383 219.202 112.995C219.087 112.097 219.087 111.188 219.202 110.29C219.255 109.903 219.372 109.526 219.549 109.177C219.714 108.848 219.969 108.573 220.285 108.384C220.663 108.193 221.081 108.093 221.504 108.093C221.928 108.093 222.345 108.193 222.723 108.384C223.04 108.574 223.297 108.849 223.466 109.177C223.637 109.528 223.752 109.904 223.806 110.29C223.922 111.188 223.922 112.097 223.806 112.995ZM202.728 104.48H203.836V103.372H202.728V104.48ZM211.392 107.308C210.923 107.292 210.456 107.384 210.027 107.576C209.598 107.768 209.218 108.055 208.917 108.415V107.413H208.026V115.891H208.917V110.637C208.871 109.961 209.094 109.294 209.536 108.781C209.764 108.552 210.038 108.374 210.34 108.259C210.642 108.144 210.965 108.094 211.287 108.112C211.607 108.09 211.927 108.136 212.227 108.248C212.527 108.361 212.799 108.536 213.026 108.762C213.46 109.28 213.681 109.944 213.645 110.618V115.891H214.542V110.482C214.567 110.05 214.501 109.617 214.35 109.211C214.199 108.805 213.965 108.435 213.663 108.125C213.362 107.841 213.007 107.622 212.619 107.478C212.231 107.335 211.818 107.27 211.405 107.289L211.392 107.308ZM129.086 107.308C128.611 107.288 128.139 107.382 127.708 107.582C127.278 107.782 126.901 108.083 126.611 108.459C125.961 109.39 125.645 110.513 125.713 111.646C125.635 112.797 125.961 113.94 126.635 114.876C126.968 115.253 127.382 115.549 127.846 115.742C128.311 115.934 128.813 116.016 129.315 115.984C129.896 116.001 130.473 115.896 131.011 115.674C131.518 115.425 131.979 115.09 132.372 114.684L131.704 114.158C131.394 114.477 131.032 114.741 130.633 114.938C130.231 115.103 129.799 115.184 129.364 115.173C128.981 115.198 128.596 115.134 128.242 114.984C127.887 114.835 127.572 114.605 127.322 114.313C126.803 113.597 126.551 112.721 126.611 111.838H132.483V111.435C132.549 110.35 132.229 109.276 131.58 108.403C131.281 108.036 130.9 107.745 130.468 107.551C130.036 107.358 129.565 107.268 129.092 107.289L129.086 107.308ZM126.611 111.12C126.621 110.815 126.65 110.511 126.697 110.21C126.744 109.972 126.814 109.74 126.908 109.517C127.088 109.091 127.395 108.73 127.786 108.483C128.178 108.229 128.635 108.094 129.101 108.094C129.568 108.094 130.025 108.229 130.417 108.483C130.808 108.73 131.115 109.091 131.295 109.517C131.389 109.741 131.464 109.973 131.518 110.21C131.566 110.511 131.593 110.815 131.599 111.12H126.611ZM120.162 111.256L119.475 111.188L118.795 111.132C118.326 111.119 117.871 110.973 117.483 110.711C117.344 110.587 117.235 110.432 117.164 110.26C117.094 110.087 117.063 109.901 117.074 109.715C117.056 109.477 117.098 109.238 117.195 109.02C117.292 108.801 117.442 108.611 117.631 108.465C118.105 108.152 118.668 108.002 119.234 108.038C120.081 108.012 120.914 108.264 121.604 108.756L122.223 108.137C121.82 107.844 121.37 107.622 120.893 107.481C120.362 107.324 119.812 107.244 119.259 107.246C118.467 107.203 117.684 107.435 117.043 107.902C116.777 108.108 116.564 108.374 116.421 108.678C116.278 108.983 116.209 109.317 116.22 109.653C116.22 110.982 117.068 111.718 118.764 111.862L119.383 111.918L120.156 111.986C121.233 112.091 121.771 112.568 121.771 113.409C121.771 114.556 120.923 115.13 119.228 115.13C118.718 115.161 118.208 115.085 117.729 114.907C117.251 114.729 116.815 114.453 116.449 114.096L115.83 114.715C116.764 115.566 117.997 116.011 119.259 115.953C120.136 115.998 121.004 115.76 121.734 115.272C122.029 115.064 122.267 114.785 122.426 114.46C122.585 114.136 122.66 113.777 122.644 113.416C122.677 113.115 122.638 112.81 122.53 112.527C122.423 112.244 122.25 111.991 122.025 111.788C121.463 111.434 120.814 111.244 120.15 111.237L120.162 111.256ZM101.69 108.044C101.438 107.805 101.138 107.622 100.811 107.506C99.9663 107.224 99.0499 107.243 98.2181 107.561C97.7685 107.768 97.3835 108.093 97.1042 108.502V103.372H96.2068V115.891H97.1042V114.802C97.3853 115.209 97.7698 115.533 98.2181 115.743C98.6631 115.918 99.1383 116.004 99.6167 115.996C100.024 116.001 100.428 115.931 100.811 115.792C101.137 115.676 101.436 115.495 101.69 115.26C102.099 114.833 102.39 114.306 102.531 113.731C102.861 112.369 102.861 110.947 102.531 109.585C102.393 108.998 102.097 108.459 101.677 108.026L101.69 108.044ZM101.795 112.995C101.743 113.383 101.626 113.76 101.448 114.109C101.285 114.439 101.029 114.714 100.712 114.901C100.334 115.092 99.9165 115.192 99.4929 115.192C99.0693 115.192 98.6517 115.092 98.2738 114.901C97.9562 114.712 97.6987 114.438 97.5312 114.109C97.3555 113.759 97.2404 113.383 97.1908 112.995C97.0753 112.097 97.0753 111.188 97.1908 110.29C97.2421 109.903 97.3571 109.527 97.5312 109.177C97.7003 108.849 97.9575 108.574 98.2738 108.384C98.6517 108.193 99.0693 108.093 99.4929 108.093C99.9165 108.093 100.334 108.193 100.712 108.384C101.028 108.573 101.283 108.848 101.448 109.177C101.625 109.526 101.742 109.903 101.795 110.29C101.911 111.188 101.911 112.097 101.795 112.995ZM171.378 107.308C170.879 107.302 170.385 107.412 169.936 107.629C169.513 107.827 169.155 108.14 168.902 108.533V107.413H168.005V115.891H168.902V110.674C168.888 110.014 169.107 109.369 169.521 108.855C169.722 108.609 169.976 108.414 170.265 108.284C170.554 108.154 170.869 108.093 171.186 108.106C171.481 108.098 171.775 108.146 172.052 108.248C172.327 108.376 172.575 108.555 172.783 108.774L173.432 108.125C173.174 107.854 172.859 107.642 172.51 107.506C172.146 107.362 171.757 107.288 171.365 107.289L171.378 107.308ZM109.153 107.308C108.55 107.286 107.948 107.385 107.383 107.599C106.885 107.813 106.456 108.162 106.145 108.607L106.795 109.17C107.025 108.818 107.343 108.533 107.717 108.341C108.167 108.159 108.65 108.074 109.134 108.094C109.797 108.027 110.459 108.213 110.991 108.613C111.189 108.818 111.341 109.063 111.438 109.33C111.535 109.598 111.574 109.883 111.554 110.167V111.12H108.813C108.039 111.068 107.271 111.286 106.641 111.739C106.38 111.958 106.174 112.235 106.039 112.547C105.904 112.86 105.843 113.199 105.861 113.539C105.861 113.852 105.916 114.162 106.022 114.455C106.116 114.731 106.27 114.983 106.473 115.192C106.743 115.479 107.082 115.692 107.457 115.811C107.95 115.942 108.458 116.003 108.967 115.99C109.471 116.004 109.973 115.933 110.453 115.78C110.869 115.615 111.245 115.361 111.554 115.037V115.891H112.445V110.092C112.471 109.71 112.411 109.326 112.27 108.97C112.129 108.613 111.909 108.293 111.628 108.032C110.918 107.487 110.033 107.223 109.141 107.289L109.153 107.308ZM111.542 112.927C111.573 113.214 111.546 113.505 111.464 113.782C111.383 114.059 111.247 114.317 111.065 114.542C110.821 114.8 110.507 114.983 110.162 115.068C109.756 115.158 109.34 115.2 108.924 115.192C108.337 115.236 107.75 115.095 107.247 114.789C107.067 114.64 106.924 114.45 106.832 114.235C106.739 114.02 106.699 113.785 106.715 113.552C106.715 112.417 107.435 111.85 108.875 111.85H111.511L111.542 112.927ZM150.634 107.308C150.06 107.283 149.491 107.413 148.985 107.684C148.478 107.955 148.054 108.358 147.757 108.849C147.518 108.367 147.141 107.969 146.674 107.704C146.172 107.429 145.606 107.292 145.034 107.308C144.558 107.289 144.085 107.379 143.649 107.571C143.214 107.763 142.828 108.052 142.521 108.415V107.413H141.624V115.891H142.521V110.637C142.478 109.961 142.7 109.295 143.14 108.781C143.369 108.552 143.645 108.374 143.947 108.259C144.25 108.144 144.574 108.094 144.897 108.112C145.217 108.091 145.537 108.138 145.837 108.25C146.137 108.362 146.409 108.536 146.636 108.762C147.067 109.282 147.288 109.944 147.255 110.618V115.891H148.153V110.482C148.136 110.164 148.186 109.846 148.297 109.548C148.409 109.25 148.581 108.978 148.802 108.75C149.036 108.536 149.311 108.371 149.609 108.264C149.908 108.158 150.225 108.113 150.541 108.131C150.861 108.108 151.181 108.155 151.481 108.267C151.781 108.379 152.054 108.554 152.28 108.781C152.711 109.3 152.932 109.963 152.899 110.637V115.891H153.778V110.482C153.805 110.05 153.74 109.616 153.589 109.21C153.438 108.804 153.203 108.434 152.899 108.125C152.595 107.839 152.237 107.618 151.846 107.474C151.454 107.331 151.038 107.268 150.622 107.289L150.634 107.308ZM160.505 107.308C159.903 107.286 159.304 107.385 158.741 107.599C158.24 107.81 157.811 108.16 157.503 108.607L158.153 109.17C158.381 108.817 158.7 108.531 159.075 108.341C159.522 108.158 160.004 108.074 160.486 108.094C161.138 108.034 161.789 108.219 162.312 108.613C162.511 108.817 162.664 109.062 162.761 109.329C162.858 109.597 162.897 109.883 162.875 110.167V111.12H160.133C159.361 111.068 158.595 111.286 157.967 111.739C157.706 111.957 157.499 112.234 157.363 112.547C157.226 112.859 157.164 113.199 157.182 113.539C157.182 113.852 157.237 114.162 157.342 114.455C157.439 114.732 157.595 114.983 157.8 115.192C158.068 115.482 158.407 115.695 158.784 115.811C159.276 115.943 159.785 116.004 160.294 115.99C160.798 116.003 161.3 115.932 161.78 115.78C162.193 115.613 162.567 115.36 162.875 115.037V115.891H163.772V110.092C163.798 109.71 163.738 109.326 163.597 108.97C163.456 108.613 163.236 108.293 162.955 108.032C162.251 107.495 161.376 107.231 160.492 107.289L160.505 107.308ZM162.893 112.927C162.924 113.214 162.898 113.505 162.816 113.782C162.734 114.059 162.599 114.317 162.417 114.542C162.172 114.8 161.859 114.983 161.513 115.068C161.119 115.156 160.717 115.197 160.313 115.192C159.725 115.237 159.139 115.096 158.636 114.789C158.454 114.641 158.309 114.452 158.216 114.236C158.122 114.021 158.081 113.786 158.097 113.552C158.097 112.419 158.821 111.85 160.257 111.85H162.893V112.927Z" fill="white"/>
<path d="M157.629 65.684C159.17 64.5849 160.551 63.277 161.732 61.7976C163.795 59.3661 165.286 56.5027 166.095 53.4185C166.904 50.4198 167.127 47.2932 166.751 44.2101C166.37 41.1417 165.392 38.1775 163.873 35.4844C162.326 32.716 160.196 30.3172 157.629 28.4543C155.807 27.0765 153.793 25.9735 151.651 25.1806C149.49 24.3627 147.198 23.9434 144.887 23.9429H125.053V85.6293L128.766 85.6912V27.7426H146.094C146.283 27.7558 146.471 27.7827 146.657 27.8231C146.842 27.8663 147.03 27.8933 147.22 27.9036C147.577 27.9451 147.927 28.026 148.266 28.1449C148.607 28.2635 148.96 28.3444 149.318 28.3862C152.222 29.1966 154.887 30.6978 157.085 32.7615C159.321 34.8076 161.045 37.3516 162.116 40.1876C163.267 43.2456 163.641 46.5414 163.205 49.7797C162.791 52.7424 161.672 55.5627 159.944 58.0041C158.183 60.4477 155.883 62.453 153.223 63.8646C150.29 65.3851 147.066 66.2608 143.767 66.4328L143.817 70.3624C144.915 70.3622 146.011 70.2586 147.09 70.053C148.167 69.855 149.231 69.6631 150.277 69.4898H150.451L162.994 85.6355L167.184 85.6974L153.792 68.0541C155.119 67.3444 156.401 66.5528 157.629 65.684ZM56.9803 62.8868H37.7281V66.1295H53.0692V66.4637C52.9022 67.0826 53.125 66.3152 52.7908 67.0083C52.5174 67.5922 52.2116 68.1603 51.8749 68.7101L51.0023 70.0406C50.5258 70.7647 50.2102 71.2783 50.0431 71.5382C48.0409 74.433 45.4089 76.8365 42.3447 78.5683C39.3449 80.2872 36.0381 81.4035 32.6103 81.8543C29.1828 82.2965 25.7013 82.0418 22.3746 81.1056C18.9415 80.1508 15.7892 78.3826 13.1848 75.9506C11.544 74.4759 10.0649 72.8309 8.77242 71.0431C7.43818 69.2073 6.37331 67.1901 5.61013 65.0527C4.85778 63.0544 4.32855 60.9789 4.03207 58.8643C3.74891 56.7563 3.66396 54.6264 3.77835 52.5026C3.90905 50.5635 4.23034 48.642 4.73756 46.7659C5.2224 44.8712 5.9636 43.0515 6.94064 41.3572C8.20034 39.2188 9.63477 37.1883 11.2292 35.2864C12.8401 33.3777 14.8022 31.7958 17.0092 30.6265C19.2471 29.2844 21.6947 28.3284 24.2497 27.7983C26.8573 27.3395 29.5079 27.1735 32.1523 27.3033C32.3604 27.3142 32.5673 27.3411 32.7712 27.3837C32.9751 27.4275 33.1819 27.4564 33.39 27.4704C35.6798 27.899 37.9038 28.6251 40.0055 29.6301C42.0682 30.6215 43.9977 31.8691 45.7483 33.3432C47.4952 34.8168 49.0466 36.5075 50.3649 38.3744C51.7075 40.2891 52.7975 42.3691 53.6076 44.5628C53.7741 44.6138 53.9494 44.6292 54.1221 44.6079C54.2948 44.5865 54.4612 44.529 54.6102 44.439C54.7878 44.3379 54.9593 44.2263 55.1238 44.1049C55.3404 44.085 55.5509 44.0218 55.7427 43.9192C56.0605 43.7745 56.3547 43.5826 56.6152 43.3499V43.1766C56.3907 42.3477 56.0839 41.5434 55.6993 40.7755C55.26 39.872 54.8948 39.1603 54.604 38.6343C54.2928 38.2221 54.0155 37.7854 53.7747 37.3285C53.4574 36.747 53.0931 36.1923 52.6856 35.67C50.4496 32.3882 47.4843 29.6685 44.0218 27.7241C40.6038 25.7726 36.836 24.511 32.9321 24.011C29.043 23.5153 25.0938 23.8121 21.3226 24.8836C17.5197 25.9457 14.01 27.8635 11.0621 30.4903C5.14177 35.7872 1.36812 43.0703 0.455157 50.9617C0.0181714 54.7997 0.254818 58.6846 1.15444 62.4412C2.10283 66.3841 3.78209 70.1141 6.10519 73.4381C8.44602 76.7783 11.4632 79.5889 14.9609 81.6873C18.4519 83.8023 22.364 85.1267 26.4218 85.5674C29.26 85.9221 32.1372 85.805 34.9371 85.2209C37.6862 84.6422 40.3332 83.6556 42.7903 82.2937C45.2653 80.9278 47.5412 79.2287 49.5542 77.244C51.5848 75.2453 53.3205 72.9678 54.7092 70.48C55.3756 69.3759 55.9589 68.2237 56.4543 67.033C57.0013 65.7239 57.1831 64.291 56.9803 62.8868ZM221.085 23.5654V62.367C221.07 64.2522 220.741 66.1217 220.114 67.8994C219.507 69.7017 218.629 71.4004 217.508 72.9368C216.147 74.8334 214.473 76.4846 212.558 77.8195C210.74 79.0913 208.739 80.0784 206.623 80.7466C204.73 81.3328 202.763 81.6453 200.781 81.6749V85.7778C202.232 85.7896 203.681 85.6778 205.113 85.4436C207.318 85.0963 209.455 84.4029 211.444 83.3891C213.434 82.3849 215.283 81.1241 216.945 79.6389C218.598 78.1578 220.038 76.4541 221.222 74.5767C222.397 72.7234 223.294 70.707 223.883 68.5925C223.981 68.4357 224.041 68.2574 224.056 68.0727C224.118 67.7818 224.173 67.4538 224.235 67.1135C224.297 66.7731 224.353 66.4266 224.409 66.1048C224.441 65.8801 224.499 65.6599 224.582 65.4488C224.591 65.2014 224.62 64.9551 224.668 64.7124C224.715 64.4965 224.744 64.2771 224.755 64.0564V23.5283L221.085 23.5654ZM189.029 77.8195C187.114 76.4846 185.44 74.8334 184.078 72.9368C182.953 71.4033 182.074 69.7038 181.473 67.8994C180.846 66.1217 180.517 64.2522 180.502 62.367V23.5654L176.789 23.5283V64.0564C176.799 64.2771 176.828 64.4965 176.875 64.7124C176.924 64.9551 176.953 65.2014 176.962 65.4488C177.042 65.6609 177.1 65.8807 177.135 66.1048C177.191 66.4266 177.253 66.7607 177.308 67.1135C177.364 67.4662 177.426 67.7818 177.482 68.0727C177.502 68.2572 177.563 68.4349 177.661 68.5925C178.247 70.708 179.144 72.7248 180.322 74.5767C181.504 76.4555 182.944 78.1595 184.598 79.6389C186.26 81.1241 188.11 82.3849 190.1 83.3891C192.087 84.402 194.221 85.0953 196.424 85.4436C197.856 85.6777 199.306 85.7896 200.756 85.7778V81.6749C198.775 81.6459 196.807 81.3333 194.914 80.7466C192.81 80.0755 190.819 79.0885 189.011 77.8195H189.029Z" fill="white"/>
<path d="M78.311 54.7429C76.3948 53.4116 74.7204 51.7624 73.3603 49.8664C72.2396 48.329 71.3629 46.6278 70.7612 44.8229C70.1312 43.0477 69.8008 41.1801 69.7834 39.2966V0.0371291L66.0703 0V41.0108C66.0838 41.2312 66.1128 41.4504 66.157 41.6668C66.2083 41.9111 66.2373 42.1597 66.2436 42.4094C66.3305 42.6197 66.3908 42.8401 66.4231 43.0653C66.4788 43.3871 66.5344 43.7213 66.5963 44.0679C66.6582 44.4144 66.7139 44.7362 66.7696 45.0271C66.7883 45.213 66.8475 45.3925 66.9429 45.5531C67.5337 47.6659 68.4324 49.6802 69.6101 51.5311C70.7905 53.4111 72.2301 55.1153 73.8863 56.5933C75.547 58.079 77.3943 59.3418 79.3816 60.3496C81.3716 61.3598 83.5079 62.051 85.7124 62.398C87.1445 62.6311 88.5934 62.7449 90.0443 62.7384V58.6355C88.0622 58.6073 86.0945 58.2926 84.2024 57.701C82.0992 57.0214 80.1124 56.0238 78.311 54.7429ZM110.367 0.0371291V39.2966C110.35 41.1801 110.019 43.0477 109.389 44.8229C108.788 46.6278 107.911 48.329 106.79 49.8664C105.429 51.7612 103.755 53.4103 101.839 54.7429C100.021 56.0174 98.0172 57.0047 95.8986 57.6701C94.0066 58.2617 92.0389 58.5764 90.0567 58.6045V62.7074C91.5076 62.714 92.9565 62.6001 94.3886 62.3671C96.5933 62.021 98.7298 61.3297 100.719 60.3187C102.707 59.3108 104.554 58.048 106.215 56.5623C107.871 55.0828 109.313 53.3789 110.497 51.5002C111.673 49.6491 112.57 47.6347 113.158 45.5221C113.254 45.3615 113.313 45.182 113.331 44.9961C113.393 44.7053 113.449 44.3773 113.505 44.0369C113.56 43.6966 113.622 43.3562 113.684 43.0344C113.712 42.8089 113.77 42.5883 113.857 42.3784C113.867 42.129 113.896 41.8807 113.944 41.6358C113.988 41.4194 114.017 41.2003 114.031 40.9798V0L110.367 0.0371291Z" fill="white"/>
<path d="M89.6619 85.6538C99.2351 85.6538 106.996 84.7062 106.996 83.5373C106.996 82.3685 99.2351 81.4209 89.6619 81.4209C80.0887 81.4209 72.3281 82.3685 72.3281 83.5373C72.3281 84.7062 80.0887 85.6538 89.6619 85.6538Z" fill="white"/>
</g>
<defs>
<clipPath id="clip0_2_19158">
<rect width="224.783" height="120" fill="white"/>
</clipPath>
</defs>
</svg>
