<svg width="152" height="24" viewBox="0 0 152 24" fill="none" xmlns="http://www.w3.org/2000/svg">
<g clip-path="url(#clip0_2_19148)">
<path d="M15.9527 9.74039C19.6368 9.74039 19.5491 12.8117 19.5491 14.3034V23.3857H22.9262V13.4259C22.9262 11.1444 22.4437 9.47711 21.5666 8.51184C20.514 7.37109 18.9351 6.75684 16.9176 6.75684C15.2072 6.75684 13.7599 7.41497 12.4002 8.68737C12.3564 8.73125 12.2248 8.77513 12.1809 8.73125C12.0932 8.68737 12.0494 8.59961 12.0494 8.51184V7.10784H8.76001V23.3857H12.0494V15.5758C12.0932 12.7239 12.3125 12.1097 12.9266 11.2322C13.5844 10.2669 14.5932 9.74039 15.9527 9.74039Z" fill="white"/>
<path d="M34.3237 6.625C31.9115 6.625 29.8063 7.45862 28.1397 9.12591C26.4731 10.7932 25.5959 12.8114 25.5959 15.1807C25.5959 17.6817 26.4292 19.7877 28.0958 21.455C29.7625 23.1222 31.8238 23.9997 34.2799 23.9997C36.7796 23.9997 38.8848 23.1661 40.5515 21.4988C42.2183 19.8316 43.0952 17.7694 43.0952 15.3124C43.0952 12.8992 42.262 10.7932 40.5515 9.12591C38.8411 7.45862 36.7359 6.625 34.3237 6.625ZM38.0956 19.3928C37.1306 20.402 35.8587 20.9285 34.2799 20.9285C32.7009 20.9285 31.4291 20.4019 30.4642 19.3489C29.5432 18.3398 29.0607 16.9358 29.0607 15.2246C29.0607 13.6012 29.5432 12.285 30.5081 11.2758C31.4729 10.2228 32.7448 9.69628 34.2799 9.69628C35.8587 9.69628 37.1306 10.2228 38.0956 11.2758C39.0603 12.285 39.4991 13.6451 39.4991 15.3124C39.5428 16.9796 39.0603 18.3398 38.0956 19.3928Z" fill="white"/>
<path d="M99.1057 0H95.597V9.12613C95.597 9.17001 95.553 9.21389 95.5093 9.21389C95.4652 9.21389 95.4215 9.21389 95.3778 9.17001L95.1145 8.90676C93.5355 7.32724 91.7814 6.53749 89.8077 6.53749C87.5269 6.53749 85.6413 7.37112 84.1501 8.99452C82.6589 10.6179 81.8694 12.7239 81.8694 15.1371C81.8694 17.638 82.6589 19.744 84.1501 21.4113C85.685 23.0347 87.6147 23.8684 89.8954 23.8684C91.8251 23.8684 93.5796 23.1225 95.1145 21.6746L95.3778 21.4113C95.4215 21.3675 95.4652 21.3675 95.5093 21.3675C95.553 21.3675 95.597 21.4113 95.597 21.4552V23.3857H99.1057V0ZM94.3691 19.4369C93.4041 20.4899 92.1321 21.0164 90.5531 21.0164C89.1059 21.0164 87.8339 20.4899 86.8693 19.393C85.9483 18.2962 85.4658 16.936 85.4658 15.2687C85.4658 13.6892 85.9483 12.3291 86.913 11.2761C87.878 10.223 89.1496 9.65266 90.5971 9.65266C92.1321 9.65266 93.4041 10.1792 94.3691 11.2322C95.3338 12.3291 95.8163 13.6892 95.8163 15.3126C95.8163 16.9799 95.3338 18.34 94.3691 19.4369Z" fill="white"/>
<path d="M119.241 7.06409H115.733V9.12627C115.733 9.17015 115.689 9.21403 115.645 9.21403C115.601 9.21403 115.557 9.21403 115.513 9.17015L115.251 8.90686C113.672 7.32734 111.917 6.5376 109.987 6.5376C107.707 6.5376 105.821 7.37122 104.33 8.99462C102.839 10.618 102.049 12.6802 102.049 15.1372C102.049 17.6381 102.839 19.7442 104.33 21.4114C105.865 23.0348 107.794 23.8685 110.119 23.8685C111.961 23.8685 113.672 23.1226 115.294 21.6747L115.557 21.4553C115.601 21.4114 115.645 21.4114 115.689 21.4553C115.733 21.4553 115.733 21.4992 115.733 21.5431V23.3858H119.241V7.06409ZM114.549 19.4371C113.584 20.4901 112.312 21.0166 110.733 21.0166C109.286 21.0166 108.014 20.4901 107.049 19.3932C106.128 18.3402 105.645 16.9361 105.645 15.2689C105.645 13.6893 106.128 12.3292 107.093 11.2762C108.058 10.2231 109.33 9.65276 110.777 9.65276C112.312 9.65276 113.584 10.1793 114.549 11.2323C115.513 12.3292 115.996 13.6893 115.996 15.3127C115.996 16.98 115.513 18.3402 114.549 19.4371Z" fill="white"/>
<path d="M78.4913 7.06409H74.9826V9.12627C74.9826 9.17015 74.9389 9.21403 74.8949 9.21403C74.8512 9.21403 74.8071 9.21403 74.7634 9.17015L74.5001 8.90686C72.9215 7.32734 71.167 6.5376 69.2373 6.5376C66.9566 6.5376 65.0707 7.37122 63.5798 8.99462C62.0886 10.618 61.2991 12.6802 61.2991 15.1372C61.2991 17.6381 62.0886 19.7442 63.5798 21.4114C65.1147 23.0348 67.0444 23.8685 69.3688 23.8685C71.2111 23.8685 72.9215 23.1226 74.5442 21.6747L74.8071 21.4553C74.8512 21.4114 74.8949 21.4114 74.9389 21.4553C74.9826 21.4553 74.9826 21.4992 74.9826 21.5431V23.3858H78.4913V7.06409ZM73.7984 19.4371C72.8338 20.4901 71.5618 21.0166 69.9828 21.0166C68.5356 21.0166 67.2636 20.4901 66.2989 19.3932C65.3776 18.3402 64.8955 16.9361 64.8955 15.2689C64.8955 13.6893 65.3776 12.3292 66.3427 11.2762C67.3077 10.2231 68.5793 9.65276 70.0268 9.65276C71.5618 9.65276 72.8338 10.1793 73.7984 11.2323C74.7634 12.3292 75.2459 13.6893 75.2459 15.3127C75.2459 16.98 74.7634 18.3402 73.7984 19.4371Z" fill="white"/>
<path d="M152.007 7.06409H148.498V9.12627C148.498 9.17015 148.455 9.21403 148.411 9.21403C148.367 9.21403 148.323 9.21403 148.279 9.17015L148.016 8.90686C146.437 7.32734 144.683 6.5376 142.753 6.5376C140.472 6.5376 138.586 7.37122 137.095 8.99462C135.604 10.618 134.815 12.6802 134.815 15.1372C134.815 17.6381 135.604 19.7442 137.095 21.4114C138.63 23.0348 140.56 23.8685 142.884 23.8685C144.726 23.8685 146.437 23.1226 148.06 21.6747L148.323 21.4553C148.367 21.4114 148.411 21.4114 148.455 21.4553C148.498 21.4553 148.498 21.4992 148.498 21.5431V23.3858H152.007V7.06409ZM147.314 19.4371C146.349 20.4901 145.077 21.0166 143.498 21.0166C142.051 21.0166 140.779 20.4901 139.814 19.3932C138.893 18.2963 138.411 16.9361 138.411 15.2689C138.411 13.6893 138.893 12.3292 139.858 11.2762C140.823 10.2231 142.095 9.65276 143.542 9.65276C145.077 9.65276 146.349 10.1793 147.314 11.2323C148.279 12.3292 148.762 13.6893 148.762 15.3127C148.762 16.98 148.279 18.3402 147.314 19.4371Z" fill="white"/>
<path d="M52.1297 16.585C52.0857 16.585 52.042 16.5411 52.042 16.5411L47.4805 7.06396H43.5334L51.8228 23.3857H52.4367L60.7697 7.06396H56.8223L52.2612 16.4973C52.2171 16.585 52.1734 16.585 52.1297 16.585Z" fill="white"/>
<path d="M128.978 23.9561C130.294 23.9561 131.303 23.9122 132.224 23.4735V20.3583C131.697 20.4899 131.083 20.5777 130.513 20.5777C128.89 20.5777 127.969 19.6563 127.969 17.989V10.3547C127.969 10.3108 128.013 10.2669 128.057 10.2669H132.267V7.06398H128.057C128.013 7.06398 127.969 7.0201 127.969 6.97622V2.45703H124.46V6.97622C124.46 7.0201 124.417 7.06398 124.373 7.06398H122.268V10.2669H124.373C124.417 10.2669 124.46 10.3108 124.46 10.3547V18.2523C124.46 21.894 126.083 23.9561 128.978 23.9561Z" fill="white"/>
<path d="M2.75087 23.9565C4.20419 23.9565 5.38237 22.7779 5.38237 21.324C5.38237 19.87 4.20419 18.6914 2.75087 18.6914C1.29754 18.6914 0.119385 19.87 0.119385 21.324C0.119385 22.7779 1.29754 23.9565 2.75087 23.9565Z" fill="#06F784"/>
</g>
<defs>
<clipPath id="clip0_2_19148">
<rect width="151.881" height="24" fill="white" transform="translate(0.119385)"/>
</clipPath>
</defs>
</svg>
