<svg width="80" height="81" viewBox="0 0 80 81" fill="none" xmlns="http://www.w3.org/2000/svg">
<rect y="0.5" width="80" height="80" rx="8" fill="white" fill-opacity="0.1"/>
<path d="M32.6637 49.2533C33.0779 49.2533 33.4137 48.9175 33.4137 48.5033C33.4137 48.0891 33.0779 47.7533 32.6637 47.7533V49.2533ZM26.6612 47.7533C26.2469 47.7533 25.9112 48.0891 25.9112 48.5033C25.9112 48.9175 26.2469 49.2533 26.6612 49.2533V47.7533ZM33.4137 48.5033C33.4137 48.0891 33.0779 47.7533 32.6637 47.7533C32.2494 47.7533 31.9137 48.0891 31.9137 48.5033H33.4137ZM42.7509 48.5033C42.7509 48.0891 42.4151 47.7533 42.0009 47.7533C41.5867 47.7533 41.2509 48.0891 41.2509 48.5033H42.7509ZM31.9137 48.5033C31.9137 48.9175 32.2494 49.2533 32.6637 49.2533C33.0779 49.2533 33.4137 48.9175 33.4137 48.5033H31.9137ZM41.2509 48.5033C41.2509 48.9175 41.5867 49.2533 42.0009 49.2533C42.4151 49.2533 42.7509 48.9175 42.7509 48.5033H41.2509ZM53.3389 49.2533C53.7532 49.2533 54.0889 48.9175 54.0889 48.5033C54.0889 48.0891 53.7532 47.7533 53.3389 47.7533V49.2533ZM42.0009 47.7533C41.5867 47.7533 41.2509 48.0891 41.2509 48.5033C41.2509 48.9175 41.5867 49.2533 42.0009 49.2533V47.7533ZM37.9992 33.2467C38.4134 33.2467 38.7492 32.9109 38.7492 32.4967C38.7492 32.0824 38.4134 31.7467 37.9992 31.7467V33.2467ZM26.6612 31.7467C26.2469 31.7467 25.9112 32.0824 25.9112 32.4967C25.9112 32.9109 26.2469 33.2467 26.6612 33.2467V31.7467ZM38.7492 32.4967C38.7492 32.0824 38.4134 31.7467 37.9992 31.7467C37.585 31.7467 37.2492 32.0824 37.2492 32.4967H38.7492ZM48.0864 32.4967C48.0864 32.0824 47.7507 31.7467 47.3364 31.7467C46.9222 31.7467 46.5864 32.0824 46.5864 32.4967H48.0864ZM37.2492 32.4967C37.2492 32.9109 37.585 33.2467 37.9992 33.2467C38.4134 33.2467 38.7492 32.9109 38.7492 32.4967H37.2492ZM46.5864 32.4967C46.5864 32.9109 46.9222 33.2467 47.3364 33.2467C47.7507 33.2467 48.0864 32.9109 48.0864 32.4967H46.5864ZM53.3389 33.2467C53.7532 33.2467 54.0889 32.9109 54.0889 32.4967C54.0889 32.0824 53.7532 31.7467 53.3389 31.7467V33.2467ZM47.3364 31.7467C46.9222 31.7467 46.5864 32.0824 46.5864 32.4967C46.5864 32.9109 46.9222 33.2467 47.3364 33.2467V31.7467ZM32.6637 47.7533H26.6612V49.2533H32.6637V47.7533ZM31.9137 48.5033C31.9137 51.4959 34.3397 53.9219 37.3323 53.9219V52.4219C35.1681 52.4219 33.4137 50.6675 33.4137 48.5033H31.9137ZM37.3323 53.9219C40.3249 53.9219 42.7509 51.4959 42.7509 48.5033H41.2509C41.2509 50.6675 39.4965 52.4219 37.3323 52.4219V53.9219ZM33.4137 48.5033C33.4137 46.3391 35.1681 44.5847 37.3323 44.5847V43.0847C34.3397 43.0847 31.9137 45.5107 31.9137 48.5033H33.4137ZM37.3323 44.5847C39.4965 44.5847 41.2509 46.3391 41.2509 48.5033H42.7509C42.7509 45.5107 40.3249 43.0847 37.3323 43.0847V44.5847ZM53.3389 47.7533H42.0009V49.2533H53.3389V47.7533ZM50.6712 63.76H29.3289V65.26H50.6712V63.76ZM29.3289 63.76C22.3763 63.76 16.7401 58.1237 16.7401 51.1711H15.2401C15.2401 58.9522 21.5479 65.26 29.3289 65.26V63.76ZM16.7401 51.1711V29.8289H15.2401V51.1711H16.7401ZM16.7401 29.8289C16.7401 22.8762 22.3763 17.24 29.3289 17.24V15.74C21.5479 15.74 15.2401 22.0478 15.2401 29.8289H16.7401ZM29.3289 17.24H50.6712V15.74H29.3289V17.24ZM50.6712 17.24C57.6238 17.24 63.26 22.8762 63.26 29.8289H64.76C64.76 22.0478 58.4522 15.74 50.6712 15.74V17.24ZM63.26 29.8289V51.1711H64.76V29.8289H63.26ZM63.26 51.1711C63.26 58.1237 57.6238 63.76 50.6712 63.76V65.26C58.4522 65.26 64.76 58.9522 64.76 51.1711H63.26ZM37.9992 31.7467H26.6612V33.2467H37.9992V31.7467ZM37.2492 32.4967C37.2492 35.4893 39.6752 37.9153 42.6678 37.9153V36.4153C40.5036 36.4153 38.7492 34.6608 38.7492 32.4967H37.2492ZM42.6678 37.9153C45.6604 37.9153 48.0864 35.4893 48.0864 32.4967H46.5864C46.5864 34.6608 44.832 36.4153 42.6678 36.4153V37.9153ZM38.7492 32.4967C38.7492 30.3325 40.5036 28.578 42.6678 28.578V27.078C39.6752 27.078 37.2492 29.504 37.2492 32.4967H38.7492ZM42.6678 28.578C44.832 28.578 46.5864 30.3325 46.5864 32.4967H48.0864C48.0864 29.504 45.6604 27.078 42.6678 27.078V28.578ZM53.3389 31.7467H47.3364V33.2467H53.3389V31.7467Z" fill="white"/>
</svg>
