<svg width="620" height="96" viewBox="0 0 620 96" fill="none" xmlns="http://www.w3.org/2000/svg">
<mask id="mask0_2_20512" style="mask-type:alpha" maskUnits="userSpaceOnUse" x="0" y="0" width="620" height="96">
<rect width="620" height="96" transform="matrix(-1 0 0 1 620 0)" fill="url(#paint0_linear_2_20512)" fill-opacity="0.5"/>
</mask>
<g mask="url(#mask0_2_20512)">
<circle r="0.5" transform="matrix(-1 0 0 1 525.5 4.5)" fill="white"/>
<circle r="0.5" transform="matrix(-1 0 0 1 525.5 13.5)" fill="white"/>
<circle r="0.5" transform="matrix(-1 0 0 1 525.5 22.5)" fill="white"/>
<circle r="0.5" transform="matrix(-1 0 0 1 525.5 31.5)" fill="white"/>
<circle r="0.5" transform="matrix(-1 0 0 1 525.5 40.5)" fill="white"/>
<circle r="0.5" transform="matrix(-1 0 0 1 525.5 49.5)" fill="white"/>
<circle r="0.5" transform="matrix(-1 0 0 1 525.5 58.5)" fill="white"/>
<circle r="0.5" transform="matrix(-1 0 0 1 525.5 67.5)" fill="white"/>
<circle r="0.5" transform="matrix(-1 0 0 1 525.5 76.5)" fill="white"/>
<circle r="0.5" transform="matrix(-1 0 0 1 525.5 85.5)" fill="white"/>
<circle r="0.5" transform="matrix(-1 0 0 1 525.5 94.5)" fill="white"/>
<circle r="0.5" transform="matrix(-1 0 0 1 517.5 4.5)" fill="white"/>
<circle r="0.5" transform="matrix(-1 0 0 1 517.5 13.5)" fill="white"/>
<circle r="0.5" transform="matrix(-1 0 0 1 517.5 22.5)" fill="white"/>
<circle r="0.5" transform="matrix(-1 0 0 1 517.5 31.5)" fill="white"/>
<circle r="0.5" transform="matrix(-1 0 0 1 517.5 40.5)" fill="white"/>
<circle r="0.5" transform="matrix(-1 0 0 1 517.5 49.5)" fill="white"/>
<circle r="0.5" transform="matrix(-1 0 0 1 517.5 58.5)" fill="white"/>
<circle r="0.5" transform="matrix(-1 0 0 1 517.5 67.5)" fill="white"/>
<circle r="0.5" transform="matrix(-1 0 0 1 517.5 76.5)" fill="white"/>
<circle r="0.5" transform="matrix(-1 0 0 1 517.5 85.5)" fill="white"/>
<circle r="0.5" transform="matrix(-1 0 0 1 517.5 94.5)" fill="white"/>
<circle r="0.5" transform="matrix(-1 0 0 1 509.5 4.5)" fill="white"/>
<circle r="0.5" transform="matrix(-1 0 0 1 509.5 13.5)" fill="white"/>
<circle r="0.5" transform="matrix(-1 0 0 1 509.5 22.5)" fill="white"/>
<circle r="0.5" transform="matrix(-1 0 0 1 509.5 31.5)" fill="white"/>
<circle r="0.5" transform="matrix(-1 0 0 1 509.5 40.5)" fill="white"/>
<circle r="0.5" transform="matrix(-1 0 0 1 509.5 49.5)" fill="white"/>
<circle r="0.5" transform="matrix(-1 0 0 1 509.5 58.5)" fill="white"/>
<circle r="0.5" transform="matrix(-1 0 0 1 509.5 67.5)" fill="white"/>
<circle r="0.5" transform="matrix(-1 0 0 1 509.5 76.5)" fill="white"/>
<circle r="0.5" transform="matrix(-1 0 0 1 509.5 85.5)" fill="white"/>
<circle r="0.5" transform="matrix(-1 0 0 1 509.5 94.5)" fill="white"/>
<circle r="0.5" transform="matrix(-1 0 0 1 501.5 4.5)" fill="white"/>
<circle r="0.5" transform="matrix(-1 0 0 1 501.5 13.5)" fill="white"/>
<circle r="0.5" transform="matrix(-1 0 0 1 501.5 22.5)" fill="white"/>
<circle r="0.5" transform="matrix(-1 0 0 1 501.5 31.5)" fill="white"/>
<circle r="0.5" transform="matrix(-1 0 0 1 501.5 40.5)" fill="white"/>
<circle r="0.5" transform="matrix(-1 0 0 1 501.5 49.5)" fill="white"/>
<circle r="0.5" transform="matrix(-1 0 0 1 501.5 58.5)" fill="white"/>
<circle r="0.5" transform="matrix(-1 0 0 1 501.5 67.5)" fill="white"/>
<circle r="0.5" transform="matrix(-1 0 0 1 501.5 76.5)" fill="white"/>
<circle r="0.5" transform="matrix(-1 0 0 1 501.5 85.5)" fill="white"/>
<circle r="0.5" transform="matrix(-1 0 0 1 501.5 94.5)" fill="white"/>
<circle r="0.5" transform="matrix(-1 0 0 1 493.5 4.5)" fill="white"/>
<circle r="0.5" transform="matrix(-1 0 0 1 493.5 13.5)" fill="white"/>
<circle r="0.5" transform="matrix(-1 0 0 1 493.5 22.5)" fill="white"/>
<circle r="0.5" transform="matrix(-1 0 0 1 493.5 31.5)" fill="white"/>
<circle r="0.5" transform="matrix(-1 0 0 1 493.5 40.5)" fill="white"/>
<circle r="0.5" transform="matrix(-1 0 0 1 493.5 49.5)" fill="white"/>
<circle r="0.5" transform="matrix(-1 0 0 1 493.5 58.5)" fill="white"/>
<circle r="0.5" transform="matrix(-1 0 0 1 493.5 67.5)" fill="white"/>
<circle r="0.5" transform="matrix(-1 0 0 1 493.5 76.5)" fill="white"/>
<circle r="0.5" transform="matrix(-1 0 0 1 493.5 85.5)" fill="white"/>
<circle r="0.5" transform="matrix(-1 0 0 1 493.5 94.5)" fill="white"/>
<circle r="0.5" transform="matrix(-1 0 0 1 485.5 4.5)" fill="white"/>
<circle r="0.5" transform="matrix(-1 0 0 1 485.5 13.5)" fill="white"/>
<circle r="0.5" transform="matrix(-1 0 0 1 485.5 22.5)" fill="white"/>
<circle r="0.5" transform="matrix(-1 0 0 1 485.5 31.5)" fill="white"/>
<circle r="0.5" transform="matrix(-1 0 0 1 485.5 40.5)" fill="white"/>
<circle r="0.5" transform="matrix(-1 0 0 1 485.5 49.5)" fill="white"/>
<circle r="0.5" transform="matrix(-1 0 0 1 485.5 58.5)" fill="white"/>
<circle r="0.5" transform="matrix(-1 0 0 1 485.5 67.5)" fill="white"/>
<circle r="0.5" transform="matrix(-1 0 0 1 485.5 76.5)" fill="white"/>
<circle r="0.5" transform="matrix(-1 0 0 1 485.5 85.5)" fill="white"/>
<circle r="0.5" transform="matrix(-1 0 0 1 485.5 94.5)" fill="white"/>
<circle r="0.5" transform="matrix(-1 0 0 1 477.5 4.5)" fill="white"/>
<circle r="0.5" transform="matrix(-1 0 0 1 477.5 13.5)" fill="white"/>
<circle r="0.5" transform="matrix(-1 0 0 1 477.5 22.5)" fill="white"/>
<circle r="0.5" transform="matrix(-1 0 0 1 477.5 31.5)" fill="white"/>
<circle r="0.5" transform="matrix(-1 0 0 1 477.5 40.5)" fill="white"/>
<circle r="0.5" transform="matrix(-1 0 0 1 477.5 49.5)" fill="white"/>
<circle r="0.5" transform="matrix(-1 0 0 1 477.5 58.5)" fill="white"/>
<circle r="0.5" transform="matrix(-1 0 0 1 477.5 67.5)" fill="white"/>
<circle r="0.5" transform="matrix(-1 0 0 1 477.5 76.5)" fill="white"/>
<circle r="0.5" transform="matrix(-1 0 0 1 477.5 85.5)" fill="white"/>
<circle r="0.5" transform="matrix(-1 0 0 1 477.5 94.5)" fill="white"/>
<circle r="0.5" transform="matrix(-1 0 0 1 469.5 4.5)" fill="white"/>
<circle r="0.5" transform="matrix(-1 0 0 1 469.5 13.5)" fill="white"/>
<circle r="0.5" transform="matrix(-1 0 0 1 469.5 22.5)" fill="white"/>
<circle r="0.5" transform="matrix(-1 0 0 1 469.5 31.5)" fill="white"/>
<circle r="0.5" transform="matrix(-1 0 0 1 469.5 40.5)" fill="white"/>
<circle r="0.5" transform="matrix(-1 0 0 1 469.5 49.5)" fill="white"/>
<circle r="0.5" transform="matrix(-1 0 0 1 469.5 58.5)" fill="white"/>
<circle r="0.5" transform="matrix(-1 0 0 1 469.5 67.5)" fill="white"/>
<circle r="0.5" transform="matrix(-1 0 0 1 469.5 76.5)" fill="white"/>
<circle r="0.5" transform="matrix(-1 0 0 1 469.5 85.5)" fill="white"/>
<circle r="0.5" transform="matrix(-1 0 0 1 469.5 94.5)" fill="white"/>
<circle r="0.5" transform="matrix(-1 0 0 1 461.5 4.5)" fill="white"/>
<circle r="0.5" transform="matrix(-1 0 0 1 461.5 13.5)" fill="white"/>
<circle r="0.5" transform="matrix(-1 0 0 1 461.5 22.5)" fill="white"/>
<circle r="0.5" transform="matrix(-1 0 0 1 461.5 31.5)" fill="white"/>
<circle r="0.5" transform="matrix(-1 0 0 1 461.5 40.5)" fill="white"/>
<circle r="0.5" transform="matrix(-1 0 0 1 461.5 49.5)" fill="white"/>
<circle r="0.5" transform="matrix(-1 0 0 1 461.5 58.5)" fill="white"/>
<circle r="0.5" transform="matrix(-1 0 0 1 461.5 67.5)" fill="white"/>
<circle r="0.5" transform="matrix(-1 0 0 1 461.5 76.5)" fill="white"/>
<circle r="0.5" transform="matrix(-1 0 0 1 461.5 85.5)" fill="white"/>
<circle r="0.5" transform="matrix(-1 0 0 1 461.5 94.5)" fill="white"/>
<circle r="0.5" transform="matrix(-1 0 0 1 453.5 4.5)" fill="white"/>
<circle r="0.5" transform="matrix(-1 0 0 1 453.5 13.5)" fill="white"/>
<circle r="0.5" transform="matrix(-1 0 0 1 453.5 22.5)" fill="white"/>
<circle r="0.5" transform="matrix(-1 0 0 1 453.5 31.5)" fill="white"/>
<circle r="0.5" transform="matrix(-1 0 0 1 453.5 40.5)" fill="white"/>
<circle r="0.5" transform="matrix(-1 0 0 1 453.5 49.5)" fill="white"/>
<circle r="0.5" transform="matrix(-1 0 0 1 453.5 58.5)" fill="white"/>
<circle r="0.5" transform="matrix(-1 0 0 1 453.5 67.5)" fill="white"/>
<circle r="0.5" transform="matrix(-1 0 0 1 453.5 76.5)" fill="white"/>
<circle r="0.5" transform="matrix(-1 0 0 1 453.5 85.5)" fill="white"/>
<circle r="0.5" transform="matrix(-1 0 0 1 453.5 94.5)" fill="white"/>
<circle r="0.5" transform="matrix(-1 0 0 1 445.5 4.5)" fill="white"/>
<circle r="0.5" transform="matrix(-1 0 0 1 445.5 13.5)" fill="white"/>
<circle r="0.5" transform="matrix(-1 0 0 1 445.5 22.5)" fill="white"/>
<circle r="0.5" transform="matrix(-1 0 0 1 445.5 31.5)" fill="white"/>
<circle r="0.5" transform="matrix(-1 0 0 1 445.5 40.5)" fill="white"/>
<circle r="0.5" transform="matrix(-1 0 0 1 445.5 49.5)" fill="white"/>
<circle r="0.5" transform="matrix(-1 0 0 1 445.5 58.5)" fill="white"/>
<circle r="0.5" transform="matrix(-1 0 0 1 445.5 67.5)" fill="white"/>
<circle r="0.5" transform="matrix(-1 0 0 1 445.5 76.5)" fill="white"/>
<circle r="0.5" transform="matrix(-1 0 0 1 445.5 85.5)" fill="white"/>
<circle r="0.5" transform="matrix(-1 0 0 1 445.5 94.5)" fill="white"/>
<circle r="0.5" transform="matrix(-1 0 0 1 437.5 4.5)" fill="white"/>
<circle r="0.5" transform="matrix(-1 0 0 1 437.5 13.5)" fill="white"/>
<circle r="0.5" transform="matrix(-1 0 0 1 437.5 22.5)" fill="white"/>
<circle r="0.5" transform="matrix(-1 0 0 1 437.5 31.5)" fill="white"/>
<circle r="0.5" transform="matrix(-1 0 0 1 437.5 40.5)" fill="white"/>
<circle r="0.5" transform="matrix(-1 0 0 1 437.5 49.5)" fill="white"/>
<circle r="0.5" transform="matrix(-1 0 0 1 437.5 58.5)" fill="white"/>
<circle r="0.5" transform="matrix(-1 0 0 1 437.5 67.5)" fill="white"/>
<circle r="0.5" transform="matrix(-1 0 0 1 437.5 76.5)" fill="white"/>
<circle r="0.5" transform="matrix(-1 0 0 1 437.5 85.5)" fill="white"/>
<circle r="0.5" transform="matrix(-1 0 0 1 437.5 94.5)" fill="white"/>
<circle r="0.5" transform="matrix(-1 0 0 1 429.5 4.5)" fill="white"/>
<circle r="0.5" transform="matrix(-1 0 0 1 429.5 13.5)" fill="white"/>
<circle r="0.5" transform="matrix(-1 0 0 1 429.5 22.5)" fill="white"/>
<circle r="0.5" transform="matrix(-1 0 0 1 429.5 31.5)" fill="white"/>
<circle r="0.5" transform="matrix(-1 0 0 1 429.5 40.5)" fill="white"/>
<circle r="0.5" transform="matrix(-1 0 0 1 429.5 49.5)" fill="white"/>
<circle r="0.5" transform="matrix(-1 0 0 1 429.5 58.5)" fill="white"/>
<circle r="0.5" transform="matrix(-1 0 0 1 429.5 67.5)" fill="white"/>
<circle r="0.5" transform="matrix(-1 0 0 1 429.5 76.5)" fill="white"/>
<circle r="0.5" transform="matrix(-1 0 0 1 429.5 85.5)" fill="white"/>
<circle r="0.5" transform="matrix(-1 0 0 1 429.5 94.5)" fill="white"/>
<circle r="0.5" transform="matrix(-1 0 0 1 421.5 4.5)" fill="white"/>
<circle r="0.5" transform="matrix(-1 0 0 1 421.5 13.5)" fill="white"/>
<circle r="0.5" transform="matrix(-1 0 0 1 421.5 22.5)" fill="white"/>
<circle r="0.5" transform="matrix(-1 0 0 1 421.5 31.5)" fill="white"/>
<circle r="0.5" transform="matrix(-1 0 0 1 421.5 40.5)" fill="white"/>
<circle r="0.5" transform="matrix(-1 0 0 1 421.5 49.5)" fill="white"/>
<circle r="0.5" transform="matrix(-1 0 0 1 421.5 58.5)" fill="white"/>
<circle r="0.5" transform="matrix(-1 0 0 1 421.5 67.5)" fill="white"/>
<circle r="0.5" transform="matrix(-1 0 0 1 421.5 76.5)" fill="white"/>
<circle r="0.5" transform="matrix(-1 0 0 1 421.5 85.5)" fill="white"/>
<circle r="0.5" transform="matrix(-1 0 0 1 421.5 94.5)" fill="white"/>
<circle r="0.5" transform="matrix(-1 0 0 1 413.5 4.5)" fill="white"/>
<circle r="0.5" transform="matrix(-1 0 0 1 413.5 13.5)" fill="white"/>
<circle r="0.5" transform="matrix(-1 0 0 1 413.5 22.5)" fill="white"/>
<circle r="0.5" transform="matrix(-1 0 0 1 413.5 31.5)" fill="white"/>
<circle r="0.5" transform="matrix(-1 0 0 1 413.5 40.5)" fill="white"/>
<circle r="0.5" transform="matrix(-1 0 0 1 413.5 49.5)" fill="white"/>
<circle r="0.5" transform="matrix(-1 0 0 1 413.5 58.5)" fill="white"/>
<circle r="0.5" transform="matrix(-1 0 0 1 413.5 67.5)" fill="white"/>
<circle r="0.5" transform="matrix(-1 0 0 1 413.5 76.5)" fill="white"/>
<circle r="0.5" transform="matrix(-1 0 0 1 413.5 85.5)" fill="white"/>
<circle r="0.5" transform="matrix(-1 0 0 1 413.5 94.5)" fill="white"/>
<circle r="0.5" transform="matrix(-1 0 0 1 405.5 4.5)" fill="white"/>
<circle r="0.5" transform="matrix(-1 0 0 1 405.5 13.5)" fill="white"/>
<circle r="0.5" transform="matrix(-1 0 0 1 405.5 22.5)" fill="white"/>
<circle r="0.5" transform="matrix(-1 0 0 1 405.5 31.5)" fill="white"/>
<circle r="0.5" transform="matrix(-1 0 0 1 405.5 40.5)" fill="white"/>
<circle r="0.5" transform="matrix(-1 0 0 1 405.5 49.5)" fill="white"/>
<circle r="0.5" transform="matrix(-1 0 0 1 405.5 58.5)" fill="white"/>
<circle r="0.5" transform="matrix(-1 0 0 1 405.5 67.5)" fill="white"/>
<circle r="0.5" transform="matrix(-1 0 0 1 405.5 76.5)" fill="white"/>
<circle r="0.5" transform="matrix(-1 0 0 1 405.5 85.5)" fill="white"/>
<circle r="0.5" transform="matrix(-1 0 0 1 405.5 94.5)" fill="white"/>
<circle r="0.5" transform="matrix(-1 0 0 1 397.5 4.5)" fill="white"/>
<circle r="0.5" transform="matrix(-1 0 0 1 397.5 13.5)" fill="white"/>
<circle r="0.5" transform="matrix(-1 0 0 1 397.5 22.5)" fill="white"/>
<circle r="0.5" transform="matrix(-1 0 0 1 397.5 31.5)" fill="white"/>
<circle r="0.5" transform="matrix(-1 0 0 1 397.5 40.5)" fill="white"/>
<circle r="0.5" transform="matrix(-1 0 0 1 397.5 49.5)" fill="white"/>
<circle r="0.5" transform="matrix(-1 0 0 1 397.5 58.5)" fill="white"/>
<circle r="0.5" transform="matrix(-1 0 0 1 397.5 67.5)" fill="white"/>
<circle r="0.5" transform="matrix(-1 0 0 1 397.5 76.5)" fill="white"/>
<circle r="0.5" transform="matrix(-1 0 0 1 397.5 85.5)" fill="white"/>
<circle r="0.5" transform="matrix(-1 0 0 1 397.5 94.5)" fill="white"/>
<circle r="0.5" transform="matrix(-1 0 0 1 389.5 4.5)" fill="white"/>
<circle r="0.5" transform="matrix(-1 0 0 1 389.5 13.5)" fill="white"/>
<circle r="0.5" transform="matrix(-1 0 0 1 389.5 22.5)" fill="white"/>
<circle r="0.5" transform="matrix(-1 0 0 1 389.5 31.5)" fill="white"/>
<circle r="0.5" transform="matrix(-1 0 0 1 389.5 40.5)" fill="white"/>
<circle r="0.5" transform="matrix(-1 0 0 1 389.5 49.5)" fill="white"/>
<circle r="0.5" transform="matrix(-1 0 0 1 389.5 58.5)" fill="white"/>
<circle r="0.5" transform="matrix(-1 0 0 1 389.5 67.5)" fill="white"/>
<circle r="0.5" transform="matrix(-1 0 0 1 389.5 76.5)" fill="white"/>
<circle r="0.5" transform="matrix(-1 0 0 1 389.5 85.5)" fill="white"/>
<circle r="0.5" transform="matrix(-1 0 0 1 389.5 94.5)" fill="white"/>
<circle r="0.5" transform="matrix(-1 0 0 1 381.5 4.5)" fill="white"/>
<circle r="0.5" transform="matrix(-1 0 0 1 381.5 13.5)" fill="white"/>
<circle r="0.5" transform="matrix(-1 0 0 1 381.5 22.5)" fill="white"/>
<circle r="0.5" transform="matrix(-1 0 0 1 381.5 31.5)" fill="white"/>
<circle r="0.5" transform="matrix(-1 0 0 1 381.5 40.5)" fill="white"/>
<circle r="0.5" transform="matrix(-1 0 0 1 381.5 49.5)" fill="white"/>
<circle r="0.5" transform="matrix(-1 0 0 1 381.5 58.5)" fill="white"/>
<circle r="0.5" transform="matrix(-1 0 0 1 381.5 67.5)" fill="white"/>
<circle r="0.5" transform="matrix(-1 0 0 1 381.5 76.5)" fill="white"/>
<circle r="0.5" transform="matrix(-1 0 0 1 381.5 85.5)" fill="white"/>
<circle r="0.5" transform="matrix(-1 0 0 1 381.5 94.5)" fill="white"/>
<circle r="0.5" transform="matrix(-1 0 0 1 373.5 4.5)" fill="white"/>
<circle r="0.5" transform="matrix(-1 0 0 1 373.5 13.5)" fill="white"/>
<circle r="0.5" transform="matrix(-1 0 0 1 373.5 22.5)" fill="white"/>
<circle r="0.5" transform="matrix(-1 0 0 1 373.5 31.5)" fill="white"/>
<circle r="0.5" transform="matrix(-1 0 0 1 373.5 40.5)" fill="white"/>
<circle r="0.5" transform="matrix(-1 0 0 1 373.5 49.5)" fill="white"/>
<circle r="0.5" transform="matrix(-1 0 0 1 373.5 58.5)" fill="white"/>
<circle r="0.5" transform="matrix(-1 0 0 1 373.5 67.5)" fill="white"/>
<circle r="0.5" transform="matrix(-1 0 0 1 373.5 76.5)" fill="white"/>
<circle r="0.5" transform="matrix(-1 0 0 1 373.5 85.5)" fill="white"/>
<circle r="0.5" transform="matrix(-1 0 0 1 373.5 94.5)" fill="white"/>
<circle r="0.5" transform="matrix(-1 0 0 1 365.5 4.5)" fill="white"/>
<circle r="0.5" transform="matrix(-1 0 0 1 365.5 13.5)" fill="white"/>
<circle r="0.5" transform="matrix(-1 0 0 1 365.5 22.5)" fill="white"/>
<circle r="0.5" transform="matrix(-1 0 0 1 365.5 31.5)" fill="white"/>
<circle r="0.5" transform="matrix(-1 0 0 1 365.5 40.5)" fill="white"/>
<circle r="0.5" transform="matrix(-1 0 0 1 365.5 49.5)" fill="white"/>
<circle r="0.5" transform="matrix(-1 0 0 1 365.5 58.5)" fill="white"/>
<circle r="0.5" transform="matrix(-1 0 0 1 365.5 67.5)" fill="white"/>
<circle r="0.5" transform="matrix(-1 0 0 1 365.5 76.5)" fill="white"/>
<circle r="0.5" transform="matrix(-1 0 0 1 365.5 85.5)" fill="white"/>
<circle r="0.5" transform="matrix(-1 0 0 1 365.5 94.5)" fill="white"/>
<circle r="0.5" transform="matrix(-1 0 0 1 357.5 4.5)" fill="white"/>
<circle r="0.5" transform="matrix(-1 0 0 1 357.5 13.5)" fill="white"/>
<circle r="0.5" transform="matrix(-1 0 0 1 357.5 22.5)" fill="white"/>
<circle r="0.5" transform="matrix(-1 0 0 1 357.5 31.5)" fill="white"/>
<circle r="0.5" transform="matrix(-1 0 0 1 357.5 40.5)" fill="white"/>
<circle r="0.5" transform="matrix(-1 0 0 1 357.5 49.5)" fill="white"/>
<circle r="0.5" transform="matrix(-1 0 0 1 357.5 58.5)" fill="white"/>
<circle r="0.5" transform="matrix(-1 0 0 1 357.5 67.5)" fill="white"/>
<circle r="0.5" transform="matrix(-1 0 0 1 357.5 76.5)" fill="white"/>
<circle r="0.5" transform="matrix(-1 0 0 1 357.5 85.5)" fill="white"/>
<circle r="0.5" transform="matrix(-1 0 0 1 357.5 94.5)" fill="white"/>
<circle r="0.5" transform="matrix(-1 0 0 1 349.5 4.5)" fill="white"/>
<circle r="0.5" transform="matrix(-1 0 0 1 349.5 13.5)" fill="white"/>
<circle r="0.5" transform="matrix(-1 0 0 1 349.5 22.5)" fill="white"/>
<circle r="0.5" transform="matrix(-1 0 0 1 349.5 31.5)" fill="white"/>
<circle r="0.5" transform="matrix(-1 0 0 1 349.5 40.5)" fill="white"/>
<circle r="0.5" transform="matrix(-1 0 0 1 349.5 49.5)" fill="white"/>
<circle r="0.5" transform="matrix(-1 0 0 1 349.5 58.5)" fill="white"/>
<circle r="0.5" transform="matrix(-1 0 0 1 349.5 67.5)" fill="white"/>
<circle r="0.5" transform="matrix(-1 0 0 1 349.5 76.5)" fill="white"/>
<circle r="0.5" transform="matrix(-1 0 0 1 349.5 85.5)" fill="white"/>
<circle r="0.5" transform="matrix(-1 0 0 1 349.5 94.5)" fill="white"/>
<circle r="0.5" transform="matrix(-1 0 0 1 341.5 4.5)" fill="white"/>
<circle r="0.5" transform="matrix(-1 0 0 1 341.5 13.5)" fill="white"/>
<circle r="0.5" transform="matrix(-1 0 0 1 341.5 22.5)" fill="white"/>
<circle r="0.5" transform="matrix(-1 0 0 1 341.5 31.5)" fill="white"/>
<circle r="0.5" transform="matrix(-1 0 0 1 341.5 40.5)" fill="white"/>
<circle r="0.5" transform="matrix(-1 0 0 1 341.5 49.5)" fill="white"/>
<circle r="0.5" transform="matrix(-1 0 0 1 341.5 58.5)" fill="white"/>
<circle r="0.5" transform="matrix(-1 0 0 1 341.5 67.5)" fill="white"/>
<circle r="0.5" transform="matrix(-1 0 0 1 341.5 76.5)" fill="white"/>
<circle r="0.5" transform="matrix(-1 0 0 1 341.5 85.5)" fill="white"/>
<circle r="0.5" transform="matrix(-1 0 0 1 341.5 94.5)" fill="white"/>
<circle r="0.5" transform="matrix(-1 0 0 1 333.5 4.5)" fill="white"/>
<circle r="0.5" transform="matrix(-1 0 0 1 333.5 13.5)" fill="white"/>
<circle r="0.5" transform="matrix(-1 0 0 1 333.5 22.5)" fill="white"/>
<circle r="0.5" transform="matrix(-1 0 0 1 333.5 31.5)" fill="white"/>
<circle r="0.5" transform="matrix(-1 0 0 1 333.5 40.5)" fill="white"/>
<circle r="0.5" transform="matrix(-1 0 0 1 333.5 49.5)" fill="white"/>
<circle r="0.5" transform="matrix(-1 0 0 1 333.5 58.5)" fill="white"/>
<circle r="0.5" transform="matrix(-1 0 0 1 333.5 67.5)" fill="white"/>
<circle r="0.5" transform="matrix(-1 0 0 1 333.5 76.5)" fill="white"/>
<circle r="0.5" transform="matrix(-1 0 0 1 333.5 85.5)" fill="white"/>
<circle r="0.5" transform="matrix(-1 0 0 1 333.5 94.5)" fill="white"/>
<circle r="0.5" transform="matrix(-1 0 0 1 325.5 4.5)" fill="white"/>
<circle r="0.5" transform="matrix(-1 0 0 1 325.5 13.5)" fill="white"/>
<circle r="0.5" transform="matrix(-1 0 0 1 325.5 22.5)" fill="white"/>
<circle r="0.5" transform="matrix(-1 0 0 1 325.5 31.5)" fill="white"/>
<circle r="0.5" transform="matrix(-1 0 0 1 325.5 40.5)" fill="white"/>
<circle r="0.5" transform="matrix(-1 0 0 1 325.5 49.5)" fill="white"/>
<circle r="0.5" transform="matrix(-1 0 0 1 325.5 58.5)" fill="white"/>
<circle r="0.5" transform="matrix(-1 0 0 1 325.5 67.5)" fill="white"/>
<circle r="0.5" transform="matrix(-1 0 0 1 325.5 76.5)" fill="white"/>
<circle r="0.5" transform="matrix(-1 0 0 1 325.5 85.5)" fill="white"/>
<circle r="0.5" transform="matrix(-1 0 0 1 325.5 94.5)" fill="white"/>
<circle r="0.5" transform="matrix(-1 0 0 1 317.5 4.5)" fill="white"/>
<circle r="0.5" transform="matrix(-1 0 0 1 317.5 13.5)" fill="white"/>
<circle r="0.5" transform="matrix(-1 0 0 1 317.5 22.5)" fill="white"/>
<circle r="0.5" transform="matrix(-1 0 0 1 317.5 31.5)" fill="white"/>
<circle r="0.5" transform="matrix(-1 0 0 1 317.5 40.5)" fill="white"/>
<circle r="0.5" transform="matrix(-1 0 0 1 317.5 49.5)" fill="white"/>
<circle r="0.5" transform="matrix(-1 0 0 1 317.5 58.5)" fill="white"/>
<circle r="0.5" transform="matrix(-1 0 0 1 317.5 67.5)" fill="white"/>
<circle r="0.5" transform="matrix(-1 0 0 1 317.5 76.5)" fill="white"/>
<circle r="0.5" transform="matrix(-1 0 0 1 317.5 85.5)" fill="white"/>
<circle r="0.5" transform="matrix(-1 0 0 1 317.5 94.5)" fill="white"/>
<circle r="0.5" transform="matrix(-1 0 0 1 309.5 4.5)" fill="white"/>
<circle r="0.5" transform="matrix(-1 0 0 1 309.5 13.5)" fill="white"/>
<circle r="0.5" transform="matrix(-1 0 0 1 309.5 22.5)" fill="white"/>
<circle r="0.5" transform="matrix(-1 0 0 1 309.5 31.5)" fill="white"/>
<circle r="0.5" transform="matrix(-1 0 0 1 309.5 40.5)" fill="white"/>
<circle r="0.5" transform="matrix(-1 0 0 1 309.5 49.5)" fill="white"/>
<circle r="0.5" transform="matrix(-1 0 0 1 309.5 58.5)" fill="white"/>
<circle r="0.5" transform="matrix(-1 0 0 1 309.5 67.5)" fill="white"/>
<circle r="0.5" transform="matrix(-1 0 0 1 309.5 76.5)" fill="white"/>
<circle r="0.5" transform="matrix(-1 0 0 1 309.5 85.5)" fill="white"/>
<circle r="0.5" transform="matrix(-1 0 0 1 309.5 94.5)" fill="white"/>
<circle r="0.5" transform="matrix(-1 0 0 1 301.5 4.5)" fill="white"/>
<circle r="0.5" transform="matrix(-1 0 0 1 301.5 13.5)" fill="white"/>
<circle r="0.5" transform="matrix(-1 0 0 1 301.5 22.5)" fill="white"/>
<circle r="0.5" transform="matrix(-1 0 0 1 301.5 31.5)" fill="white"/>
<circle r="0.5" transform="matrix(-1 0 0 1 301.5 40.5)" fill="white"/>
<circle r="0.5" transform="matrix(-1 0 0 1 301.5 49.5)" fill="white"/>
<circle r="0.5" transform="matrix(-1 0 0 1 301.5 58.5)" fill="white"/>
<circle r="0.5" transform="matrix(-1 0 0 1 301.5 67.5)" fill="white"/>
<circle r="0.5" transform="matrix(-1 0 0 1 301.5 76.5)" fill="white"/>
<circle r="0.5" transform="matrix(-1 0 0 1 301.5 85.5)" fill="white"/>
<circle r="0.5" transform="matrix(-1 0 0 1 301.5 94.5)" fill="white"/>
<circle r="0.5" transform="matrix(-1 0 0 1 293.5 4.5)" fill="white"/>
<circle r="0.5" transform="matrix(-1 0 0 1 293.5 13.5)" fill="white"/>
<circle r="0.5" transform="matrix(-1 0 0 1 293.5 22.5)" fill="white"/>
<circle r="0.5" transform="matrix(-1 0 0 1 293.5 31.5)" fill="white"/>
<circle r="0.5" transform="matrix(-1 0 0 1 293.5 40.5)" fill="white"/>
<circle r="0.5" transform="matrix(-1 0 0 1 293.5 49.5)" fill="white"/>
<circle r="0.5" transform="matrix(-1 0 0 1 293.5 58.5)" fill="white"/>
<circle r="0.5" transform="matrix(-1 0 0 1 293.5 67.5)" fill="white"/>
<circle r="0.5" transform="matrix(-1 0 0 1 293.5 76.5)" fill="white"/>
<circle r="0.5" transform="matrix(-1 0 0 1 293.5 85.5)" fill="white"/>
<circle r="0.5" transform="matrix(-1 0 0 1 293.5 94.5)" fill="white"/>
<circle r="0.5" transform="matrix(-1 0 0 1 285.5 4.5)" fill="white"/>
<circle r="0.5" transform="matrix(-1 0 0 1 285.5 13.5)" fill="white"/>
<circle r="0.5" transform="matrix(-1 0 0 1 285.5 22.5)" fill="white"/>
<circle r="0.5" transform="matrix(-1 0 0 1 285.5 31.5)" fill="white"/>
<circle r="0.5" transform="matrix(-1 0 0 1 285.5 40.5)" fill="white"/>
<circle r="0.5" transform="matrix(-1 0 0 1 285.5 49.5)" fill="white"/>
<circle r="0.5" transform="matrix(-1 0 0 1 285.5 58.5)" fill="white"/>
<circle r="0.5" transform="matrix(-1 0 0 1 285.5 67.5)" fill="white"/>
<circle r="0.5" transform="matrix(-1 0 0 1 285.5 76.5)" fill="white"/>
<circle r="0.5" transform="matrix(-1 0 0 1 285.5 85.5)" fill="white"/>
<circle r="0.5" transform="matrix(-1 0 0 1 285.5 94.5)" fill="white"/>
<circle r="0.5" transform="matrix(-1 0 0 1 277.5 4.5)" fill="white"/>
<circle r="0.5" transform="matrix(-1 0 0 1 277.5 13.5)" fill="white"/>
<circle r="0.5" transform="matrix(-1 0 0 1 277.5 22.5)" fill="white"/>
<circle r="0.5" transform="matrix(-1 0 0 1 277.5 31.5)" fill="white"/>
<circle r="0.5" transform="matrix(-1 0 0 1 277.5 40.5)" fill="white"/>
<circle r="0.5" transform="matrix(-1 0 0 1 277.5 49.5)" fill="white"/>
<circle r="0.5" transform="matrix(-1 0 0 1 277.5 58.5)" fill="white"/>
<circle r="0.5" transform="matrix(-1 0 0 1 277.5 67.5)" fill="white"/>
<circle r="0.5" transform="matrix(-1 0 0 1 277.5 76.5)" fill="white"/>
<circle r="0.5" transform="matrix(-1 0 0 1 277.5 85.5)" fill="white"/>
<circle r="0.5" transform="matrix(-1 0 0 1 277.5 94.5)" fill="white"/>
<circle r="0.5" transform="matrix(-1 0 0 1 269.5 4.5)" fill="white"/>
<circle r="0.5" transform="matrix(-1 0 0 1 269.5 13.5)" fill="white"/>
<circle r="0.5" transform="matrix(-1 0 0 1 269.5 22.5)" fill="white"/>
<circle r="0.5" transform="matrix(-1 0 0 1 269.5 31.5)" fill="white"/>
<circle r="0.5" transform="matrix(-1 0 0 1 269.5 40.5)" fill="white"/>
<circle r="0.5" transform="matrix(-1 0 0 1 269.5 49.5)" fill="white"/>
<circle r="0.5" transform="matrix(-1 0 0 1 269.5 58.5)" fill="white"/>
<circle r="0.5" transform="matrix(-1 0 0 1 269.5 67.5)" fill="white"/>
<circle r="0.5" transform="matrix(-1 0 0 1 269.5 76.5)" fill="white"/>
<circle r="0.5" transform="matrix(-1 0 0 1 269.5 85.5)" fill="white"/>
<circle r="0.5" transform="matrix(-1 0 0 1 269.5 94.5)" fill="white"/>
<circle r="0.5" transform="matrix(-1 0 0 1 261.5 4.5)" fill="white"/>
<circle r="0.5" transform="matrix(-1 0 0 1 261.5 13.5)" fill="white"/>
<circle r="0.5" transform="matrix(-1 0 0 1 261.5 22.5)" fill="white"/>
<circle r="0.5" transform="matrix(-1 0 0 1 261.5 31.5)" fill="white"/>
<circle r="0.5" transform="matrix(-1 0 0 1 261.5 40.5)" fill="white"/>
<circle r="0.5" transform="matrix(-1 0 0 1 261.5 49.5)" fill="white"/>
<circle r="0.5" transform="matrix(-1 0 0 1 261.5 58.5)" fill="white"/>
<circle r="0.5" transform="matrix(-1 0 0 1 261.5 67.5)" fill="white"/>
<circle r="0.5" transform="matrix(-1 0 0 1 261.5 76.5)" fill="white"/>
<circle r="0.5" transform="matrix(-1 0 0 1 261.5 85.5)" fill="white"/>
<circle r="0.5" transform="matrix(-1 0 0 1 261.5 94.5)" fill="white"/>
<circle r="0.5" transform="matrix(-1 0 0 1 253.5 4.5)" fill="white"/>
<circle r="0.5" transform="matrix(-1 0 0 1 253.5 13.5)" fill="white"/>
<circle r="0.5" transform="matrix(-1 0 0 1 253.5 22.5)" fill="white"/>
<circle r="0.5" transform="matrix(-1 0 0 1 253.5 31.5)" fill="white"/>
<circle r="0.5" transform="matrix(-1 0 0 1 253.5 40.5)" fill="white"/>
<circle r="0.5" transform="matrix(-1 0 0 1 253.5 49.5)" fill="white"/>
<circle r="0.5" transform="matrix(-1 0 0 1 253.5 58.5)" fill="white"/>
<circle r="0.5" transform="matrix(-1 0 0 1 253.5 67.5)" fill="white"/>
<circle r="0.5" transform="matrix(-1 0 0 1 253.5 76.5)" fill="white"/>
<circle r="0.5" transform="matrix(-1 0 0 1 253.5 85.5)" fill="white"/>
<circle r="0.5" transform="matrix(-1 0 0 1 253.5 94.5)" fill="white"/>
<circle r="0.5" transform="matrix(-1 0 0 1 245.5 4.5)" fill="white"/>
<circle r="0.5" transform="matrix(-1 0 0 1 245.5 13.5)" fill="white"/>
<circle r="0.5" transform="matrix(-1 0 0 1 245.5 22.5)" fill="white"/>
<circle r="0.5" transform="matrix(-1 0 0 1 245.5 31.5)" fill="white"/>
<circle r="0.5" transform="matrix(-1 0 0 1 245.5 40.5)" fill="white"/>
<circle r="0.5" transform="matrix(-1 0 0 1 245.5 49.5)" fill="white"/>
<circle r="0.5" transform="matrix(-1 0 0 1 245.5 58.5)" fill="white"/>
<circle r="0.5" transform="matrix(-1 0 0 1 245.5 67.5)" fill="white"/>
<circle r="0.5" transform="matrix(-1 0 0 1 245.5 76.5)" fill="white"/>
<circle r="0.5" transform="matrix(-1 0 0 1 245.5 85.5)" fill="white"/>
<circle r="0.5" transform="matrix(-1 0 0 1 245.5 94.5)" fill="white"/>
<circle r="0.5" transform="matrix(-1 0 0 1 237.5 4.5)" fill="white"/>
<circle r="0.5" transform="matrix(-1 0 0 1 237.5 13.5)" fill="white"/>
<circle r="0.5" transform="matrix(-1 0 0 1 237.5 22.5)" fill="white"/>
<circle r="0.5" transform="matrix(-1 0 0 1 237.5 31.5)" fill="white"/>
<circle r="0.5" transform="matrix(-1 0 0 1 237.5 40.5)" fill="white"/>
<circle r="0.5" transform="matrix(-1 0 0 1 237.5 49.5)" fill="white"/>
<circle r="0.5" transform="matrix(-1 0 0 1 237.5 58.5)" fill="white"/>
<circle r="0.5" transform="matrix(-1 0 0 1 237.5 67.5)" fill="white"/>
<circle r="0.5" transform="matrix(-1 0 0 1 237.5 76.5)" fill="white"/>
<circle r="0.5" transform="matrix(-1 0 0 1 237.5 85.5)" fill="white"/>
<circle r="0.5" transform="matrix(-1 0 0 1 237.5 94.5)" fill="white"/>
<circle r="0.5" transform="matrix(-1 0 0 1 229.5 4.5)" fill="white"/>
<circle r="0.5" transform="matrix(-1 0 0 1 229.5 13.5)" fill="white"/>
<circle r="0.5" transform="matrix(-1 0 0 1 229.5 22.5)" fill="white"/>
<circle r="0.5" transform="matrix(-1 0 0 1 229.5 31.5)" fill="white"/>
<circle r="0.5" transform="matrix(-1 0 0 1 229.5 40.5)" fill="white"/>
<circle r="0.5" transform="matrix(-1 0 0 1 229.5 49.5)" fill="white"/>
<circle r="0.5" transform="matrix(-1 0 0 1 229.5 58.5)" fill="white"/>
<circle r="0.5" transform="matrix(-1 0 0 1 229.5 67.5)" fill="white"/>
<circle r="0.5" transform="matrix(-1 0 0 1 229.5 76.5)" fill="white"/>
<circle r="0.5" transform="matrix(-1 0 0 1 229.5 85.5)" fill="white"/>
<circle r="0.5" transform="matrix(-1 0 0 1 229.5 94.5)" fill="white"/>
<circle r="0.5" transform="matrix(-1 0 0 1 221.5 4.5)" fill="white"/>
<circle r="0.5" transform="matrix(-1 0 0 1 221.5 13.5)" fill="white"/>
<circle r="0.5" transform="matrix(-1 0 0 1 221.5 22.5)" fill="white"/>
<circle r="0.5" transform="matrix(-1 0 0 1 221.5 31.5)" fill="white"/>
<circle r="0.5" transform="matrix(-1 0 0 1 221.5 40.5)" fill="white"/>
<circle r="0.5" transform="matrix(-1 0 0 1 221.5 49.5)" fill="white"/>
<circle r="0.5" transform="matrix(-1 0 0 1 221.5 58.5)" fill="white"/>
<circle r="0.5" transform="matrix(-1 0 0 1 221.5 67.5)" fill="white"/>
<circle r="0.5" transform="matrix(-1 0 0 1 221.5 76.5)" fill="white"/>
<circle r="0.5" transform="matrix(-1 0 0 1 221.5 85.5)" fill="white"/>
<circle r="0.5" transform="matrix(-1 0 0 1 221.5 94.5)" fill="white"/>
<circle r="0.5" transform="matrix(-1 0 0 1 213.5 4.5)" fill="white"/>
<circle r="0.5" transform="matrix(-1 0 0 1 213.5 13.5)" fill="white"/>
<circle r="0.5" transform="matrix(-1 0 0 1 213.5 22.5)" fill="white"/>
<circle r="0.5" transform="matrix(-1 0 0 1 213.5 31.5)" fill="white"/>
<circle r="0.5" transform="matrix(-1 0 0 1 213.5 40.5)" fill="white"/>
<circle r="0.5" transform="matrix(-1 0 0 1 213.5 49.5)" fill="white"/>
<circle r="0.5" transform="matrix(-1 0 0 1 213.5 58.5)" fill="white"/>
<circle r="0.5" transform="matrix(-1 0 0 1 213.5 67.5)" fill="white"/>
<circle r="0.5" transform="matrix(-1 0 0 1 213.5 76.5)" fill="white"/>
<circle r="0.5" transform="matrix(-1 0 0 1 213.5 85.5)" fill="white"/>
<circle r="0.5" transform="matrix(-1 0 0 1 213.5 94.5)" fill="white"/>
<circle r="0.5" transform="matrix(-1 0 0 1 205.5 4.5)" fill="white"/>
<circle r="0.5" transform="matrix(-1 0 0 1 205.5 13.5)" fill="white"/>
<circle r="0.5" transform="matrix(-1 0 0 1 205.5 22.5)" fill="white"/>
<circle r="0.5" transform="matrix(-1 0 0 1 205.5 31.5)" fill="white"/>
<circle r="0.5" transform="matrix(-1 0 0 1 205.5 40.5)" fill="white"/>
<circle r="0.5" transform="matrix(-1 0 0 1 205.5 49.5)" fill="white"/>
<circle r="0.5" transform="matrix(-1 0 0 1 205.5 58.5)" fill="white"/>
<circle r="0.5" transform="matrix(-1 0 0 1 205.5 67.5)" fill="white"/>
<circle r="0.5" transform="matrix(-1 0 0 1 205.5 76.5)" fill="white"/>
<circle r="0.5" transform="matrix(-1 0 0 1 205.5 85.5)" fill="white"/>
<circle r="0.5" transform="matrix(-1 0 0 1 205.5 94.5)" fill="white"/>
<circle r="0.5" transform="matrix(-1 0 0 1 197.5 4.5)" fill="white"/>
<circle r="0.5" transform="matrix(-1 0 0 1 197.5 13.5)" fill="white"/>
<circle r="0.5" transform="matrix(-1 0 0 1 197.5 22.5)" fill="white"/>
<circle r="0.5" transform="matrix(-1 0 0 1 197.5 31.5)" fill="white"/>
<circle r="0.5" transform="matrix(-1 0 0 1 197.5 40.5)" fill="white"/>
<circle r="0.5" transform="matrix(-1 0 0 1 197.5 49.5)" fill="white"/>
<circle r="0.5" transform="matrix(-1 0 0 1 197.5 58.5)" fill="white"/>
<circle r="0.5" transform="matrix(-1 0 0 1 197.5 67.5)" fill="white"/>
<circle r="0.5" transform="matrix(-1 0 0 1 197.5 76.5)" fill="white"/>
<circle r="0.5" transform="matrix(-1 0 0 1 197.5 85.5)" fill="white"/>
<circle r="0.5" transform="matrix(-1 0 0 1 197.5 94.5)" fill="white"/>
<circle r="0.5" transform="matrix(-1 0 0 1 189.5 4.5)" fill="white"/>
<circle r="0.5" transform="matrix(-1 0 0 1 189.5 13.5)" fill="white"/>
<circle r="0.5" transform="matrix(-1 0 0 1 189.5 22.5)" fill="white"/>
<circle r="0.5" transform="matrix(-1 0 0 1 189.5 31.5)" fill="white"/>
<circle r="0.5" transform="matrix(-1 0 0 1 189.5 40.5)" fill="white"/>
<circle r="0.5" transform="matrix(-1 0 0 1 189.5 49.5)" fill="white"/>
<circle r="0.5" transform="matrix(-1 0 0 1 189.5 58.5)" fill="white"/>
<circle r="0.5" transform="matrix(-1 0 0 1 189.5 67.5)" fill="white"/>
<circle r="0.5" transform="matrix(-1 0 0 1 189.5 76.5)" fill="white"/>
<circle r="0.5" transform="matrix(-1 0 0 1 189.5 85.5)" fill="white"/>
<circle r="0.5" transform="matrix(-1 0 0 1 189.5 94.5)" fill="white"/>
<circle r="0.5" transform="matrix(-1 0 0 1 181.5 4.5)" fill="white"/>
<circle r="0.5" transform="matrix(-1 0 0 1 181.5 13.5)" fill="white"/>
<circle r="0.5" transform="matrix(-1 0 0 1 181.5 22.5)" fill="white"/>
<circle r="0.5" transform="matrix(-1 0 0 1 181.5 31.5)" fill="white"/>
<circle r="0.5" transform="matrix(-1 0 0 1 181.5 40.5)" fill="white"/>
<circle r="0.5" transform="matrix(-1 0 0 1 181.5 49.5)" fill="white"/>
<circle r="0.5" transform="matrix(-1 0 0 1 181.5 58.5)" fill="white"/>
<circle r="0.5" transform="matrix(-1 0 0 1 181.5 67.5)" fill="white"/>
<circle r="0.5" transform="matrix(-1 0 0 1 181.5 76.5)" fill="white"/>
<circle r="0.5" transform="matrix(-1 0 0 1 181.5 85.5)" fill="white"/>
<circle r="0.5" transform="matrix(-1 0 0 1 181.5 94.5)" fill="white"/>
<circle r="0.5" transform="matrix(-1 0 0 1 173.5 4.5)" fill="white"/>
<circle r="0.5" transform="matrix(-1 0 0 1 173.5 13.5)" fill="white"/>
<circle r="0.5" transform="matrix(-1 0 0 1 173.5 22.5)" fill="white"/>
<circle r="0.5" transform="matrix(-1 0 0 1 173.5 31.5)" fill="white"/>
<circle r="0.5" transform="matrix(-1 0 0 1 173.5 40.5)" fill="white"/>
<circle r="0.5" transform="matrix(-1 0 0 1 173.5 49.5)" fill="white"/>
<circle r="0.5" transform="matrix(-1 0 0 1 173.5 58.5)" fill="white"/>
<circle r="0.5" transform="matrix(-1 0 0 1 173.5 67.5)" fill="white"/>
<circle r="0.5" transform="matrix(-1 0 0 1 173.5 76.5)" fill="white"/>
<circle r="0.5" transform="matrix(-1 0 0 1 173.5 85.5)" fill="white"/>
<circle r="0.5" transform="matrix(-1 0 0 1 173.5 94.5)" fill="white"/>
<circle r="0.5" transform="matrix(-1 0 0 1 165.5 4.5)" fill="white"/>
<circle r="0.5" transform="matrix(-1 0 0 1 165.5 13.5)" fill="white"/>
<circle r="0.5" transform="matrix(-1 0 0 1 165.5 22.5)" fill="white"/>
<circle r="0.5" transform="matrix(-1 0 0 1 165.5 31.5)" fill="white"/>
<circle r="0.5" transform="matrix(-1 0 0 1 165.5 40.5)" fill="white"/>
<circle r="0.5" transform="matrix(-1 0 0 1 165.5 49.5)" fill="white"/>
<circle r="0.5" transform="matrix(-1 0 0 1 165.5 58.5)" fill="white"/>
<circle r="0.5" transform="matrix(-1 0 0 1 165.5 67.5)" fill="white"/>
<circle r="0.5" transform="matrix(-1 0 0 1 165.5 76.5)" fill="white"/>
<circle r="0.5" transform="matrix(-1 0 0 1 165.5 85.5)" fill="white"/>
<circle r="0.5" transform="matrix(-1 0 0 1 165.5 94.5)" fill="white"/>
<circle r="0.5" transform="matrix(-1 0 0 1 157.5 4.5)" fill="white"/>
<circle r="0.5" transform="matrix(-1 0 0 1 157.5 13.5)" fill="white"/>
<circle r="0.5" transform="matrix(-1 0 0 1 157.5 22.5)" fill="white"/>
<circle r="0.5" transform="matrix(-1 0 0 1 157.5 31.5)" fill="white"/>
<circle r="0.5" transform="matrix(-1 0 0 1 157.5 40.5)" fill="white"/>
<circle r="0.5" transform="matrix(-1 0 0 1 157.5 49.5)" fill="white"/>
<circle r="0.5" transform="matrix(-1 0 0 1 157.5 58.5)" fill="white"/>
<circle r="0.5" transform="matrix(-1 0 0 1 157.5 67.5)" fill="white"/>
<circle r="0.5" transform="matrix(-1 0 0 1 157.5 76.5)" fill="white"/>
<circle r="0.5" transform="matrix(-1 0 0 1 157.5 85.5)" fill="white"/>
<circle r="0.5" transform="matrix(-1 0 0 1 157.5 94.5)" fill="white"/>
<circle r="0.5" transform="matrix(-1 0 0 1 149.5 4.5)" fill="white"/>
<circle r="0.5" transform="matrix(-1 0 0 1 149.5 13.5)" fill="white"/>
<circle r="0.5" transform="matrix(-1 0 0 1 149.5 22.5)" fill="white"/>
<circle r="0.5" transform="matrix(-1 0 0 1 149.5 31.5)" fill="white"/>
<circle r="0.5" transform="matrix(-1 0 0 1 149.5 40.5)" fill="white"/>
<circle r="0.5" transform="matrix(-1 0 0 1 149.5 49.5)" fill="white"/>
<circle r="0.5" transform="matrix(-1 0 0 1 149.5 58.5)" fill="white"/>
<circle r="0.5" transform="matrix(-1 0 0 1 149.5 67.5)" fill="white"/>
<circle r="0.5" transform="matrix(-1 0 0 1 149.5 76.5)" fill="white"/>
<circle r="0.5" transform="matrix(-1 0 0 1 149.5 85.5)" fill="white"/>
<circle r="0.5" transform="matrix(-1 0 0 1 149.5 94.5)" fill="white"/>
<circle r="0.5" transform="matrix(-1 0 0 1 141.5 4.5)" fill="white"/>
<circle r="0.5" transform="matrix(-1 0 0 1 141.5 13.5)" fill="white"/>
<circle r="0.5" transform="matrix(-1 0 0 1 141.5 22.5)" fill="white"/>
<circle r="0.5" transform="matrix(-1 0 0 1 141.5 31.5)" fill="white"/>
<circle r="0.5" transform="matrix(-1 0 0 1 141.5 40.5)" fill="white"/>
<circle r="0.5" transform="matrix(-1 0 0 1 141.5 49.5)" fill="white"/>
<circle r="0.5" transform="matrix(-1 0 0 1 141.5 58.5)" fill="white"/>
<circle r="0.5" transform="matrix(-1 0 0 1 141.5 67.5)" fill="white"/>
<circle r="0.5" transform="matrix(-1 0 0 1 141.5 76.5)" fill="white"/>
<circle r="0.5" transform="matrix(-1 0 0 1 141.5 85.5)" fill="white"/>
<circle r="0.5" transform="matrix(-1 0 0 1 141.5 94.5)" fill="white"/>
<circle r="0.5" transform="matrix(-1 0 0 1 133.5 4.5)" fill="white"/>
<circle r="0.5" transform="matrix(-1 0 0 1 133.5 13.5)" fill="white"/>
<circle r="0.5" transform="matrix(-1 0 0 1 133.5 22.5)" fill="white"/>
<circle r="0.5" transform="matrix(-1 0 0 1 133.5 31.5)" fill="white"/>
<circle r="0.5" transform="matrix(-1 0 0 1 133.5 40.5)" fill="white"/>
<circle r="0.5" transform="matrix(-1 0 0 1 133.5 49.5)" fill="white"/>
<circle r="0.5" transform="matrix(-1 0 0 1 133.5 58.5)" fill="white"/>
<circle r="0.5" transform="matrix(-1 0 0 1 133.5 67.5)" fill="white"/>
<circle r="0.5" transform="matrix(-1 0 0 1 133.5 76.5)" fill="white"/>
<circle r="0.5" transform="matrix(-1 0 0 1 133.5 85.5)" fill="white"/>
<circle r="0.5" transform="matrix(-1 0 0 1 133.5 94.5)" fill="white"/>
<circle r="0.5" transform="matrix(-1 0 0 1 125.5 4.5)" fill="white"/>
<circle r="0.5" transform="matrix(-1 0 0 1 125.5 13.5)" fill="white"/>
<circle r="0.5" transform="matrix(-1 0 0 1 125.5 22.5)" fill="white"/>
<circle r="0.5" transform="matrix(-1 0 0 1 125.5 31.5)" fill="white"/>
<circle r="0.5" transform="matrix(-1 0 0 1 125.5 40.5)" fill="white"/>
<circle r="0.5" transform="matrix(-1 0 0 1 125.5 49.5)" fill="white"/>
<circle r="0.5" transform="matrix(-1 0 0 1 125.5 58.5)" fill="white"/>
<circle r="0.5" transform="matrix(-1 0 0 1 125.5 67.5)" fill="white"/>
<circle r="0.5" transform="matrix(-1 0 0 1 125.5 76.5)" fill="white"/>
<circle r="0.5" transform="matrix(-1 0 0 1 125.5 85.5)" fill="white"/>
<circle r="0.5" transform="matrix(-1 0 0 1 125.5 94.5)" fill="white"/>
<circle r="0.5" transform="matrix(-1 0 0 1 117.5 4.5)" fill="white"/>
<circle r="0.5" transform="matrix(-1 0 0 1 117.5 13.5)" fill="white"/>
<circle r="0.5" transform="matrix(-1 0 0 1 117.5 22.5)" fill="white"/>
<circle r="0.5" transform="matrix(-1 0 0 1 117.5 31.5)" fill="white"/>
<circle r="0.5" transform="matrix(-1 0 0 1 117.5 40.5)" fill="white"/>
<circle r="0.5" transform="matrix(-1 0 0 1 117.5 49.5)" fill="white"/>
<circle r="0.5" transform="matrix(-1 0 0 1 117.5 58.5)" fill="white"/>
<circle r="0.5" transform="matrix(-1 0 0 1 117.5 67.5)" fill="white"/>
<circle r="0.5" transform="matrix(-1 0 0 1 117.5 76.5)" fill="white"/>
<circle r="0.5" transform="matrix(-1 0 0 1 117.5 85.5)" fill="white"/>
<circle r="0.5" transform="matrix(-1 0 0 1 117.5 94.5)" fill="white"/>
<circle r="0.5" transform="matrix(-1 0 0 1 109.5 4.5)" fill="white"/>
<circle r="0.5" transform="matrix(-1 0 0 1 109.5 13.5)" fill="white"/>
<circle r="0.5" transform="matrix(-1 0 0 1 109.5 22.5)" fill="white"/>
<circle r="0.5" transform="matrix(-1 0 0 1 109.5 31.5)" fill="white"/>
<circle r="0.5" transform="matrix(-1 0 0 1 109.5 40.5)" fill="white"/>
<circle r="0.5" transform="matrix(-1 0 0 1 109.5 49.5)" fill="white"/>
<circle r="0.5" transform="matrix(-1 0 0 1 109.5 58.5)" fill="white"/>
<circle r="0.5" transform="matrix(-1 0 0 1 109.5 67.5)" fill="white"/>
<circle r="0.5" transform="matrix(-1 0 0 1 109.5 76.5)" fill="white"/>
<circle r="0.5" transform="matrix(-1 0 0 1 109.5 85.5)" fill="white"/>
<circle r="0.5" transform="matrix(-1 0 0 1 109.5 94.5)" fill="white"/>
<circle r="0.5" transform="matrix(-1 0 0 1 101.5 4.5)" fill="white"/>
<circle r="0.5" transform="matrix(-1 0 0 1 101.5 13.5)" fill="white"/>
<circle r="0.5" transform="matrix(-1 0 0 1 101.5 22.5)" fill="white"/>
<circle r="0.5" transform="matrix(-1 0 0 1 101.5 31.5)" fill="white"/>
<circle r="0.5" transform="matrix(-1 0 0 1 101.5 40.5)" fill="white"/>
<circle r="0.5" transform="matrix(-1 0 0 1 101.5 49.5)" fill="white"/>
<circle r="0.5" transform="matrix(-1 0 0 1 101.5 58.5)" fill="white"/>
<circle r="0.5" transform="matrix(-1 0 0 1 101.5 67.5)" fill="white"/>
<circle r="0.5" transform="matrix(-1 0 0 1 101.5 76.5)" fill="white"/>
<circle r="0.5" transform="matrix(-1 0 0 1 101.5 85.5)" fill="white"/>
<circle r="0.5" transform="matrix(-1 0 0 1 101.5 94.5)" fill="white"/>
<circle r="0.5" transform="matrix(-1 0 0 1 93.5 4.5)" fill="white"/>
<circle r="0.5" transform="matrix(-1 0 0 1 93.5 13.5)" fill="white"/>
<circle r="0.5" transform="matrix(-1 0 0 1 93.5 22.5)" fill="white"/>
<circle r="0.5" transform="matrix(-1 0 0 1 93.5 31.5)" fill="white"/>
<circle r="0.5" transform="matrix(-1 0 0 1 93.5 40.5)" fill="white"/>
<circle r="0.5" transform="matrix(-1 0 0 1 93.5 49.5)" fill="white"/>
<circle r="0.5" transform="matrix(-1 0 0 1 93.5 58.5)" fill="white"/>
<circle r="0.5" transform="matrix(-1 0 0 1 93.5 67.5)" fill="white"/>
<circle r="0.5" transform="matrix(-1 0 0 1 93.5 76.5)" fill="white"/>
<circle r="0.5" transform="matrix(-1 0 0 1 93.5 85.5)" fill="white"/>
<circle r="0.5" transform="matrix(-1 0 0 1 93.5 94.5)" fill="white"/>
<circle r="0.5" transform="matrix(-1 0 0 1 85.5 4.5)" fill="white"/>
<circle r="0.5" transform="matrix(-1 0 0 1 85.5 13.5)" fill="white"/>
<circle r="0.5" transform="matrix(-1 0 0 1 85.5 22.5)" fill="white"/>
<circle r="0.5" transform="matrix(-1 0 0 1 85.5 31.5)" fill="white"/>
<circle r="0.5" transform="matrix(-1 0 0 1 85.5 40.5)" fill="white"/>
<circle r="0.5" transform="matrix(-1 0 0 1 85.5 49.5)" fill="white"/>
<circle r="0.5" transform="matrix(-1 0 0 1 85.5 58.5)" fill="white"/>
<circle r="0.5" transform="matrix(-1 0 0 1 85.5 67.5)" fill="white"/>
<circle r="0.5" transform="matrix(-1 0 0 1 85.5 76.5)" fill="white"/>
<circle r="0.5" transform="matrix(-1 0 0 1 85.5 85.5)" fill="white"/>
<circle r="0.5" transform="matrix(-1 0 0 1 85.5 94.5)" fill="white"/>
<circle r="0.5" transform="matrix(-1 0 0 1 77.5 4.5)" fill="white"/>
<circle r="0.5" transform="matrix(-1 0 0 1 77.5 13.5)" fill="white"/>
<circle r="0.5" transform="matrix(-1 0 0 1 77.5 22.5)" fill="white"/>
<circle r="0.5" transform="matrix(-1 0 0 1 77.5 31.5)" fill="white"/>
<circle r="0.5" transform="matrix(-1 0 0 1 77.5 40.5)" fill="white"/>
<circle r="0.5" transform="matrix(-1 0 0 1 77.5 49.5)" fill="white"/>
<circle r="0.5" transform="matrix(-1 0 0 1 77.5 58.5)" fill="white"/>
<circle r="0.5" transform="matrix(-1 0 0 1 77.5 67.5)" fill="white"/>
<circle r="0.5" transform="matrix(-1 0 0 1 77.5 76.5)" fill="white"/>
<circle r="0.5" transform="matrix(-1 0 0 1 77.5 85.5)" fill="white"/>
<circle r="0.5" transform="matrix(-1 0 0 1 77.5 94.5)" fill="white"/>
<circle r="0.5" transform="matrix(-1 0 0 1 69.5 4.5)" fill="white"/>
<circle r="0.5" transform="matrix(-1 0 0 1 69.5 13.5)" fill="white"/>
<circle r="0.5" transform="matrix(-1 0 0 1 69.5 22.5)" fill="white"/>
<circle r="0.5" transform="matrix(-1 0 0 1 69.5 31.5)" fill="white"/>
<circle r="0.5" transform="matrix(-1 0 0 1 69.5 40.5)" fill="white"/>
<circle r="0.5" transform="matrix(-1 0 0 1 69.5 49.5)" fill="white"/>
<circle r="0.5" transform="matrix(-1 0 0 1 69.5 58.5)" fill="white"/>
<circle r="0.5" transform="matrix(-1 0 0 1 69.5 67.5)" fill="white"/>
<circle r="0.5" transform="matrix(-1 0 0 1 69.5 76.5)" fill="white"/>
<circle r="0.5" transform="matrix(-1 0 0 1 69.5 85.5)" fill="white"/>
<circle r="0.5" transform="matrix(-1 0 0 1 69.5 94.5)" fill="white"/>
<circle r="0.5" transform="matrix(-1 0 0 1 61.5 4.5)" fill="white"/>
<circle r="0.5" transform="matrix(-1 0 0 1 61.5 13.5)" fill="white"/>
<circle r="0.5" transform="matrix(-1 0 0 1 61.5 22.5)" fill="white"/>
<circle r="0.5" transform="matrix(-1 0 0 1 61.5 31.5)" fill="white"/>
<circle r="0.5" transform="matrix(-1 0 0 1 61.5 40.5)" fill="white"/>
<circle r="0.5" transform="matrix(-1 0 0 1 61.5 49.5)" fill="white"/>
<circle r="0.5" transform="matrix(-1 0 0 1 61.5 58.5)" fill="white"/>
<circle r="0.5" transform="matrix(-1 0 0 1 61.5 67.5)" fill="white"/>
<circle r="0.5" transform="matrix(-1 0 0 1 61.5 76.5)" fill="white"/>
<circle r="0.5" transform="matrix(-1 0 0 1 61.5 85.5)" fill="white"/>
<circle r="0.5" transform="matrix(-1 0 0 1 61.5 94.5)" fill="white"/>
<circle r="0.5" transform="matrix(-1 0 0 1 53.5 4.5)" fill="white"/>
<circle r="0.5" transform="matrix(-1 0 0 1 53.5 13.5)" fill="white"/>
<circle r="0.5" transform="matrix(-1 0 0 1 53.5 22.5)" fill="white"/>
<circle r="0.5" transform="matrix(-1 0 0 1 53.5 31.5)" fill="white"/>
<circle r="0.5" transform="matrix(-1 0 0 1 53.5 40.5)" fill="white"/>
<circle r="0.5" transform="matrix(-1 0 0 1 53.5 49.5)" fill="white"/>
<circle r="0.5" transform="matrix(-1 0 0 1 53.5 58.5)" fill="white"/>
<circle r="0.5" transform="matrix(-1 0 0 1 53.5 67.5)" fill="white"/>
<circle r="0.5" transform="matrix(-1 0 0 1 53.5 76.5)" fill="white"/>
<circle r="0.5" transform="matrix(-1 0 0 1 53.5 85.5)" fill="white"/>
<circle r="0.5" transform="matrix(-1 0 0 1 53.5 94.5)" fill="white"/>
<circle r="0.5" transform="matrix(-1 0 0 1 45.5 4.5)" fill="white"/>
<circle r="0.5" transform="matrix(-1 0 0 1 45.5 13.5)" fill="white"/>
<circle r="0.5" transform="matrix(-1 0 0 1 45.5 22.5)" fill="white"/>
<circle r="0.5" transform="matrix(-1 0 0 1 45.5 31.5)" fill="white"/>
<circle r="0.5" transform="matrix(-1 0 0 1 45.5 40.5)" fill="white"/>
<circle r="0.5" transform="matrix(-1 0 0 1 45.5 49.5)" fill="white"/>
<circle r="0.5" transform="matrix(-1 0 0 1 45.5 58.5)" fill="white"/>
<circle r="0.5" transform="matrix(-1 0 0 1 45.5 67.5)" fill="white"/>
<circle r="0.5" transform="matrix(-1 0 0 1 45.5 76.5)" fill="white"/>
<circle r="0.5" transform="matrix(-1 0 0 1 45.5 85.5)" fill="white"/>
<circle r="0.5" transform="matrix(-1 0 0 1 45.5 94.5)" fill="white"/>
<circle r="0.5" transform="matrix(-1 0 0 1 37.5 4.5)" fill="white"/>
<circle r="0.5" transform="matrix(-1 0 0 1 37.5 13.5)" fill="white"/>
<circle r="0.5" transform="matrix(-1 0 0 1 37.5 22.5)" fill="white"/>
<circle r="0.5" transform="matrix(-1 0 0 1 37.5 31.5)" fill="white"/>
<circle r="0.5" transform="matrix(-1 0 0 1 37.5 40.5)" fill="white"/>
<circle r="0.5" transform="matrix(-1 0 0 1 37.5 49.5)" fill="white"/>
<circle r="0.5" transform="matrix(-1 0 0 1 37.5 58.5)" fill="white"/>
<circle r="0.5" transform="matrix(-1 0 0 1 37.5 67.5)" fill="white"/>
<circle r="0.5" transform="matrix(-1 0 0 1 37.5 76.5)" fill="white"/>
<circle r="0.5" transform="matrix(-1 0 0 1 37.5 85.5)" fill="white"/>
<circle r="0.5" transform="matrix(-1 0 0 1 37.5 94.5)" fill="white"/>
<circle r="0.5" transform="matrix(-1 0 0 1 29.5 4.5)" fill="white"/>
<circle r="0.5" transform="matrix(-1 0 0 1 29.5 13.5)" fill="white"/>
<circle r="0.5" transform="matrix(-1 0 0 1 29.5 22.5)" fill="white"/>
<circle r="0.5" transform="matrix(-1 0 0 1 29.5 31.5)" fill="white"/>
<circle r="0.5" transform="matrix(-1 0 0 1 29.5 40.5)" fill="white"/>
<circle r="0.5" transform="matrix(-1 0 0 1 29.5 49.5)" fill="white"/>
<circle r="0.5" transform="matrix(-1 0 0 1 29.5 58.5)" fill="white"/>
<circle r="0.5" transform="matrix(-1 0 0 1 29.5 67.5)" fill="white"/>
<circle r="0.5" transform="matrix(-1 0 0 1 29.5 76.5)" fill="white"/>
<circle r="0.5" transform="matrix(-1 0 0 1 29.5 85.5)" fill="white"/>
<circle r="0.5" transform="matrix(-1 0 0 1 29.5 94.5)" fill="white"/>
<circle r="0.5" transform="matrix(-1 0 0 1 21.5 4.5)" fill="white"/>
<circle r="0.5" transform="matrix(-1 0 0 1 21.5 13.5)" fill="white"/>
<circle r="0.5" transform="matrix(-1 0 0 1 21.5 22.5)" fill="white"/>
<circle r="0.5" transform="matrix(-1 0 0 1 21.5 31.5)" fill="white"/>
<circle r="0.5" transform="matrix(-1 0 0 1 21.5 40.5)" fill="white"/>
<circle r="0.5" transform="matrix(-1 0 0 1 21.5 49.5)" fill="white"/>
<circle r="0.5" transform="matrix(-1 0 0 1 21.5 58.5)" fill="white"/>
<circle r="0.5" transform="matrix(-1 0 0 1 21.5 67.5)" fill="white"/>
<circle r="0.5" transform="matrix(-1 0 0 1 21.5 76.5)" fill="white"/>
<circle r="0.5" transform="matrix(-1 0 0 1 21.5 85.5)" fill="white"/>
<circle r="0.5" transform="matrix(-1 0 0 1 21.5 94.5)" fill="white"/>
<circle r="0.5" transform="matrix(-1 0 0 1 13.5 4.5)" fill="white"/>
<circle r="0.5" transform="matrix(-1 0 0 1 13.5 13.5)" fill="white"/>
<circle r="0.5" transform="matrix(-1 0 0 1 13.5 22.5)" fill="white"/>
<circle r="0.5" transform="matrix(-1 0 0 1 13.5 31.5)" fill="white"/>
<circle r="0.5" transform="matrix(-1 0 0 1 13.5 40.5)" fill="white"/>
<circle r="0.5" transform="matrix(-1 0 0 1 13.5 49.5)" fill="white"/>
<circle r="0.5" transform="matrix(-1 0 0 1 13.5 58.5)" fill="white"/>
<circle r="0.5" transform="matrix(-1 0 0 1 13.5 67.5)" fill="white"/>
<circle r="0.5" transform="matrix(-1 0 0 1 13.5 76.5)" fill="white"/>
<circle r="0.5" transform="matrix(-1 0 0 1 13.5 85.5)" fill="white"/>
<circle r="0.5" transform="matrix(-1 0 0 1 13.5 94.5)" fill="white"/>
<circle r="0.5" transform="matrix(-1 0 0 1 5.5 4.5)" fill="white"/>
<circle r="0.5" transform="matrix(-1 0 0 1 5.5 13.5)" fill="white"/>
<circle r="0.5" transform="matrix(-1 0 0 1 5.5 22.5)" fill="white"/>
<circle r="0.5" transform="matrix(-1 0 0 1 5.5 31.5)" fill="white"/>
<circle r="0.5" transform="matrix(-1 0 0 1 5.5 40.5)" fill="white"/>
<circle r="0.5" transform="matrix(-1 0 0 1 5.5 49.5)" fill="white"/>
<circle r="0.5" transform="matrix(-1 0 0 1 5.5 58.5)" fill="white"/>
<circle r="0.5" transform="matrix(-1 0 0 1 5.5 67.5)" fill="white"/>
<circle r="0.5" transform="matrix(-1 0 0 1 5.5 76.5)" fill="white"/>
<circle r="0.5" transform="matrix(-1 0 0 1 5.5 85.5)" fill="white"/>
<circle r="0.5" transform="matrix(-1 0 0 1 5.5 94.5)" fill="white"/>
</g>
<defs>
<linearGradient id="paint0_linear_2_20512" x1="620" y1="-3.44206e-05" x2="79.315" y2="54.4212" gradientUnits="userSpaceOnUse">
<stop stop-color="#C4C4C4"/>
<stop offset="1" stop-color="#C4C4C4" stop-opacity="0"/>
</linearGradient>
</defs>
</svg>
