<svg width="521" height="91" viewBox="0 0 521 91" fill="none" xmlns="http://www.w3.org/2000/svg">
<circle r="0.5" transform="matrix(-1 0 0 1 520.5 0.5)" fill="white"/>
<circle r="0.5" transform="matrix(-1 0 0 1 520.5 9.5)" fill="white"/>
<circle r="0.5" transform="matrix(-1 0 0 1 520.5 18.5)" fill="white"/>
<circle r="0.5" transform="matrix(-1 0 0 1 520.5 27.5)" fill="white"/>
<circle r="0.5" transform="matrix(-1 0 0 1 520.5 36.5)" fill="white"/>
<circle r="0.5" transform="matrix(-1 0 0 1 520.5 45.5)" fill="white"/>
<circle r="0.5" transform="matrix(-1 0 0 1 520.5 54.5)" fill="white"/>
<circle r="0.5" transform="matrix(-1 0 0 1 520.5 63.5)" fill="white"/>
<circle r="0.5" transform="matrix(-1 0 0 1 520.5 72.5)" fill="white"/>
<circle r="0.5" transform="matrix(-1 0 0 1 520.5 81.5)" fill="white"/>
<circle r="0.5" transform="matrix(-1 0 0 1 520.5 90.5)" fill="white"/>
<circle r="0.5" transform="matrix(-1 0 0 1 512.5 0.5)" fill="white"/>
<circle r="0.5" transform="matrix(-1 0 0 1 512.5 9.5)" fill="white"/>
<circle r="0.5" transform="matrix(-1 0 0 1 512.5 18.5)" fill="white"/>
<circle r="0.5" transform="matrix(-1 0 0 1 512.5 27.5)" fill="white"/>
<circle r="0.5" transform="matrix(-1 0 0 1 512.5 36.5)" fill="white"/>
<circle r="0.5" transform="matrix(-1 0 0 1 512.5 45.5)" fill="white"/>
<circle r="0.5" transform="matrix(-1 0 0 1 512.5 54.5)" fill="white"/>
<circle r="0.5" transform="matrix(-1 0 0 1 512.5 63.5)" fill="white"/>
<circle r="0.5" transform="matrix(-1 0 0 1 512.5 72.5)" fill="white"/>
<circle r="0.5" transform="matrix(-1 0 0 1 512.5 81.5)" fill="white"/>
<circle r="0.5" transform="matrix(-1 0 0 1 512.5 90.5)" fill="white"/>
<circle r="0.5" transform="matrix(-1 0 0 1 504.5 0.5)" fill="white"/>
<circle r="0.5" transform="matrix(-1 0 0 1 504.5 9.5)" fill="white"/>
<circle r="0.5" transform="matrix(-1 0 0 1 504.5 18.5)" fill="white"/>
<circle r="0.5" transform="matrix(-1 0 0 1 504.5 27.5)" fill="white"/>
<circle r="0.5" transform="matrix(-1 0 0 1 504.5 36.5)" fill="white"/>
<circle r="0.5" transform="matrix(-1 0 0 1 504.5 45.5)" fill="white"/>
<circle r="0.5" transform="matrix(-1 0 0 1 504.5 54.5)" fill="white"/>
<circle r="0.5" transform="matrix(-1 0 0 1 504.5 63.5)" fill="white"/>
<circle r="0.5" transform="matrix(-1 0 0 1 504.5 72.5)" fill="white"/>
<circle r="0.5" transform="matrix(-1 0 0 1 504.5 81.5)" fill="white"/>
<circle r="0.5" transform="matrix(-1 0 0 1 504.5 90.5)" fill="white"/>
<circle r="0.5" transform="matrix(-1 0 0 1 496.5 0.5)" fill="white"/>
<circle r="0.5" transform="matrix(-1 0 0 1 496.5 9.5)" fill="white"/>
<circle r="0.5" transform="matrix(-1 0 0 1 496.5 18.5)" fill="white"/>
<circle r="0.5" transform="matrix(-1 0 0 1 496.5 27.5)" fill="white"/>
<circle r="0.5" transform="matrix(-1 0 0 1 496.5 36.5)" fill="white"/>
<circle r="0.5" transform="matrix(-1 0 0 1 496.5 45.5)" fill="white"/>
<circle r="0.5" transform="matrix(-1 0 0 1 496.5 54.5)" fill="white"/>
<circle r="0.5" transform="matrix(-1 0 0 1 496.5 63.5)" fill="white"/>
<circle r="0.5" transform="matrix(-1 0 0 1 496.5 72.5)" fill="white"/>
<circle r="0.5" transform="matrix(-1 0 0 1 496.5 81.5)" fill="white"/>
<circle r="0.5" transform="matrix(-1 0 0 1 496.5 90.5)" fill="white"/>
<circle r="0.5" transform="matrix(-1 0 0 1 488.5 0.5)" fill="white"/>
<circle r="0.5" transform="matrix(-1 0 0 1 488.5 9.5)" fill="white"/>
<circle r="0.5" transform="matrix(-1 0 0 1 488.5 18.5)" fill="white"/>
<circle r="0.5" transform="matrix(-1 0 0 1 488.5 27.5)" fill="white"/>
<circle r="0.5" transform="matrix(-1 0 0 1 488.5 36.5)" fill="white"/>
<circle r="0.5" transform="matrix(-1 0 0 1 488.5 45.5)" fill="white"/>
<circle r="0.5" transform="matrix(-1 0 0 1 488.5 54.5)" fill="white"/>
<circle r="0.5" transform="matrix(-1 0 0 1 488.5 63.5)" fill="white"/>
<circle r="0.5" transform="matrix(-1 0 0 1 488.5 72.5)" fill="white"/>
<circle r="0.5" transform="matrix(-1 0 0 1 488.5 81.5)" fill="white"/>
<circle r="0.5" transform="matrix(-1 0 0 1 488.5 90.5)" fill="white"/>
<circle r="0.5" transform="matrix(-1 0 0 1 480.5 0.5)" fill="white"/>
<circle r="0.5" transform="matrix(-1 0 0 1 480.5 9.5)" fill="white"/>
<circle r="0.5" transform="matrix(-1 0 0 1 480.5 18.5)" fill="white"/>
<circle r="0.5" transform="matrix(-1 0 0 1 480.5 27.5)" fill="white"/>
<circle r="0.5" transform="matrix(-1 0 0 1 480.5 36.5)" fill="white"/>
<circle r="0.5" transform="matrix(-1 0 0 1 480.5 45.5)" fill="white"/>
<circle r="0.5" transform="matrix(-1 0 0 1 480.5 54.5)" fill="white"/>
<circle r="0.5" transform="matrix(-1 0 0 1 480.5 63.5)" fill="white"/>
<circle r="0.5" transform="matrix(-1 0 0 1 480.5 72.5)" fill="white"/>
<circle r="0.5" transform="matrix(-1 0 0 1 480.5 81.5)" fill="white"/>
<circle r="0.5" transform="matrix(-1 0 0 1 480.5 90.5)" fill="white"/>
<circle r="0.5" transform="matrix(-1 0 0 1 472.5 0.5)" fill="white"/>
<circle r="0.5" transform="matrix(-1 0 0 1 472.5 9.5)" fill="white"/>
<circle r="0.5" transform="matrix(-1 0 0 1 472.5 18.5)" fill="white"/>
<circle r="0.5" transform="matrix(-1 0 0 1 472.5 27.5)" fill="white"/>
<circle r="0.5" transform="matrix(-1 0 0 1 472.5 36.5)" fill="white"/>
<circle r="0.5" transform="matrix(-1 0 0 1 472.5 45.5)" fill="white"/>
<circle r="0.5" transform="matrix(-1 0 0 1 472.5 54.5)" fill="white"/>
<circle r="0.5" transform="matrix(-1 0 0 1 472.5 63.5)" fill="white"/>
<circle r="0.5" transform="matrix(-1 0 0 1 472.5 72.5)" fill="white"/>
<circle r="0.5" transform="matrix(-1 0 0 1 472.5 81.5)" fill="white"/>
<circle r="0.5" transform="matrix(-1 0 0 1 472.5 90.5)" fill="white"/>
<circle r="0.5" transform="matrix(-1 0 0 1 464.5 0.5)" fill="white"/>
<circle r="0.5" transform="matrix(-1 0 0 1 464.5 9.5)" fill="white"/>
<circle r="0.5" transform="matrix(-1 0 0 1 464.5 18.5)" fill="white"/>
<circle r="0.5" transform="matrix(-1 0 0 1 464.5 27.5)" fill="white"/>
<circle r="0.5" transform="matrix(-1 0 0 1 464.5 36.5)" fill="white"/>
<circle r="0.5" transform="matrix(-1 0 0 1 464.5 45.5)" fill="white"/>
<circle r="0.5" transform="matrix(-1 0 0 1 464.5 54.5)" fill="white"/>
<circle r="0.5" transform="matrix(-1 0 0 1 464.5 63.5)" fill="white"/>
<circle r="0.5" transform="matrix(-1 0 0 1 464.5 72.5)" fill="white"/>
<circle r="0.5" transform="matrix(-1 0 0 1 464.5 81.5)" fill="white"/>
<circle r="0.5" transform="matrix(-1 0 0 1 464.5 90.5)" fill="white"/>
<circle r="0.5" transform="matrix(-1 0 0 1 456.5 0.5)" fill="white"/>
<circle r="0.5" transform="matrix(-1 0 0 1 456.5 9.5)" fill="white"/>
<circle r="0.5" transform="matrix(-1 0 0 1 456.5 18.5)" fill="white"/>
<circle r="0.5" transform="matrix(-1 0 0 1 456.5 27.5)" fill="white"/>
<circle r="0.5" transform="matrix(-1 0 0 1 456.5 36.5)" fill="white"/>
<circle r="0.5" transform="matrix(-1 0 0 1 456.5 45.5)" fill="white"/>
<circle r="0.5" transform="matrix(-1 0 0 1 456.5 54.5)" fill="white"/>
<circle r="0.5" transform="matrix(-1 0 0 1 456.5 63.5)" fill="white"/>
<circle r="0.5" transform="matrix(-1 0 0 1 456.5 72.5)" fill="white"/>
<circle r="0.5" transform="matrix(-1 0 0 1 456.5 81.5)" fill="white"/>
<circle r="0.5" transform="matrix(-1 0 0 1 456.5 90.5)" fill="white"/>
<circle r="0.5" transform="matrix(-1 0 0 1 448.5 0.5)" fill="white"/>
<circle r="0.5" transform="matrix(-1 0 0 1 448.5 9.5)" fill="white"/>
<circle r="0.5" transform="matrix(-1 0 0 1 448.5 18.5)" fill="white"/>
<circle r="0.5" transform="matrix(-1 0 0 1 448.5 27.5)" fill="white"/>
<circle r="0.5" transform="matrix(-1 0 0 1 448.5 36.5)" fill="white"/>
<circle r="0.5" transform="matrix(-1 0 0 1 448.5 45.5)" fill="white"/>
<circle r="0.5" transform="matrix(-1 0 0 1 448.5 54.5)" fill="white"/>
<circle r="0.5" transform="matrix(-1 0 0 1 448.5 63.5)" fill="white"/>
<circle r="0.5" transform="matrix(-1 0 0 1 448.5 72.5)" fill="white"/>
<circle r="0.5" transform="matrix(-1 0 0 1 448.5 81.5)" fill="white"/>
<circle r="0.5" transform="matrix(-1 0 0 1 448.5 90.5)" fill="white"/>
<circle r="0.5" transform="matrix(-1 0 0 1 440.5 0.5)" fill="white"/>
<circle r="0.5" transform="matrix(-1 0 0 1 440.5 9.5)" fill="white"/>
<circle r="0.5" transform="matrix(-1 0 0 1 440.5 18.5)" fill="white"/>
<circle r="0.5" transform="matrix(-1 0 0 1 440.5 27.5)" fill="white"/>
<circle r="0.5" transform="matrix(-1 0 0 1 440.5 36.5)" fill="white"/>
<circle r="0.5" transform="matrix(-1 0 0 1 440.5 45.5)" fill="white"/>
<circle r="0.5" transform="matrix(-1 0 0 1 440.5 54.5)" fill="white"/>
<circle r="0.5" transform="matrix(-1 0 0 1 440.5 63.5)" fill="white"/>
<circle r="0.5" transform="matrix(-1 0 0 1 440.5 72.5)" fill="white"/>
<circle r="0.5" transform="matrix(-1 0 0 1 440.5 81.5)" fill="white"/>
<circle r="0.5" transform="matrix(-1 0 0 1 440.5 90.5)" fill="white"/>
<circle r="0.5" transform="matrix(-1 0 0 1 432.5 0.5)" fill="white"/>
<circle r="0.5" transform="matrix(-1 0 0 1 432.5 9.5)" fill="white"/>
<circle r="0.5" transform="matrix(-1 0 0 1 432.5 18.5)" fill="white"/>
<circle r="0.5" transform="matrix(-1 0 0 1 432.5 27.5)" fill="white"/>
<circle r="0.5" transform="matrix(-1 0 0 1 432.5 36.5)" fill="white"/>
<circle r="0.5" transform="matrix(-1 0 0 1 432.5 45.5)" fill="white"/>
<circle r="0.5" transform="matrix(-1 0 0 1 432.5 54.5)" fill="white"/>
<circle r="0.5" transform="matrix(-1 0 0 1 432.5 63.5)" fill="white"/>
<circle r="0.5" transform="matrix(-1 0 0 1 432.5 72.5)" fill="white"/>
<circle r="0.5" transform="matrix(-1 0 0 1 432.5 81.5)" fill="white"/>
<circle r="0.5" transform="matrix(-1 0 0 1 432.5 90.5)" fill="white"/>
<circle r="0.5" transform="matrix(-1 0 0 1 424.5 0.5)" fill="white"/>
<circle r="0.5" transform="matrix(-1 0 0 1 424.5 9.5)" fill="white"/>
<circle r="0.5" transform="matrix(-1 0 0 1 424.5 18.5)" fill="white"/>
<circle r="0.5" transform="matrix(-1 0 0 1 424.5 27.5)" fill="white"/>
<circle r="0.5" transform="matrix(-1 0 0 1 424.5 36.5)" fill="white"/>
<circle r="0.5" transform="matrix(-1 0 0 1 424.5 45.5)" fill="white"/>
<circle r="0.5" transform="matrix(-1 0 0 1 424.5 54.5)" fill="white"/>
<circle r="0.5" transform="matrix(-1 0 0 1 424.5 63.5)" fill="white"/>
<circle r="0.5" transform="matrix(-1 0 0 1 424.5 72.5)" fill="white"/>
<circle r="0.5" transform="matrix(-1 0 0 1 424.5 81.5)" fill="white"/>
<circle r="0.5" transform="matrix(-1 0 0 1 424.5 90.5)" fill="white"/>
<circle r="0.5" transform="matrix(-1 0 0 1 416.5 0.5)" fill="white"/>
<circle r="0.5" transform="matrix(-1 0 0 1 416.5 9.5)" fill="white"/>
<circle r="0.5" transform="matrix(-1 0 0 1 416.5 18.5)" fill="white"/>
<circle r="0.5" transform="matrix(-1 0 0 1 416.5 27.5)" fill="white"/>
<circle r="0.5" transform="matrix(-1 0 0 1 416.5 36.5)" fill="white"/>
<circle r="0.5" transform="matrix(-1 0 0 1 416.5 45.5)" fill="white"/>
<circle r="0.5" transform="matrix(-1 0 0 1 416.5 54.5)" fill="white"/>
<circle r="0.5" transform="matrix(-1 0 0 1 416.5 63.5)" fill="white"/>
<circle r="0.5" transform="matrix(-1 0 0 1 416.5 72.5)" fill="white"/>
<circle r="0.5" transform="matrix(-1 0 0 1 416.5 81.5)" fill="white"/>
<circle r="0.5" transform="matrix(-1 0 0 1 416.5 90.5)" fill="white"/>
<circle r="0.5" transform="matrix(-1 0 0 1 408.5 0.5)" fill="white"/>
<circle r="0.5" transform="matrix(-1 0 0 1 408.5 9.5)" fill="white"/>
<circle r="0.5" transform="matrix(-1 0 0 1 408.5 18.5)" fill="white"/>
<circle r="0.5" transform="matrix(-1 0 0 1 408.5 27.5)" fill="white"/>
<circle r="0.5" transform="matrix(-1 0 0 1 408.5 36.5)" fill="white"/>
<circle r="0.5" transform="matrix(-1 0 0 1 408.5 45.5)" fill="white"/>
<circle r="0.5" transform="matrix(-1 0 0 1 408.5 54.5)" fill="white"/>
<circle r="0.5" transform="matrix(-1 0 0 1 408.5 63.5)" fill="white"/>
<circle r="0.5" transform="matrix(-1 0 0 1 408.5 72.5)" fill="white"/>
<circle r="0.5" transform="matrix(-1 0 0 1 408.5 81.5)" fill="white"/>
<circle r="0.5" transform="matrix(-1 0 0 1 408.5 90.5)" fill="white"/>
<circle r="0.5" transform="matrix(-1 0 0 1 400.5 0.5)" fill="white"/>
<circle r="0.5" transform="matrix(-1 0 0 1 400.5 9.5)" fill="white"/>
<circle r="0.5" transform="matrix(-1 0 0 1 400.5 18.5)" fill="white"/>
<circle r="0.5" transform="matrix(-1 0 0 1 400.5 27.5)" fill="white"/>
<circle r="0.5" transform="matrix(-1 0 0 1 400.5 36.5)" fill="white"/>
<circle r="0.5" transform="matrix(-1 0 0 1 400.5 45.5)" fill="white"/>
<circle r="0.5" transform="matrix(-1 0 0 1 400.5 54.5)" fill="white"/>
<circle r="0.5" transform="matrix(-1 0 0 1 400.5 63.5)" fill="white"/>
<circle r="0.5" transform="matrix(-1 0 0 1 400.5 72.5)" fill="white"/>
<circle r="0.5" transform="matrix(-1 0 0 1 400.5 81.5)" fill="white"/>
<circle r="0.5" transform="matrix(-1 0 0 1 400.5 90.5)" fill="white"/>
<circle r="0.5" transform="matrix(-1 0 0 1 392.5 0.5)" fill="white"/>
<circle r="0.5" transform="matrix(-1 0 0 1 392.5 9.5)" fill="white"/>
<circle r="0.5" transform="matrix(-1 0 0 1 392.5 18.5)" fill="white"/>
<circle r="0.5" transform="matrix(-1 0 0 1 392.5 27.5)" fill="white"/>
<circle r="0.5" transform="matrix(-1 0 0 1 392.5 36.5)" fill="white"/>
<circle r="0.5" transform="matrix(-1 0 0 1 392.5 45.5)" fill="white"/>
<circle r="0.5" transform="matrix(-1 0 0 1 392.5 54.5)" fill="white"/>
<circle r="0.5" transform="matrix(-1 0 0 1 392.5 63.5)" fill="white"/>
<circle r="0.5" transform="matrix(-1 0 0 1 392.5 72.5)" fill="white"/>
<circle r="0.5" transform="matrix(-1 0 0 1 392.5 81.5)" fill="white"/>
<circle r="0.5" transform="matrix(-1 0 0 1 392.5 90.5)" fill="white"/>
<circle r="0.5" transform="matrix(-1 0 0 1 384.5 0.5)" fill="white"/>
<circle r="0.5" transform="matrix(-1 0 0 1 384.5 9.5)" fill="white"/>
<circle r="0.5" transform="matrix(-1 0 0 1 384.5 18.5)" fill="white"/>
<circle r="0.5" transform="matrix(-1 0 0 1 384.5 27.5)" fill="white"/>
<circle r="0.5" transform="matrix(-1 0 0 1 384.5 36.5)" fill="white"/>
<circle r="0.5" transform="matrix(-1 0 0 1 384.5 45.5)" fill="white"/>
<circle r="0.5" transform="matrix(-1 0 0 1 384.5 54.5)" fill="white"/>
<circle r="0.5" transform="matrix(-1 0 0 1 384.5 63.5)" fill="white"/>
<circle r="0.5" transform="matrix(-1 0 0 1 384.5 72.5)" fill="white"/>
<circle r="0.5" transform="matrix(-1 0 0 1 384.5 81.5)" fill="white"/>
<circle r="0.5" transform="matrix(-1 0 0 1 384.5 90.5)" fill="white"/>
<circle r="0.5" transform="matrix(-1 0 0 1 376.5 0.5)" fill="white"/>
<circle r="0.5" transform="matrix(-1 0 0 1 376.5 9.5)" fill="white"/>
<circle r="0.5" transform="matrix(-1 0 0 1 376.5 18.5)" fill="white"/>
<circle r="0.5" transform="matrix(-1 0 0 1 376.5 27.5)" fill="white"/>
<circle r="0.5" transform="matrix(-1 0 0 1 376.5 36.5)" fill="white"/>
<circle r="0.5" transform="matrix(-1 0 0 1 376.5 45.5)" fill="white"/>
<circle r="0.5" transform="matrix(-1 0 0 1 376.5 54.5)" fill="white"/>
<circle r="0.5" transform="matrix(-1 0 0 1 376.5 63.5)" fill="white"/>
<circle r="0.5" transform="matrix(-1 0 0 1 376.5 72.5)" fill="white"/>
<circle r="0.5" transform="matrix(-1 0 0 1 376.5 81.5)" fill="white"/>
<circle r="0.5" transform="matrix(-1 0 0 1 376.5 90.5)" fill="white"/>
<circle r="0.5" transform="matrix(-1 0 0 1 368.5 0.5)" fill="white"/>
<circle r="0.5" transform="matrix(-1 0 0 1 368.5 9.5)" fill="white"/>
<circle r="0.5" transform="matrix(-1 0 0 1 368.5 18.5)" fill="white"/>
<circle r="0.5" transform="matrix(-1 0 0 1 368.5 27.5)" fill="white"/>
<circle r="0.5" transform="matrix(-1 0 0 1 368.5 36.5)" fill="white"/>
<circle r="0.5" transform="matrix(-1 0 0 1 368.5 45.5)" fill="white"/>
<circle r="0.5" transform="matrix(-1 0 0 1 368.5 54.5)" fill="white"/>
<circle r="0.5" transform="matrix(-1 0 0 1 368.5 63.5)" fill="white"/>
<circle r="0.5" transform="matrix(-1 0 0 1 368.5 72.5)" fill="white"/>
<circle r="0.5" transform="matrix(-1 0 0 1 368.5 81.5)" fill="white"/>
<circle r="0.5" transform="matrix(-1 0 0 1 368.5 90.5)" fill="white"/>
<circle r="0.5" transform="matrix(-1 0 0 1 360.5 0.5)" fill="white"/>
<circle r="0.5" transform="matrix(-1 0 0 1 360.5 9.5)" fill="white"/>
<circle r="0.5" transform="matrix(-1 0 0 1 360.5 18.5)" fill="white"/>
<circle r="0.5" transform="matrix(-1 0 0 1 360.5 27.5)" fill="white"/>
<circle r="0.5" transform="matrix(-1 0 0 1 360.5 36.5)" fill="white"/>
<circle r="0.5" transform="matrix(-1 0 0 1 360.5 45.5)" fill="white"/>
<circle r="0.5" transform="matrix(-1 0 0 1 360.5 54.5)" fill="white"/>
<circle r="0.5" transform="matrix(-1 0 0 1 360.5 63.5)" fill="white"/>
<circle r="0.5" transform="matrix(-1 0 0 1 360.5 72.5)" fill="white"/>
<circle r="0.5" transform="matrix(-1 0 0 1 360.5 81.5)" fill="white"/>
<circle r="0.5" transform="matrix(-1 0 0 1 360.5 90.5)" fill="white"/>
<circle r="0.5" transform="matrix(-1 0 0 1 352.5 0.5)" fill="white"/>
<circle r="0.5" transform="matrix(-1 0 0 1 352.5 9.5)" fill="white"/>
<circle r="0.5" transform="matrix(-1 0 0 1 352.5 18.5)" fill="white"/>
<circle r="0.5" transform="matrix(-1 0 0 1 352.5 27.5)" fill="white"/>
<circle r="0.5" transform="matrix(-1 0 0 1 352.5 36.5)" fill="white"/>
<circle r="0.5" transform="matrix(-1 0 0 1 352.5 45.5)" fill="white"/>
<circle r="0.5" transform="matrix(-1 0 0 1 352.5 54.5)" fill="white"/>
<circle r="0.5" transform="matrix(-1 0 0 1 352.5 63.5)" fill="white"/>
<circle r="0.5" transform="matrix(-1 0 0 1 352.5 72.5)" fill="white"/>
<circle r="0.5" transform="matrix(-1 0 0 1 352.5 81.5)" fill="white"/>
<circle r="0.5" transform="matrix(-1 0 0 1 352.5 90.5)" fill="white"/>
<circle r="0.5" transform="matrix(-1 0 0 1 344.5 0.5)" fill="white"/>
<circle r="0.5" transform="matrix(-1 0 0 1 344.5 9.5)" fill="white"/>
<circle r="0.5" transform="matrix(-1 0 0 1 344.5 18.5)" fill="white"/>
<circle r="0.5" transform="matrix(-1 0 0 1 344.5 27.5)" fill="white"/>
<circle r="0.5" transform="matrix(-1 0 0 1 344.5 36.5)" fill="white"/>
<circle r="0.5" transform="matrix(-1 0 0 1 344.5 45.5)" fill="white"/>
<circle r="0.5" transform="matrix(-1 0 0 1 344.5 54.5)" fill="white"/>
<circle r="0.5" transform="matrix(-1 0 0 1 344.5 63.5)" fill="white"/>
<circle r="0.5" transform="matrix(-1 0 0 1 344.5 72.5)" fill="white"/>
<circle r="0.5" transform="matrix(-1 0 0 1 344.5 81.5)" fill="white"/>
<circle r="0.5" transform="matrix(-1 0 0 1 344.5 90.5)" fill="white"/>
<circle r="0.5" transform="matrix(-1 0 0 1 336.5 0.5)" fill="white"/>
<circle r="0.5" transform="matrix(-1 0 0 1 336.5 9.5)" fill="white"/>
<circle r="0.5" transform="matrix(-1 0 0 1 336.5 18.5)" fill="white"/>
<circle r="0.5" transform="matrix(-1 0 0 1 336.5 27.5)" fill="white"/>
<circle r="0.5" transform="matrix(-1 0 0 1 336.5 36.5)" fill="white"/>
<circle r="0.5" transform="matrix(-1 0 0 1 336.5 45.5)" fill="white"/>
<circle r="0.5" transform="matrix(-1 0 0 1 336.5 54.5)" fill="white"/>
<circle r="0.5" transform="matrix(-1 0 0 1 336.5 63.5)" fill="white"/>
<circle r="0.5" transform="matrix(-1 0 0 1 336.5 72.5)" fill="white"/>
<circle r="0.5" transform="matrix(-1 0 0 1 336.5 81.5)" fill="white"/>
<circle r="0.5" transform="matrix(-1 0 0 1 336.5 90.5)" fill="white"/>
<circle r="0.5" transform="matrix(-1 0 0 1 328.5 0.5)" fill="white"/>
<circle r="0.5" transform="matrix(-1 0 0 1 328.5 9.5)" fill="white"/>
<circle r="0.5" transform="matrix(-1 0 0 1 328.5 18.5)" fill="white"/>
<circle r="0.5" transform="matrix(-1 0 0 1 328.5 27.5)" fill="white"/>
<circle r="0.5" transform="matrix(-1 0 0 1 328.5 36.5)" fill="white"/>
<circle r="0.5" transform="matrix(-1 0 0 1 328.5 45.5)" fill="white"/>
<circle r="0.5" transform="matrix(-1 0 0 1 328.5 54.5)" fill="white"/>
<circle r="0.5" transform="matrix(-1 0 0 1 328.5 63.5)" fill="white"/>
<circle r="0.5" transform="matrix(-1 0 0 1 328.5 72.5)" fill="white"/>
<circle r="0.5" transform="matrix(-1 0 0 1 328.5 81.5)" fill="white"/>
<circle r="0.5" transform="matrix(-1 0 0 1 328.5 90.5)" fill="white"/>
<circle r="0.5" transform="matrix(-1 0 0 1 320.5 0.5)" fill="white"/>
<circle r="0.5" transform="matrix(-1 0 0 1 320.5 9.5)" fill="white"/>
<circle r="0.5" transform="matrix(-1 0 0 1 320.5 18.5)" fill="white"/>
<circle r="0.5" transform="matrix(-1 0 0 1 320.5 27.5)" fill="white"/>
<circle r="0.5" transform="matrix(-1 0 0 1 320.5 36.5)" fill="white"/>
<circle r="0.5" transform="matrix(-1 0 0 1 320.5 45.5)" fill="white"/>
<circle r="0.5" transform="matrix(-1 0 0 1 320.5 54.5)" fill="white"/>
<circle r="0.5" transform="matrix(-1 0 0 1 320.5 63.5)" fill="white"/>
<circle r="0.5" transform="matrix(-1 0 0 1 320.5 72.5)" fill="white"/>
<circle r="0.5" transform="matrix(-1 0 0 1 320.5 81.5)" fill="white"/>
<circle r="0.5" transform="matrix(-1 0 0 1 320.5 90.5)" fill="white"/>
<circle r="0.5" transform="matrix(-1 0 0 1 312.5 0.5)" fill="white"/>
<circle r="0.5" transform="matrix(-1 0 0 1 312.5 9.5)" fill="white"/>
<circle r="0.5" transform="matrix(-1 0 0 1 312.5 18.5)" fill="white"/>
<circle r="0.5" transform="matrix(-1 0 0 1 312.5 27.5)" fill="white"/>
<circle r="0.5" transform="matrix(-1 0 0 1 312.5 36.5)" fill="white"/>
<circle r="0.5" transform="matrix(-1 0 0 1 312.5 45.5)" fill="white"/>
<circle r="0.5" transform="matrix(-1 0 0 1 312.5 54.5)" fill="white"/>
<circle r="0.5" transform="matrix(-1 0 0 1 312.5 63.5)" fill="white"/>
<circle r="0.5" transform="matrix(-1 0 0 1 312.5 72.5)" fill="white"/>
<circle r="0.5" transform="matrix(-1 0 0 1 312.5 81.5)" fill="white"/>
<circle r="0.5" transform="matrix(-1 0 0 1 312.5 90.5)" fill="white"/>
<circle r="0.5" transform="matrix(-1 0 0 1 304.5 0.5)" fill="white"/>
<circle r="0.5" transform="matrix(-1 0 0 1 304.5 9.5)" fill="white"/>
<circle r="0.5" transform="matrix(-1 0 0 1 304.5 18.5)" fill="white"/>
<circle r="0.5" transform="matrix(-1 0 0 1 304.5 27.5)" fill="white"/>
<circle r="0.5" transform="matrix(-1 0 0 1 304.5 36.5)" fill="white"/>
<circle r="0.5" transform="matrix(-1 0 0 1 304.5 45.5)" fill="white"/>
<circle r="0.5" transform="matrix(-1 0 0 1 304.5 54.5)" fill="white"/>
<circle r="0.5" transform="matrix(-1 0 0 1 304.5 63.5)" fill="white"/>
<circle r="0.5" transform="matrix(-1 0 0 1 304.5 72.5)" fill="white"/>
<circle r="0.5" transform="matrix(-1 0 0 1 304.5 81.5)" fill="white"/>
<circle r="0.5" transform="matrix(-1 0 0 1 304.5 90.5)" fill="white"/>
<circle r="0.5" transform="matrix(-1 0 0 1 296.5 0.5)" fill="white"/>
<circle r="0.5" transform="matrix(-1 0 0 1 296.5 9.5)" fill="white"/>
<circle r="0.5" transform="matrix(-1 0 0 1 296.5 18.5)" fill="white"/>
<circle r="0.5" transform="matrix(-1 0 0 1 296.5 27.5)" fill="white"/>
<circle r="0.5" transform="matrix(-1 0 0 1 296.5 36.5)" fill="white"/>
<circle r="0.5" transform="matrix(-1 0 0 1 296.5 45.5)" fill="white"/>
<circle r="0.5" transform="matrix(-1 0 0 1 296.5 54.5)" fill="white"/>
<circle r="0.5" transform="matrix(-1 0 0 1 296.5 63.5)" fill="white"/>
<circle r="0.5" transform="matrix(-1 0 0 1 296.5 72.5)" fill="white"/>
<circle r="0.5" transform="matrix(-1 0 0 1 296.5 81.5)" fill="white"/>
<circle r="0.5" transform="matrix(-1 0 0 1 296.5 90.5)" fill="white"/>
<circle r="0.5" transform="matrix(-1 0 0 1 288.5 0.5)" fill="white"/>
<circle r="0.5" transform="matrix(-1 0 0 1 288.5 9.5)" fill="white"/>
<circle r="0.5" transform="matrix(-1 0 0 1 288.5 18.5)" fill="white"/>
<circle r="0.5" transform="matrix(-1 0 0 1 288.5 27.5)" fill="white"/>
<circle r="0.5" transform="matrix(-1 0 0 1 288.5 36.5)" fill="white"/>
<circle r="0.5" transform="matrix(-1 0 0 1 288.5 45.5)" fill="white"/>
<circle r="0.5" transform="matrix(-1 0 0 1 288.5 54.5)" fill="white"/>
<circle r="0.5" transform="matrix(-1 0 0 1 288.5 63.5)" fill="white"/>
<circle r="0.5" transform="matrix(-1 0 0 1 288.5 72.5)" fill="white"/>
<circle r="0.5" transform="matrix(-1 0 0 1 288.5 81.5)" fill="white"/>
<circle r="0.5" transform="matrix(-1 0 0 1 288.5 90.5)" fill="white"/>
<circle r="0.5" transform="matrix(-1 0 0 1 280.5 0.5)" fill="white"/>
<circle r="0.5" transform="matrix(-1 0 0 1 280.5 9.5)" fill="white"/>
<circle r="0.5" transform="matrix(-1 0 0 1 280.5 18.5)" fill="white"/>
<circle r="0.5" transform="matrix(-1 0 0 1 280.5 27.5)" fill="white"/>
<circle r="0.5" transform="matrix(-1 0 0 1 280.5 36.5)" fill="white"/>
<circle r="0.5" transform="matrix(-1 0 0 1 280.5 45.5)" fill="white"/>
<circle r="0.5" transform="matrix(-1 0 0 1 280.5 54.5)" fill="white"/>
<circle r="0.5" transform="matrix(-1 0 0 1 280.5 63.5)" fill="white"/>
<circle r="0.5" transform="matrix(-1 0 0 1 280.5 72.5)" fill="white"/>
<circle r="0.5" transform="matrix(-1 0 0 1 280.5 81.5)" fill="white"/>
<circle r="0.5" transform="matrix(-1 0 0 1 280.5 90.5)" fill="white"/>
<circle r="0.5" transform="matrix(-1 0 0 1 272.5 0.5)" fill="white"/>
<circle r="0.5" transform="matrix(-1 0 0 1 272.5 9.5)" fill="white"/>
<circle r="0.5" transform="matrix(-1 0 0 1 272.5 18.5)" fill="white"/>
<circle r="0.5" transform="matrix(-1 0 0 1 272.5 27.5)" fill="white"/>
<circle r="0.5" transform="matrix(-1 0 0 1 272.5 36.5)" fill="white"/>
<circle r="0.5" transform="matrix(-1 0 0 1 272.5 45.5)" fill="white"/>
<circle r="0.5" transform="matrix(-1 0 0 1 272.5 54.5)" fill="white"/>
<circle r="0.5" transform="matrix(-1 0 0 1 272.5 63.5)" fill="white"/>
<circle r="0.5" transform="matrix(-1 0 0 1 272.5 72.5)" fill="white"/>
<circle r="0.5" transform="matrix(-1 0 0 1 272.5 81.5)" fill="white"/>
<circle r="0.5" transform="matrix(-1 0 0 1 272.5 90.5)" fill="white"/>
<circle r="0.5" transform="matrix(-1 0 0 1 264.5 0.5)" fill="white"/>
<circle r="0.5" transform="matrix(-1 0 0 1 264.5 9.5)" fill="white"/>
<circle r="0.5" transform="matrix(-1 0 0 1 264.5 18.5)" fill="white"/>
<circle r="0.5" transform="matrix(-1 0 0 1 264.5 27.5)" fill="white"/>
<circle r="0.5" transform="matrix(-1 0 0 1 264.5 36.5)" fill="white"/>
<circle r="0.5" transform="matrix(-1 0 0 1 264.5 45.5)" fill="white"/>
<circle r="0.5" transform="matrix(-1 0 0 1 264.5 54.5)" fill="white"/>
<circle r="0.5" transform="matrix(-1 0 0 1 264.5 63.5)" fill="white"/>
<circle r="0.5" transform="matrix(-1 0 0 1 264.5 72.5)" fill="white"/>
<circle r="0.5" transform="matrix(-1 0 0 1 264.5 81.5)" fill="white"/>
<circle r="0.5" transform="matrix(-1 0 0 1 264.5 90.5)" fill="white"/>
<circle r="0.5" transform="matrix(-1 0 0 1 256.5 0.5)" fill="white"/>
<circle r="0.5" transform="matrix(-1 0 0 1 256.5 9.5)" fill="white"/>
<circle r="0.5" transform="matrix(-1 0 0 1 256.5 18.5)" fill="white"/>
<circle r="0.5" transform="matrix(-1 0 0 1 256.5 27.5)" fill="white"/>
<circle r="0.5" transform="matrix(-1 0 0 1 256.5 36.5)" fill="white"/>
<circle r="0.5" transform="matrix(-1 0 0 1 256.5 45.5)" fill="white"/>
<circle r="0.5" transform="matrix(-1 0 0 1 256.5 54.5)" fill="white"/>
<circle r="0.5" transform="matrix(-1 0 0 1 256.5 63.5)" fill="white"/>
<circle r="0.5" transform="matrix(-1 0 0 1 256.5 72.5)" fill="white"/>
<circle r="0.5" transform="matrix(-1 0 0 1 256.5 81.5)" fill="white"/>
<circle r="0.5" transform="matrix(-1 0 0 1 256.5 90.5)" fill="white"/>
<circle r="0.5" transform="matrix(-1 0 0 1 248.5 0.5)" fill="white"/>
<circle r="0.5" transform="matrix(-1 0 0 1 248.5 9.5)" fill="white"/>
<circle r="0.5" transform="matrix(-1 0 0 1 248.5 18.5)" fill="white"/>
<circle r="0.5" transform="matrix(-1 0 0 1 248.5 27.5)" fill="white"/>
<circle r="0.5" transform="matrix(-1 0 0 1 248.5 36.5)" fill="white"/>
<circle r="0.5" transform="matrix(-1 0 0 1 248.5 45.5)" fill="white"/>
<circle r="0.5" transform="matrix(-1 0 0 1 248.5 54.5)" fill="white"/>
<circle r="0.5" transform="matrix(-1 0 0 1 248.5 63.5)" fill="white"/>
<circle r="0.5" transform="matrix(-1 0 0 1 248.5 72.5)" fill="white"/>
<circle r="0.5" transform="matrix(-1 0 0 1 248.5 81.5)" fill="white"/>
<circle r="0.5" transform="matrix(-1 0 0 1 248.5 90.5)" fill="white"/>
<circle r="0.5" transform="matrix(-1 0 0 1 240.5 0.5)" fill="white"/>
<circle r="0.5" transform="matrix(-1 0 0 1 240.5 9.5)" fill="white"/>
<circle r="0.5" transform="matrix(-1 0 0 1 240.5 18.5)" fill="white"/>
<circle r="0.5" transform="matrix(-1 0 0 1 240.5 27.5)" fill="white"/>
<circle r="0.5" transform="matrix(-1 0 0 1 240.5 36.5)" fill="white"/>
<circle r="0.5" transform="matrix(-1 0 0 1 240.5 45.5)" fill="white"/>
<circle r="0.5" transform="matrix(-1 0 0 1 240.5 54.5)" fill="white"/>
<circle r="0.5" transform="matrix(-1 0 0 1 240.5 63.5)" fill="white"/>
<circle r="0.5" transform="matrix(-1 0 0 1 240.5 72.5)" fill="white"/>
<circle r="0.5" transform="matrix(-1 0 0 1 240.5 81.5)" fill="white"/>
<circle r="0.5" transform="matrix(-1 0 0 1 240.5 90.5)" fill="white"/>
<circle r="0.5" transform="matrix(-1 0 0 1 232.5 0.5)" fill="white"/>
<circle r="0.5" transform="matrix(-1 0 0 1 232.5 9.5)" fill="white"/>
<circle r="0.5" transform="matrix(-1 0 0 1 232.5 18.5)" fill="white"/>
<circle r="0.5" transform="matrix(-1 0 0 1 232.5 27.5)" fill="white"/>
<circle r="0.5" transform="matrix(-1 0 0 1 232.5 36.5)" fill="white"/>
<circle r="0.5" transform="matrix(-1 0 0 1 232.5 45.5)" fill="white"/>
<circle r="0.5" transform="matrix(-1 0 0 1 232.5 54.5)" fill="white"/>
<circle r="0.5" transform="matrix(-1 0 0 1 232.5 63.5)" fill="white"/>
<circle r="0.5" transform="matrix(-1 0 0 1 232.5 72.5)" fill="white"/>
<circle r="0.5" transform="matrix(-1 0 0 1 232.5 81.5)" fill="white"/>
<circle r="0.5" transform="matrix(-1 0 0 1 232.5 90.5)" fill="white"/>
<circle r="0.5" transform="matrix(-1 0 0 1 224.5 0.5)" fill="white"/>
<circle r="0.5" transform="matrix(-1 0 0 1 224.5 9.5)" fill="white"/>
<circle r="0.5" transform="matrix(-1 0 0 1 224.5 18.5)" fill="white"/>
<circle r="0.5" transform="matrix(-1 0 0 1 224.5 27.5)" fill="white"/>
<circle r="0.5" transform="matrix(-1 0 0 1 224.5 36.5)" fill="white"/>
<circle r="0.5" transform="matrix(-1 0 0 1 224.5 45.5)" fill="white"/>
<circle r="0.5" transform="matrix(-1 0 0 1 224.5 54.5)" fill="white"/>
<circle r="0.5" transform="matrix(-1 0 0 1 224.5 63.5)" fill="white"/>
<circle r="0.5" transform="matrix(-1 0 0 1 224.5 72.5)" fill="white"/>
<circle r="0.5" transform="matrix(-1 0 0 1 224.5 81.5)" fill="white"/>
<circle r="0.5" transform="matrix(-1 0 0 1 224.5 90.5)" fill="white"/>
<circle r="0.5" transform="matrix(-1 0 0 1 216.5 0.5)" fill="white"/>
<circle r="0.5" transform="matrix(-1 0 0 1 216.5 9.5)" fill="white"/>
<circle r="0.5" transform="matrix(-1 0 0 1 216.5 18.5)" fill="white"/>
<circle r="0.5" transform="matrix(-1 0 0 1 216.5 27.5)" fill="white"/>
<circle r="0.5" transform="matrix(-1 0 0 1 216.5 36.5)" fill="white"/>
<circle r="0.5" transform="matrix(-1 0 0 1 216.5 45.5)" fill="white"/>
<circle r="0.5" transform="matrix(-1 0 0 1 216.5 54.5)" fill="white"/>
<circle r="0.5" transform="matrix(-1 0 0 1 216.5 63.5)" fill="white"/>
<circle r="0.5" transform="matrix(-1 0 0 1 216.5 72.5)" fill="white"/>
<circle r="0.5" transform="matrix(-1 0 0 1 216.5 81.5)" fill="white"/>
<circle r="0.5" transform="matrix(-1 0 0 1 216.5 90.5)" fill="white"/>
<circle r="0.5" transform="matrix(-1 0 0 1 208.5 0.5)" fill="white"/>
<circle r="0.5" transform="matrix(-1 0 0 1 208.5 9.5)" fill="white"/>
<circle r="0.5" transform="matrix(-1 0 0 1 208.5 18.5)" fill="white"/>
<circle r="0.5" transform="matrix(-1 0 0 1 208.5 27.5)" fill="white"/>
<circle r="0.5" transform="matrix(-1 0 0 1 208.5 36.5)" fill="white"/>
<circle r="0.5" transform="matrix(-1 0 0 1 208.5 45.5)" fill="white"/>
<circle r="0.5" transform="matrix(-1 0 0 1 208.5 54.5)" fill="white"/>
<circle r="0.5" transform="matrix(-1 0 0 1 208.5 63.5)" fill="white"/>
<circle r="0.5" transform="matrix(-1 0 0 1 208.5 72.5)" fill="white"/>
<circle r="0.5" transform="matrix(-1 0 0 1 208.5 81.5)" fill="white"/>
<circle r="0.5" transform="matrix(-1 0 0 1 208.5 90.5)" fill="white"/>
<circle r="0.5" transform="matrix(-1 0 0 1 200.5 0.5)" fill="white"/>
<circle r="0.5" transform="matrix(-1 0 0 1 200.5 9.5)" fill="white"/>
<circle r="0.5" transform="matrix(-1 0 0 1 200.5 18.5)" fill="white"/>
<circle r="0.5" transform="matrix(-1 0 0 1 200.5 27.5)" fill="white"/>
<circle r="0.5" transform="matrix(-1 0 0 1 200.5 36.5)" fill="white"/>
<circle r="0.5" transform="matrix(-1 0 0 1 200.5 45.5)" fill="white"/>
<circle r="0.5" transform="matrix(-1 0 0 1 200.5 54.5)" fill="white"/>
<circle r="0.5" transform="matrix(-1 0 0 1 200.5 63.5)" fill="white"/>
<circle r="0.5" transform="matrix(-1 0 0 1 200.5 72.5)" fill="white"/>
<circle r="0.5" transform="matrix(-1 0 0 1 200.5 81.5)" fill="white"/>
<circle r="0.5" transform="matrix(-1 0 0 1 200.5 90.5)" fill="white"/>
<circle r="0.5" transform="matrix(-1 0 0 1 192.5 0.5)" fill="white"/>
<circle r="0.5" transform="matrix(-1 0 0 1 192.5 9.5)" fill="white"/>
<circle r="0.5" transform="matrix(-1 0 0 1 192.5 18.5)" fill="white"/>
<circle r="0.5" transform="matrix(-1 0 0 1 192.5 27.5)" fill="white"/>
<circle r="0.5" transform="matrix(-1 0 0 1 192.5 36.5)" fill="white"/>
<circle r="0.5" transform="matrix(-1 0 0 1 192.5 45.5)" fill="white"/>
<circle r="0.5" transform="matrix(-1 0 0 1 192.5 54.5)" fill="white"/>
<circle r="0.5" transform="matrix(-1 0 0 1 192.5 63.5)" fill="white"/>
<circle r="0.5" transform="matrix(-1 0 0 1 192.5 72.5)" fill="white"/>
<circle r="0.5" transform="matrix(-1 0 0 1 192.5 81.5)" fill="white"/>
<circle r="0.5" transform="matrix(-1 0 0 1 192.5 90.5)" fill="white"/>
<circle r="0.5" transform="matrix(-1 0 0 1 184.5 0.5)" fill="white"/>
<circle r="0.5" transform="matrix(-1 0 0 1 184.5 9.5)" fill="white"/>
<circle r="0.5" transform="matrix(-1 0 0 1 184.5 18.5)" fill="white"/>
<circle r="0.5" transform="matrix(-1 0 0 1 184.5 27.5)" fill="white"/>
<circle r="0.5" transform="matrix(-1 0 0 1 184.5 36.5)" fill="white"/>
<circle r="0.5" transform="matrix(-1 0 0 1 184.5 45.5)" fill="white"/>
<circle r="0.5" transform="matrix(-1 0 0 1 184.5 54.5)" fill="white"/>
<circle r="0.5" transform="matrix(-1 0 0 1 184.5 63.5)" fill="white"/>
<circle r="0.5" transform="matrix(-1 0 0 1 184.5 72.5)" fill="white"/>
<circle r="0.5" transform="matrix(-1 0 0 1 184.5 81.5)" fill="white"/>
<circle r="0.5" transform="matrix(-1 0 0 1 184.5 90.5)" fill="white"/>
<circle r="0.5" transform="matrix(-1 0 0 1 176.5 0.5)" fill="white"/>
<circle r="0.5" transform="matrix(-1 0 0 1 176.5 9.5)" fill="white"/>
<circle r="0.5" transform="matrix(-1 0 0 1 176.5 18.5)" fill="white"/>
<circle r="0.5" transform="matrix(-1 0 0 1 176.5 27.5)" fill="white"/>
<circle r="0.5" transform="matrix(-1 0 0 1 176.5 36.5)" fill="white"/>
<circle r="0.5" transform="matrix(-1 0 0 1 176.5 45.5)" fill="white"/>
<circle r="0.5" transform="matrix(-1 0 0 1 176.5 54.5)" fill="white"/>
<circle r="0.5" transform="matrix(-1 0 0 1 176.5 63.5)" fill="white"/>
<circle r="0.5" transform="matrix(-1 0 0 1 176.5 72.5)" fill="white"/>
<circle r="0.5" transform="matrix(-1 0 0 1 176.5 81.5)" fill="white"/>
<circle r="0.5" transform="matrix(-1 0 0 1 176.5 90.5)" fill="white"/>
<circle r="0.5" transform="matrix(-1 0 0 1 168.5 0.5)" fill="white"/>
<circle r="0.5" transform="matrix(-1 0 0 1 168.5 9.5)" fill="white"/>
<circle r="0.5" transform="matrix(-1 0 0 1 168.5 18.5)" fill="white"/>
<circle r="0.5" transform="matrix(-1 0 0 1 168.5 27.5)" fill="white"/>
<circle r="0.5" transform="matrix(-1 0 0 1 168.5 36.5)" fill="white"/>
<circle r="0.5" transform="matrix(-1 0 0 1 168.5 45.5)" fill="white"/>
<circle r="0.5" transform="matrix(-1 0 0 1 168.5 54.5)" fill="white"/>
<circle r="0.5" transform="matrix(-1 0 0 1 168.5 63.5)" fill="white"/>
<circle r="0.5" transform="matrix(-1 0 0 1 168.5 72.5)" fill="white"/>
<circle r="0.5" transform="matrix(-1 0 0 1 168.5 81.5)" fill="white"/>
<circle r="0.5" transform="matrix(-1 0 0 1 168.5 90.5)" fill="white"/>
<circle r="0.5" transform="matrix(-1 0 0 1 160.5 0.5)" fill="white"/>
<circle r="0.5" transform="matrix(-1 0 0 1 160.5 9.5)" fill="white"/>
<circle r="0.5" transform="matrix(-1 0 0 1 160.5 18.5)" fill="white"/>
<circle r="0.5" transform="matrix(-1 0 0 1 160.5 27.5)" fill="white"/>
<circle r="0.5" transform="matrix(-1 0 0 1 160.5 36.5)" fill="white"/>
<circle r="0.5" transform="matrix(-1 0 0 1 160.5 45.5)" fill="white"/>
<circle r="0.5" transform="matrix(-1 0 0 1 160.5 54.5)" fill="white"/>
<circle r="0.5" transform="matrix(-1 0 0 1 160.5 63.5)" fill="white"/>
<circle r="0.5" transform="matrix(-1 0 0 1 160.5 72.5)" fill="white"/>
<circle r="0.5" transform="matrix(-1 0 0 1 160.5 81.5)" fill="white"/>
<circle r="0.5" transform="matrix(-1 0 0 1 160.5 90.5)" fill="white"/>
<circle r="0.5" transform="matrix(-1 0 0 1 152.5 0.5)" fill="white"/>
<circle r="0.5" transform="matrix(-1 0 0 1 152.5 9.5)" fill="white"/>
<circle r="0.5" transform="matrix(-1 0 0 1 152.5 18.5)" fill="white"/>
<circle r="0.5" transform="matrix(-1 0 0 1 152.5 27.5)" fill="white"/>
<circle r="0.5" transform="matrix(-1 0 0 1 152.5 36.5)" fill="white"/>
<circle r="0.5" transform="matrix(-1 0 0 1 152.5 45.5)" fill="white"/>
<circle r="0.5" transform="matrix(-1 0 0 1 152.5 54.5)" fill="white"/>
<circle r="0.5" transform="matrix(-1 0 0 1 152.5 63.5)" fill="white"/>
<circle r="0.5" transform="matrix(-1 0 0 1 152.5 72.5)" fill="white"/>
<circle r="0.5" transform="matrix(-1 0 0 1 152.5 81.5)" fill="white"/>
<circle r="0.5" transform="matrix(-1 0 0 1 152.5 90.5)" fill="white"/>
<circle r="0.5" transform="matrix(-1 0 0 1 144.5 0.5)" fill="white"/>
<circle r="0.5" transform="matrix(-1 0 0 1 144.5 9.5)" fill="white"/>
<circle r="0.5" transform="matrix(-1 0 0 1 144.5 18.5)" fill="white"/>
<circle r="0.5" transform="matrix(-1 0 0 1 144.5 27.5)" fill="white"/>
<circle r="0.5" transform="matrix(-1 0 0 1 144.5 36.5)" fill="white"/>
<circle r="0.5" transform="matrix(-1 0 0 1 144.5 45.5)" fill="white"/>
<circle r="0.5" transform="matrix(-1 0 0 1 144.5 54.5)" fill="white"/>
<circle r="0.5" transform="matrix(-1 0 0 1 144.5 63.5)" fill="white"/>
<circle r="0.5" transform="matrix(-1 0 0 1 144.5 72.5)" fill="white"/>
<circle r="0.5" transform="matrix(-1 0 0 1 144.5 81.5)" fill="white"/>
<circle r="0.5" transform="matrix(-1 0 0 1 144.5 90.5)" fill="white"/>
<circle r="0.5" transform="matrix(-1 0 0 1 136.5 0.5)" fill="white"/>
<circle r="0.5" transform="matrix(-1 0 0 1 136.5 9.5)" fill="white"/>
<circle r="0.5" transform="matrix(-1 0 0 1 136.5 18.5)" fill="white"/>
<circle r="0.5" transform="matrix(-1 0 0 1 136.5 27.5)" fill="white"/>
<circle r="0.5" transform="matrix(-1 0 0 1 136.5 36.5)" fill="white"/>
<circle r="0.5" transform="matrix(-1 0 0 1 136.5 45.5)" fill="white"/>
<circle r="0.5" transform="matrix(-1 0 0 1 136.5 54.5)" fill="white"/>
<circle r="0.5" transform="matrix(-1 0 0 1 136.5 63.5)" fill="white"/>
<circle r="0.5" transform="matrix(-1 0 0 1 136.5 72.5)" fill="white"/>
<circle r="0.5" transform="matrix(-1 0 0 1 136.5 81.5)" fill="white"/>
<circle r="0.5" transform="matrix(-1 0 0 1 136.5 90.5)" fill="white"/>
<circle r="0.5" transform="matrix(-1 0 0 1 128.5 0.5)" fill="white"/>
<circle r="0.5" transform="matrix(-1 0 0 1 128.5 9.5)" fill="white"/>
<circle r="0.5" transform="matrix(-1 0 0 1 128.5 18.5)" fill="white"/>
<circle r="0.5" transform="matrix(-1 0 0 1 128.5 27.5)" fill="white"/>
<circle r="0.5" transform="matrix(-1 0 0 1 128.5 36.5)" fill="white"/>
<circle r="0.5" transform="matrix(-1 0 0 1 128.5 45.5)" fill="white"/>
<circle r="0.5" transform="matrix(-1 0 0 1 128.5 54.5)" fill="white"/>
<circle r="0.5" transform="matrix(-1 0 0 1 128.5 63.5)" fill="white"/>
<circle r="0.5" transform="matrix(-1 0 0 1 128.5 72.5)" fill="white"/>
<circle r="0.5" transform="matrix(-1 0 0 1 128.5 81.5)" fill="white"/>
<circle r="0.5" transform="matrix(-1 0 0 1 128.5 90.5)" fill="white"/>
<circle r="0.5" transform="matrix(-1 0 0 1 120.5 0.5)" fill="white"/>
<circle r="0.5" transform="matrix(-1 0 0 1 120.5 9.5)" fill="white"/>
<circle r="0.5" transform="matrix(-1 0 0 1 120.5 18.5)" fill="white"/>
<circle r="0.5" transform="matrix(-1 0 0 1 120.5 27.5)" fill="white"/>
<circle r="0.5" transform="matrix(-1 0 0 1 120.5 36.5)" fill="white"/>
<circle r="0.5" transform="matrix(-1 0 0 1 120.5 45.5)" fill="white"/>
<circle r="0.5" transform="matrix(-1 0 0 1 120.5 54.5)" fill="white"/>
<circle r="0.5" transform="matrix(-1 0 0 1 120.5 63.5)" fill="white"/>
<circle r="0.5" transform="matrix(-1 0 0 1 120.5 72.5)" fill="white"/>
<circle r="0.5" transform="matrix(-1 0 0 1 120.5 81.5)" fill="white"/>
<circle r="0.5" transform="matrix(-1 0 0 1 120.5 90.5)" fill="white"/>
<circle r="0.5" transform="matrix(-1 0 0 1 112.5 0.5)" fill="white"/>
<circle r="0.5" transform="matrix(-1 0 0 1 112.5 9.5)" fill="white"/>
<circle r="0.5" transform="matrix(-1 0 0 1 112.5 18.5)" fill="white"/>
<circle r="0.5" transform="matrix(-1 0 0 1 112.5 27.5)" fill="white"/>
<circle r="0.5" transform="matrix(-1 0 0 1 112.5 36.5)" fill="white"/>
<circle r="0.5" transform="matrix(-1 0 0 1 112.5 45.5)" fill="white"/>
<circle r="0.5" transform="matrix(-1 0 0 1 112.5 54.5)" fill="white"/>
<circle r="0.5" transform="matrix(-1 0 0 1 112.5 63.5)" fill="white"/>
<circle r="0.5" transform="matrix(-1 0 0 1 112.5 72.5)" fill="white"/>
<circle r="0.5" transform="matrix(-1 0 0 1 112.5 81.5)" fill="white"/>
<circle r="0.5" transform="matrix(-1 0 0 1 112.5 90.5)" fill="white"/>
<circle r="0.5" transform="matrix(-1 0 0 1 104.5 0.5)" fill="white"/>
<circle r="0.5" transform="matrix(-1 0 0 1 104.5 9.5)" fill="white"/>
<circle r="0.5" transform="matrix(-1 0 0 1 104.5 18.5)" fill="white"/>
<circle r="0.5" transform="matrix(-1 0 0 1 104.5 27.5)" fill="white"/>
<circle r="0.5" transform="matrix(-1 0 0 1 104.5 36.5)" fill="white"/>
<circle r="0.5" transform="matrix(-1 0 0 1 104.5 45.5)" fill="white"/>
<circle r="0.5" transform="matrix(-1 0 0 1 104.5 54.5)" fill="white"/>
<circle r="0.5" transform="matrix(-1 0 0 1 104.5 63.5)" fill="white"/>
<circle r="0.5" transform="matrix(-1 0 0 1 104.5 72.5)" fill="white"/>
<circle r="0.5" transform="matrix(-1 0 0 1 104.5 81.5)" fill="white"/>
<circle r="0.5" transform="matrix(-1 0 0 1 104.5 90.5)" fill="white"/>
<circle r="0.5" transform="matrix(-1 0 0 1 96.5 0.5)" fill="white"/>
<circle r="0.5" transform="matrix(-1 0 0 1 96.5 9.5)" fill="white"/>
<circle r="0.5" transform="matrix(-1 0 0 1 96.5 18.5)" fill="white"/>
<circle r="0.5" transform="matrix(-1 0 0 1 96.5 27.5)" fill="white"/>
<circle r="0.5" transform="matrix(-1 0 0 1 96.5 36.5)" fill="white"/>
<circle r="0.5" transform="matrix(-1 0 0 1 96.5 45.5)" fill="white"/>
<circle r="0.5" transform="matrix(-1 0 0 1 96.5 54.5)" fill="white"/>
<circle r="0.5" transform="matrix(-1 0 0 1 96.5 63.5)" fill="white"/>
<circle r="0.5" transform="matrix(-1 0 0 1 96.5 72.5)" fill="white"/>
<circle r="0.5" transform="matrix(-1 0 0 1 96.5 81.5)" fill="white"/>
<circle r="0.5" transform="matrix(-1 0 0 1 96.5 90.5)" fill="white"/>
<circle r="0.5" transform="matrix(-1 0 0 1 88.5 0.5)" fill="white"/>
<circle r="0.5" transform="matrix(-1 0 0 1 88.5 9.5)" fill="white"/>
<circle r="0.5" transform="matrix(-1 0 0 1 88.5 18.5)" fill="white"/>
<circle r="0.5" transform="matrix(-1 0 0 1 88.5 27.5)" fill="white"/>
<circle r="0.5" transform="matrix(-1 0 0 1 88.5 36.5)" fill="white"/>
<circle r="0.5" transform="matrix(-1 0 0 1 88.5 45.5)" fill="white"/>
<circle r="0.5" transform="matrix(-1 0 0 1 88.5 54.5)" fill="white"/>
<circle r="0.5" transform="matrix(-1 0 0 1 88.5 63.5)" fill="white"/>
<circle r="0.5" transform="matrix(-1 0 0 1 88.5 72.5)" fill="white"/>
<circle r="0.5" transform="matrix(-1 0 0 1 88.5 81.5)" fill="white"/>
<circle r="0.5" transform="matrix(-1 0 0 1 88.5 90.5)" fill="white"/>
<circle r="0.5" transform="matrix(-1 0 0 1 80.5 0.5)" fill="white"/>
<circle r="0.5" transform="matrix(-1 0 0 1 80.5 9.5)" fill="white"/>
<circle r="0.5" transform="matrix(-1 0 0 1 80.5 18.5)" fill="white"/>
<circle r="0.5" transform="matrix(-1 0 0 1 80.5 27.5)" fill="white"/>
<circle r="0.5" transform="matrix(-1 0 0 1 80.5 36.5)" fill="white"/>
<circle r="0.5" transform="matrix(-1 0 0 1 80.5 45.5)" fill="white"/>
<circle r="0.5" transform="matrix(-1 0 0 1 80.5 54.5)" fill="white"/>
<circle r="0.5" transform="matrix(-1 0 0 1 80.5 63.5)" fill="white"/>
<circle r="0.5" transform="matrix(-1 0 0 1 80.5 72.5)" fill="white"/>
<circle r="0.5" transform="matrix(-1 0 0 1 80.5 81.5)" fill="white"/>
<circle r="0.5" transform="matrix(-1 0 0 1 80.5 90.5)" fill="white"/>
<circle r="0.5" transform="matrix(-1 0 0 1 72.5 0.5)" fill="white"/>
<circle r="0.5" transform="matrix(-1 0 0 1 72.5 9.5)" fill="white"/>
<circle r="0.5" transform="matrix(-1 0 0 1 72.5 18.5)" fill="white"/>
<circle r="0.5" transform="matrix(-1 0 0 1 72.5 27.5)" fill="white"/>
<circle r="0.5" transform="matrix(-1 0 0 1 72.5 36.5)" fill="white"/>
<circle r="0.5" transform="matrix(-1 0 0 1 72.5 45.5)" fill="white"/>
<circle r="0.5" transform="matrix(-1 0 0 1 72.5 54.5)" fill="white"/>
<circle r="0.5" transform="matrix(-1 0 0 1 72.5 63.5)" fill="white"/>
<circle r="0.5" transform="matrix(-1 0 0 1 72.5 72.5)" fill="white"/>
<circle r="0.5" transform="matrix(-1 0 0 1 72.5 81.5)" fill="white"/>
<circle r="0.5" transform="matrix(-1 0 0 1 72.5 90.5)" fill="white"/>
<circle r="0.5" transform="matrix(-1 0 0 1 64.5 0.5)" fill="white"/>
<circle r="0.5" transform="matrix(-1 0 0 1 64.5 9.5)" fill="white"/>
<circle r="0.5" transform="matrix(-1 0 0 1 64.5 18.5)" fill="white"/>
<circle r="0.5" transform="matrix(-1 0 0 1 64.5 27.5)" fill="white"/>
<circle r="0.5" transform="matrix(-1 0 0 1 64.5 36.5)" fill="white"/>
<circle r="0.5" transform="matrix(-1 0 0 1 64.5 45.5)" fill="white"/>
<circle r="0.5" transform="matrix(-1 0 0 1 64.5 54.5)" fill="white"/>
<circle r="0.5" transform="matrix(-1 0 0 1 64.5 63.5)" fill="white"/>
<circle r="0.5" transform="matrix(-1 0 0 1 64.5 72.5)" fill="white"/>
<circle r="0.5" transform="matrix(-1 0 0 1 64.5 81.5)" fill="white"/>
<circle r="0.5" transform="matrix(-1 0 0 1 64.5 90.5)" fill="white"/>
<circle r="0.5" transform="matrix(-1 0 0 1 56.5 0.5)" fill="white"/>
<circle r="0.5" transform="matrix(-1 0 0 1 56.5 9.5)" fill="white"/>
<circle r="0.5" transform="matrix(-1 0 0 1 56.5 18.5)" fill="white"/>
<circle r="0.5" transform="matrix(-1 0 0 1 56.5 27.5)" fill="white"/>
<circle r="0.5" transform="matrix(-1 0 0 1 56.5 36.5)" fill="white"/>
<circle r="0.5" transform="matrix(-1 0 0 1 56.5 45.5)" fill="white"/>
<circle r="0.5" transform="matrix(-1 0 0 1 56.5 54.5)" fill="white"/>
<circle r="0.5" transform="matrix(-1 0 0 1 56.5 63.5)" fill="white"/>
<circle r="0.5" transform="matrix(-1 0 0 1 56.5 72.5)" fill="white"/>
<circle r="0.5" transform="matrix(-1 0 0 1 56.5 81.5)" fill="white"/>
<circle r="0.5" transform="matrix(-1 0 0 1 56.5 90.5)" fill="white"/>
<circle r="0.5" transform="matrix(-1 0 0 1 48.5 0.5)" fill="white"/>
<circle r="0.5" transform="matrix(-1 0 0 1 48.5 9.5)" fill="white"/>
<circle r="0.5" transform="matrix(-1 0 0 1 48.5 18.5)" fill="white"/>
<circle r="0.5" transform="matrix(-1 0 0 1 48.5 27.5)" fill="white"/>
<circle r="0.5" transform="matrix(-1 0 0 1 48.5 36.5)" fill="white"/>
<circle r="0.5" transform="matrix(-1 0 0 1 48.5 45.5)" fill="white"/>
<circle r="0.5" transform="matrix(-1 0 0 1 48.5 54.5)" fill="white"/>
<circle r="0.5" transform="matrix(-1 0 0 1 48.5 63.5)" fill="white"/>
<circle r="0.5" transform="matrix(-1 0 0 1 48.5 72.5)" fill="white"/>
<circle r="0.5" transform="matrix(-1 0 0 1 48.5 81.5)" fill="white"/>
<circle r="0.5" transform="matrix(-1 0 0 1 48.5 90.5)" fill="white"/>
<circle r="0.5" transform="matrix(-1 0 0 1 40.5 0.5)" fill="white"/>
<circle r="0.5" transform="matrix(-1 0 0 1 40.5 9.5)" fill="white"/>
<circle r="0.5" transform="matrix(-1 0 0 1 40.5 18.5)" fill="white"/>
<circle r="0.5" transform="matrix(-1 0 0 1 40.5 27.5)" fill="white"/>
<circle r="0.5" transform="matrix(-1 0 0 1 40.5 36.5)" fill="white"/>
<circle r="0.5" transform="matrix(-1 0 0 1 40.5 45.5)" fill="white"/>
<circle r="0.5" transform="matrix(-1 0 0 1 40.5 54.5)" fill="white"/>
<circle r="0.5" transform="matrix(-1 0 0 1 40.5 63.5)" fill="white"/>
<circle r="0.5" transform="matrix(-1 0 0 1 40.5 72.5)" fill="white"/>
<circle r="0.5" transform="matrix(-1 0 0 1 40.5 81.5)" fill="white"/>
<circle r="0.5" transform="matrix(-1 0 0 1 40.5 90.5)" fill="white"/>
<circle r="0.5" transform="matrix(-1 0 0 1 32.5 0.5)" fill="white"/>
<circle r="0.5" transform="matrix(-1 0 0 1 32.5 9.5)" fill="white"/>
<circle r="0.5" transform="matrix(-1 0 0 1 32.5 18.5)" fill="white"/>
<circle r="0.5" transform="matrix(-1 0 0 1 32.5 27.5)" fill="white"/>
<circle r="0.5" transform="matrix(-1 0 0 1 32.5 36.5)" fill="white"/>
<circle r="0.5" transform="matrix(-1 0 0 1 32.5 45.5)" fill="white"/>
<circle r="0.5" transform="matrix(-1 0 0 1 32.5 54.5)" fill="white"/>
<circle r="0.5" transform="matrix(-1 0 0 1 32.5 63.5)" fill="white"/>
<circle r="0.5" transform="matrix(-1 0 0 1 32.5 72.5)" fill="white"/>
<circle r="0.5" transform="matrix(-1 0 0 1 32.5 81.5)" fill="white"/>
<circle r="0.5" transform="matrix(-1 0 0 1 32.5 90.5)" fill="white"/>
<circle r="0.5" transform="matrix(-1 0 0 1 24.5 0.5)" fill="white"/>
<circle r="0.5" transform="matrix(-1 0 0 1 24.5 9.5)" fill="white"/>
<circle r="0.5" transform="matrix(-1 0 0 1 24.5 18.5)" fill="white"/>
<circle r="0.5" transform="matrix(-1 0 0 1 24.5 27.5)" fill="white"/>
<circle r="0.5" transform="matrix(-1 0 0 1 24.5 36.5)" fill="white"/>
<circle r="0.5" transform="matrix(-1 0 0 1 24.5 45.5)" fill="white"/>
<circle r="0.5" transform="matrix(-1 0 0 1 24.5 54.5)" fill="white"/>
<circle r="0.5" transform="matrix(-1 0 0 1 24.5 63.5)" fill="white"/>
<circle r="0.5" transform="matrix(-1 0 0 1 24.5 72.5)" fill="white"/>
<circle r="0.5" transform="matrix(-1 0 0 1 24.5 81.5)" fill="white"/>
<circle r="0.5" transform="matrix(-1 0 0 1 24.5 90.5)" fill="white"/>
<circle r="0.5" transform="matrix(-1 0 0 1 16.5 0.5)" fill="white"/>
<circle r="0.5" transform="matrix(-1 0 0 1 16.5 9.5)" fill="white"/>
<circle r="0.5" transform="matrix(-1 0 0 1 16.5 18.5)" fill="white"/>
<circle r="0.5" transform="matrix(-1 0 0 1 16.5 27.5)" fill="white"/>
<circle r="0.5" transform="matrix(-1 0 0 1 16.5 36.5)" fill="white"/>
<circle r="0.5" transform="matrix(-1 0 0 1 16.5 45.5)" fill="white"/>
<circle r="0.5" transform="matrix(-1 0 0 1 16.5 54.5)" fill="white"/>
<circle r="0.5" transform="matrix(-1 0 0 1 16.5 63.5)" fill="white"/>
<circle r="0.5" transform="matrix(-1 0 0 1 16.5 72.5)" fill="white"/>
<circle r="0.5" transform="matrix(-1 0 0 1 16.5 81.5)" fill="white"/>
<circle r="0.5" transform="matrix(-1 0 0 1 16.5 90.5)" fill="white"/>
<circle r="0.5" transform="matrix(-1 0 0 1 8.5 0.5)" fill="white"/>
<circle r="0.5" transform="matrix(-1 0 0 1 8.5 9.5)" fill="white"/>
<circle r="0.5" transform="matrix(-1 0 0 1 8.5 18.5)" fill="white"/>
<circle r="0.5" transform="matrix(-1 0 0 1 8.5 27.5)" fill="white"/>
<circle r="0.5" transform="matrix(-1 0 0 1 8.5 36.5)" fill="white"/>
<circle r="0.5" transform="matrix(-1 0 0 1 8.5 45.5)" fill="white"/>
<circle r="0.5" transform="matrix(-1 0 0 1 8.5 54.5)" fill="white"/>
<circle r="0.5" transform="matrix(-1 0 0 1 8.5 63.5)" fill="white"/>
<circle r="0.5" transform="matrix(-1 0 0 1 8.5 72.5)" fill="white"/>
<circle r="0.5" transform="matrix(-1 0 0 1 8.5 81.5)" fill="white"/>
<circle r="0.5" transform="matrix(-1 0 0 1 8.5 90.5)" fill="white"/>
<circle r="0.5" transform="matrix(-1 0 0 1 0.5 0.5)" fill="white"/>
<circle r="0.5" transform="matrix(-1 0 0 1 0.5 9.5)" fill="white"/>
<circle r="0.5" transform="matrix(-1 0 0 1 0.5 18.5)" fill="white"/>
<circle r="0.5" transform="matrix(-1 0 0 1 0.5 27.5)" fill="white"/>
<circle r="0.5" transform="matrix(-1 0 0 1 0.5 36.5)" fill="white"/>
<circle r="0.5" transform="matrix(-1 0 0 1 0.5 45.5)" fill="white"/>
<circle r="0.5" transform="matrix(-1 0 0 1 0.5 54.5)" fill="white"/>
<circle r="0.5" transform="matrix(-1 0 0 1 0.5 63.5)" fill="white"/>
<circle r="0.5" transform="matrix(-1 0 0 1 0.5 72.5)" fill="white"/>
<circle r="0.5" transform="matrix(-1 0 0 1 0.5 81.5)" fill="white"/>
<circle r="0.5" transform="matrix(-1 0 0 1 0.5 90.5)" fill="white"/>
</svg>
