<svg width="144" height="144" viewBox="0 0 144 144" fill="none" xmlns="http://www.w3.org/2000/svg">
<g filter="url(#filter0_d_2_21310)">
<circle cx="72" cy="68" r="32" fill="#3E9765"/>
<path fill-rule="evenodd" clip-rule="evenodd" d="M78.204 61.7621C76.558 60.1151 74.369 59.2071 72.037 59.2061C67.23 59.2061 63.319 63.1151 63.318 67.9201C63.316 69.4491 63.717 70.9521 64.481 72.2771L63.244 76.7931L67.866 75.5811C69.145 76.2771 70.577 76.6421 72.033 76.6421H72.037C76.842 76.6421 80.753 72.7321 80.755 67.9271C80.756 65.5991 79.85 63.4101 78.204 61.7621Z" stroke="white" stroke-width="1.5" stroke-linecap="round" stroke-linejoin="round"/>
<path d="M73.095 69.5599L73.501 69.1569C73.874 68.7869 74.464 68.7399 74.894 69.0419C75.31 69.3339 75.686 69.5959 76.036 69.8399C76.592 70.2259 76.659 71.0179 76.18 71.4959L75.821 71.8549" stroke="white" stroke-width="1.5" stroke-linecap="round" stroke-linejoin="round"/>
<path d="M68.145 64.1789L68.504 63.8199C68.982 63.3419 69.774 63.4089 70.16 63.9639C70.403 64.3139 70.665 64.6899 70.958 65.1059C71.26 65.5359 71.214 66.1259 70.843 66.4989L70.44 66.9049" stroke="white" stroke-width="1.5" stroke-linecap="round" stroke-linejoin="round"/>
<path d="M75.821 71.8548C74.34 73.3288 71.851 72.0768 69.886 70.1108" stroke="white" stroke-width="1.5" stroke-linecap="round" stroke-linejoin="round"/>
<path d="M69.888 70.114C67.923 68.148 66.671 65.66 68.145 64.179" stroke="white" stroke-width="1.5" stroke-linecap="round" stroke-linejoin="round"/>
<path d="M70.44 66.9048C70.759 67.4078 71.168 67.9058 71.63 68.3678L71.632 68.3698C72.094 68.8318 72.592 69.2408 73.095 69.5598" stroke="white" stroke-width="1.5" stroke-linecap="round" stroke-linejoin="round"/>
</g>
<defs>
<filter id="filter0_d_2_21310" x="0" y="0" width="144" height="144" filterUnits="userSpaceOnUse" color-interpolation-filters="sRGB">
<feFlood flood-opacity="0" result="BackgroundImageFix"/>
<feColorMatrix in="SourceAlpha" type="matrix" values="0 0 0 0 0 0 0 0 0 0 0 0 0 0 0 0 0 0 127 0" result="hardAlpha"/>
<feOffset dy="4"/>
<feGaussianBlur stdDeviation="20"/>
<feComposite in2="hardAlpha" operator="out"/>
<feColorMatrix type="matrix" values="0 0 0 0 0.243137 0 0 0 0 0.592157 0 0 0 0 0.396078 0 0 0 0.32 0"/>
<feBlend mode="normal" in2="BackgroundImageFix" result="effect1_dropShadow_2_21310"/>
<feBlend mode="normal" in="SourceGraphic" in2="effect1_dropShadow_2_21310" result="shape"/>
</filter>
</defs>
</svg>
