<svg width="139" height="56" viewBox="0 0 139 56" fill="none" xmlns="http://www.w3.org/2000/svg">
<g clip-path="url(#clip0_2_19709)">
<path d="M97.2837 40.3613C98.2306 39.686 99.0791 38.8823 99.8047 37.9733C101.072 36.4793 101.988 34.7199 102.485 32.8248C102.983 30.9823 103.119 29.0612 102.888 27.1668C102.654 25.2814 102.054 23.4601 101.12 21.8053C100.17 20.1043 98.8606 18.6304 97.2837 17.4857C96.1643 16.6391 94.9267 15.9614 93.6105 15.4742C92.2825 14.9717 90.8743 14.714 89.4544 14.7137H77.2675V52.6166L79.549 52.6546V17.0485H90.1959C90.3123 17.0565 90.4279 17.073 90.5419 17.0979C90.6556 17.1244 90.7714 17.141 90.8879 17.1473C91.107 17.1728 91.3225 17.2226 91.5305 17.2956C91.74 17.3685 91.9567 17.4182 92.177 17.4439C93.9613 17.9419 95.5986 18.8642 96.949 20.1322C98.3234 21.3894 99.3825 22.9526 100.04 24.6952C100.748 26.5742 100.978 28.5993 100.71 30.589C100.455 32.4094 99.7681 34.1423 98.7058 35.6424C97.624 37.1439 96.211 38.3761 94.5763 39.2434C92.7743 40.1777 90.7932 40.7157 88.7662 40.8214L88.7966 43.2359C89.4716 43.2358 90.145 43.1721 90.8081 43.0458C91.4697 42.9241 92.1237 42.8063 92.7663 42.6998H92.8728L100.58 52.6204L103.155 52.6584L94.9261 41.8176C95.7414 41.3815 96.5288 40.8951 97.2837 40.3613ZM35.4406 38.6426H23.6112V40.6351H33.0374V40.8404C32.9348 41.2206 33.0717 40.7491 32.8663 41.175C32.6983 41.5338 32.5104 41.8829 32.3036 42.2207L31.7674 43.0382C31.4746 43.4831 31.2807 43.7987 31.178 43.9584C29.9478 45.7371 28.3306 47.2139 26.4478 48.278C24.6046 49.3342 22.5727 50.02 20.4665 50.2971C18.3605 50.5687 16.2213 50.4123 14.1773 49.837C12.0678 49.2504 10.1309 48.1639 8.53062 46.6695C7.52249 45.7635 6.61366 44.7527 5.81948 43.6542C4.99966 42.5262 4.34536 41.2867 3.87643 39.9734C3.41415 38.7455 3.08897 37.4703 2.9068 36.171C2.73281 34.8757 2.68062 33.567 2.7509 32.2621C2.83121 31.0706 3.02862 29.89 3.34028 28.7372C3.63819 27.573 4.09362 26.4549 4.69395 25.4138C5.46797 24.0999 6.34934 22.8523 7.32905 21.6836C8.31885 20.5109 9.52447 19.5389 10.8805 18.8204C12.2556 17.9958 13.7595 17.4084 15.3294 17.0827C16.9316 16.8008 18.5603 16.6987 20.1851 16.7785C20.313 16.7852 20.4401 16.8017 20.5654 16.8279C20.6907 16.8548 20.8178 16.8726 20.9456 16.8811C22.3526 17.1445 23.7191 17.5907 25.0105 18.2082C26.2779 18.8174 27.4635 19.5839 28.5391 20.4897C29.6125 21.3951 30.5657 22.434 31.3758 23.5811C32.2007 24.7576 32.8704 26.0356 33.3682 27.3835C33.4705 27.4149 33.5782 27.4243 33.6843 27.4112C33.7905 27.3981 33.8927 27.3627 33.9842 27.3075C34.0934 27.2453 34.1988 27.1767 34.2998 27.1021C34.4329 27.0899 34.5622 27.0511 34.6801 26.9881C34.8754 26.8991 35.0562 26.7812 35.2162 26.6382V26.5318C35.0783 26.0225 34.8897 25.5282 34.6535 25.0564C34.3835 24.5013 34.1591 24.064 33.9804 23.7408C33.7892 23.4875 33.6188 23.2192 33.4709 22.9385C33.2759 22.5811 33.0521 22.2403 32.8017 21.9194C31.4278 19.9029 29.6058 18.2318 27.4782 17.037C25.3781 15.8379 23.063 15.0628 20.6642 14.7556C18.2746 14.451 15.8481 14.6334 13.5309 15.2917C11.1942 15.9443 9.03771 17.1227 7.22639 18.7367C3.58865 21.9914 1.26995 26.4664 0.708983 31.3152C0.44048 33.6735 0.585886 36.0606 1.13866 38.3688C1.72139 40.7915 2.7532 43.0834 4.18062 45.1257C5.61892 47.1781 7.47282 48.9051 9.62193 50.1944C11.767 51.494 14.1707 52.3078 16.6641 52.5786C18.4079 52.7965 20.1759 52.7245 21.8962 52.3656C23.5854 52.0101 25.2118 51.4038 26.7216 50.5671C28.2423 49.7278 29.6407 48.6838 30.8776 47.4643C32.1253 46.2362 33.1918 44.8368 34.0451 43.3082C34.4546 42.6298 34.813 41.9218 35.1174 41.1902C35.4534 40.3858 35.5651 39.5054 35.4406 38.6426ZM136.274 14.4818V38.3232C136.264 39.4815 136.063 40.6303 135.677 41.7226C135.304 42.8299 134.765 43.8737 134.076 44.8178C133.24 45.9831 132.211 46.9977 131.034 47.8179C129.917 48.5994 128.688 49.2058 127.388 49.6164C126.224 49.9766 125.016 50.1687 123.798 50.1868V52.7078C124.69 52.7151 125.58 52.6464 126.46 52.5025C127.815 52.2891 129.128 51.863 130.35 51.2401C131.572 50.6231 132.709 49.8484 133.73 48.9358C134.746 48.0258 135.63 46.9789 136.358 45.8254C137.08 44.6866 137.631 43.4477 137.993 42.1484C138.053 42.0521 138.09 41.9425 138.099 41.829C138.137 41.6503 138.171 41.4488 138.209 41.2396C138.247 41.0305 138.282 40.8176 138.316 40.6198C138.336 40.4818 138.371 40.3465 138.422 40.2168C138.428 40.0648 138.446 39.9135 138.476 39.7643C138.504 39.6316 138.522 39.4968 138.529 39.3612V14.459L136.274 14.4818ZM116.577 47.8179C115.4 46.9977 114.372 45.9831 113.535 44.8178C112.844 43.8755 112.304 42.8312 111.935 41.7226C111.549 40.6303 111.347 39.4815 111.338 38.3232V14.4818L109.056 14.459V39.3612C109.063 39.4968 109.08 39.6316 109.109 39.7643C109.139 39.9135 109.157 40.0648 109.163 40.2168C109.212 40.3471 109.247 40.4822 109.269 40.6198C109.303 40.8176 109.341 41.0229 109.375 41.2396C109.41 41.4564 109.448 41.6503 109.482 41.829C109.494 41.9424 109.532 42.0516 109.592 42.1484C109.952 43.4483 110.503 44.6875 111.227 45.8254C111.954 46.9798 112.838 48.0268 113.855 48.9358C114.876 49.8484 116.012 50.6231 117.235 51.2401C118.456 51.8625 119.768 52.2885 121.121 52.5025C122.001 52.6464 122.891 52.715 123.783 52.7078V50.1868C122.565 50.169 121.357 49.9769 120.193 49.6164C118.9 49.2041 117.677 48.5976 116.566 47.8179H116.577Z" fill="white"/>
<path d="M48.5447 33.6365C47.3673 32.8185 46.3384 31.8051 45.5027 30.6402C44.8141 29.6955 44.2754 28.6502 43.9057 27.5412C43.5186 26.4504 43.3156 25.3029 43.3049 24.1456V0.0228138L41.0234 0V25.1988C41.0317 25.3343 41.0495 25.469 41.0767 25.6019C41.1082 25.7521 41.126 25.9048 41.1299 26.0582C41.1833 26.1874 41.2203 26.3228 41.2402 26.4613C41.2744 26.659 41.3086 26.8643 41.3466 27.0773C41.3847 27.2902 41.4189 27.4879 41.4531 27.6666C41.4646 27.7809 41.501 27.8912 41.5596 27.9898C41.9226 29.288 42.4748 30.5257 43.1984 31.663C43.9237 32.8182 44.8083 33.8653 45.8259 34.7734C46.8463 35.6863 47.9814 36.4622 49.2025 37.0815C50.4252 37.7022 51.7379 38.1269 53.0924 38.3401C53.9724 38.4833 54.8626 38.5533 55.7541 38.5492V36.0282C54.5362 36.011 53.3272 35.8176 52.1646 35.4541C50.8723 35.0365 49.6515 34.4235 48.5447 33.6365ZM68.2414 0.0228138V24.1456C68.2307 25.3029 68.0277 26.4504 67.6406 27.5412C67.2709 28.6502 66.7322 29.6955 66.0436 30.6402C65.2071 31.8044 64.1784 32.8177 63.0016 33.6365C61.8842 34.4196 60.653 35.0262 59.3513 35.4351C58.1887 35.7986 56.9797 35.9919 55.7617 36.0092V38.5302C56.6532 38.5343 57.5435 38.4643 58.4235 38.3211C59.7781 38.1084 61.0909 37.6837 62.3134 37.0625C63.5345 36.4432 64.6695 35.6673 65.6899 34.7544C66.7077 33.8453 67.5934 32.7984 68.3212 31.644C69.0437 30.5066 69.5947 29.2689 69.9563 27.9708C70.0149 27.8721 70.0513 27.7618 70.0628 27.6476C70.1008 27.4689 70.135 27.2674 70.1692 27.0582C70.2034 26.8491 70.2415 26.64 70.2795 26.4423C70.2967 26.3037 70.3325 26.1681 70.386 26.0392C70.3918 25.8859 70.4096 25.7334 70.4392 25.5829C70.4664 25.4499 70.4841 25.3153 70.4924 25.1798V0L68.2414 0.0228138Z" fill="white"/>
<path d="M55.5179 52.6292C61.4001 52.6292 66.1685 52.047 66.1685 51.3288C66.1685 50.6105 61.4001 50.0283 55.5179 50.0283C49.6357 50.0283 44.8672 50.6105 44.8672 51.3288C44.8672 52.047 49.6357 52.6292 55.5179 52.6292Z" fill="white"/>
</g>
<defs>
<clipPath id="clip0_2_19709">
<rect width="138.133" height="56" fill="white"/>
</clipPath>
</defs>
</svg>
